<mxfile host="65bd71144e">
    <diagram id="qybTZuk4BilS2yMHFjlE" name="Page-1">
        <mxGraphModel dx="1789" dy="1148" grid="1" gridSize="10" guides="1" tooltips="1" connect="1" arrows="1" fold="1" page="1" pageScale="1" pageWidth="827" pageHeight="1169" math="1" shadow="0">
            <root>
                <mxCell id="0"/>
                <mxCell id="1" parent="0"/>
                <mxCell id="29" value="3 x 8 &lt;br&gt;Decoder" style="rounded=0;whiteSpace=wrap;html=1;direction=south;" parent="1" vertex="1">
                    <mxGeometry x="230" y="440" width="60" height="120" as="geometry"/>
                </mxCell>
                <mxCell id="36" value="" style="endArrow=none;html=1;exitX=0;exitY=0.75;exitDx=0;exitDy=0;entryX=0;entryY=0.029;entryDx=0;entryDy=0;entryPerimeter=0;" parent="1" source="29" target="44" edge="1">
                    <mxGeometry width="50" height="50" relative="1" as="geometry">
                        <mxPoint x="380" y="579.5" as="sourcePoint"/>
                        <mxPoint x="380" y="580" as="targetPoint"/>
                    </mxGeometry>
                </mxCell>
                <mxCell id="37" value="" style="endArrow=none;html=1;entryX=-0.004;entryY=0.241;entryDx=0;entryDy=0;entryPerimeter=0;exitX=0.25;exitY=0;exitDx=0;exitDy=0;" parent="1" source="29" target="44" edge="1">
                    <mxGeometry width="50" height="50" relative="1" as="geometry">
                        <mxPoint x="330" y="540" as="sourcePoint"/>
                        <mxPoint x="380" y="610" as="targetPoint"/>
                    </mxGeometry>
                </mxCell>
                <mxCell id="38" value="" style="endArrow=none;html=1;exitX=0.75;exitY=0;exitDx=0;exitDy=0;entryX=-0.004;entryY=0.535;entryDx=0;entryDy=0;entryPerimeter=0;" parent="1" source="29" target="44" edge="1">
                    <mxGeometry width="50" height="50" relative="1" as="geometry">
                        <mxPoint x="380" y="639.5" as="sourcePoint"/>
                        <mxPoint x="380" y="640" as="targetPoint"/>
                    </mxGeometry>
                </mxCell>
                <mxCell id="39" value="" style="endArrow=none;html=1;exitX=0;exitY=0.25;exitDx=0;exitDy=0;entryX=-0.002;entryY=0.148;entryDx=0;entryDy=0;entryPerimeter=0;" parent="1" source="29" target="44" edge="1">
                    <mxGeometry width="50" height="50" relative="1" as="geometry">
                        <mxPoint x="280" y="590" as="sourcePoint"/>
                        <mxPoint x="380" y="594" as="targetPoint"/>
                    </mxGeometry>
                </mxCell>
                <mxCell id="40" value="" style="endArrow=none;html=1;exitX=0.65;exitY=0.005;exitDx=0;exitDy=0;exitPerimeter=0;entryX=-0.003;entryY=0.449;entryDx=0;entryDy=0;entryPerimeter=0;" parent="1" source="29" target="44" edge="1">
                    <mxGeometry width="50" height="50" relative="1" as="geometry">
                        <mxPoint x="330" y="630" as="sourcePoint"/>
                        <mxPoint x="380" y="630" as="targetPoint"/>
                    </mxGeometry>
                </mxCell>
                <mxCell id="41" value="" style="endArrow=none;html=1;exitX=1;exitY=0.75;exitDx=0;exitDy=0;entryX=0.018;entryY=0.701;entryDx=0;entryDy=0;entryPerimeter=0;" parent="1" source="29" target="44" edge="1">
                    <mxGeometry width="50" height="50" relative="1" as="geometry">
                        <mxPoint x="270" y="650" as="sourcePoint"/>
                        <mxPoint x="380" y="660" as="targetPoint"/>
                    </mxGeometry>
                </mxCell>
                <mxCell id="42" value="" style="endArrow=none;html=1;exitX=0.5;exitY=0;exitDx=0;exitDy=0;entryX=-0.002;entryY=0.327;entryDx=0;entryDy=0;entryPerimeter=0;" parent="1" source="29" target="44" edge="1">
                    <mxGeometry width="50" height="50" relative="1" as="geometry">
                        <mxPoint x="270" y="620" as="sourcePoint"/>
                        <mxPoint x="380" y="620" as="targetPoint"/>
                    </mxGeometry>
                </mxCell>
                <mxCell id="43" value="" style="endArrow=none;html=1;exitX=1;exitY=0.25;exitDx=0;exitDy=0;" parent="1" source="29" edge="1">
                    <mxGeometry width="50" height="50" relative="1" as="geometry">
                        <mxPoint x="290.00000000000006" y="650" as="sourcePoint"/>
                        <mxPoint x="480" y="740" as="targetPoint"/>
                    </mxGeometry>
                </mxCell>
                <mxCell id="44" value="" style="shape=image;verticalLabelPosition=bottom;labelBackgroundColor=default;verticalAlign=top;aspect=fixed;imageAspect=0;image=data:image/png,iVBORw0KGgoAAAANSUhEUgAABFsAAAQDCAYAAAC4fSSSAAAAAXNSR0IArs4c6QAAADhlWElmTU0AKgAAAAgAAYdpAAQAAAABAAAAGgAAAAAAAqACAAQAAAABAAAEW6ADAAQAAAABAAAEAwAAAABIKFpkAABAAElEQVR4AezdB3hVVdro8TekQEJJQlNqKFIsFBkVnEGKHQtVEBsyYxk7OHJFRQcZ2qhwUTrj9eNjnFGKASkqAiIgdUBHBAEFpIUaAgkESM9da49Hgck5Kbucvc/5r+eJSc7ee613/dYByZtVIkSkUH1QEEAAAQQQQAABBBBAAAEEEEAAAQQsEChnQR1UgQACCCCAAAIIIIAAAggggAACCCDwswDJFt4KCCCAAAIIIIAAAggggAACCCCAgIUCJFssxKQqBBBAAAEEEEAAAQQQQAABBBBAgGQL7wEEEEAAAQQQQAABBBBAAAEEEEDAQgGSLRZiUhUCCCCAAAIIIIAAAggggAACCCBAsoX3AAIIIIAAAggggAACCCCAAAIIIGChAMkWCzGpCgEEEEAAAQQQQAABBBBAAAEEECDZwnsAAQQQQAABBBBAAAEEEEAAAQQQsFCAZIuFmFSFAAIIIIAAAggggAACCCCAAAIIkGzhPYAAAggggAACCCCAAAIIIIAAAghYKECyxUJMqkIAAQQQQAABBBBAAAEEEEAAAQRItvAeQAABBBBAAAEEEEAAAQQQQAABBCwUINliISZVIYAAAggggAACCCCAAAIIIIAAAiRbeA8ggAACCCCAAAIIIIAAAggggAACFgqQbLEQk6oQQAABBBBAAAEEEEAAAQQQQAABki28BxBAAAEEEEAAAQQQQAABBBBAAAELBUi2WIhJVQgggAACCCCAAAIIIIAAAggggADJFt4DCCCAAAIIIIAAAggggAACCCCAgIUCJFssxKQqBBBAAAEEEEAAAQQQQAABBBBAgGQL7wEEEEAAAQQQQAABBBBAAAEEEEDAQoEoC+uiKgQQQAABBBBAICQEYmJiJC4uzrK+5OTkyNmzZy2rj4oQQAABBBBAwN0CJFvcPT5EhwACCCCAAAIOC+hEy9q1ayUhIcGylgsLC+Wbb76RJUuWyPr162X79u1SUFBgWf1UhAACCCCAAALuEohQ4RS6KySiQQABBBBAAAEEgiegkyybNm2SPXv2GJ+tiCQxMVHat28vFSpUMKo7efKk/PWvf5Xk5GQrqqcOBBBAAAEEEHCZAMkWlw0I4SCAAAIIIIBAcAV8yZY5c+bIyy+/bFkwsbGx0rZtW+OjR48eUr16dVmxYoUMGTJEjh49alk7VIQAAggggAACwRdgg9zgjwERIIAAAggggEAYCJw7d85Irrzxxhty++23y8KFC6VTp07y2WefGZ/DgIAuIoAAAgggEDYCJFvCZqjpKAIIIIAAAgi4RSA9PV2ef/55eeqpp4y9W95++22pX7++W8IjDgQQQAABBBAwKUCyxSQgjyOAAAIIIIAAAmUV0Bvm/ulPf5KKFSvKhAkTRG/OS0EAAQQQQAAB7wuQbPH+GNIDBBBAAAEEEPCwwKpVq2TatGly5ZVXGvu3eLgrhI4AAggggAACPwuYPvr5iqZNpZGa9lqpUiXZoo4x/P6HH8BFAAEEEEAAAQQQKIXAuHHj5De/+Y088MADxtHQeh8XCgIIIIAAAgh4V8BUsuWyBg2kQb16snzNGkPgfrWzflZWluzet8+7IkSOAAIIIIAAAiEtEB0VFXC5Tpw6Ncjpkp+fLwMHDpRFixbJ6NGj5ccff5Tdu3c7HQbtIYAAAggggIBFAqaSLfVq15avv/tOGqqEy/XXXCMVKlSQPl27SmpamkXhUQ0CCCCAAAIIIGCdQEREhLRWy3WiVMLFX4n+ed+UxPh4f7fY8ro+/llvmvvee+/JlClTpGfPnpKZmWlLW1SKAAIIIIAAAvYK+P+XRgnazcrOlhrVqsneAwck4/RpaaiWE+l/mHyzZUsJnuYWBBBAAAEEEEDAeYHMM2eMmS0FBQVFNh4bFycd7rpLzqrZuk6X1atXy5gxY2Tw4MEyduxYeeKJJ6SwsNDpMGgPAQQQQAABBEwKmEq2bN62TZ7o1082fPON5OblSa2aNWXe4sWSm5trMiweRwABBBBAAAEE7BH48OOPA1ackJAgL/75z5KtfqkUjPLuu+9KixYt5I477pDOnTvL8uXLgxEGbSKAAAIIIICACQFTpxGdPXdOxquprnrZUPqpUzL/889JtJgYDB5FAAEEEEAAAQS0wJtvvmnMaOnVqxcgCCCAAAIIIOBBAVMzW3R/89SMlh9/+smDXSdkBBBAAAEEEEDAnQIpKSmyceNGufHGG0XPtElPT3dnoESFAAIIIIAAAkUKmJrZUmSNvIgAAggggAACCCBgWiA5OVmio6Olqzp8gIIAAggggAAC3hIg2eKt8SJaBBBAAAEEEAgTgc8++0zOqSXb3bt3D5Me000EEEAAAQRCR4BkS+iMJT1BAAEEEEAAgRASOHv2rGzYsEGuVEdVR0ZGhlDP6AoCCCCAAAKhL0CyJfTHmB4igAACCCCAgEcF9uzZYyRa6tat69EeEDYCCCCAAALhKUCyJTzHnV4jgAACCCCAgAcE9u7da0TZoEEDD0RLiAgggAACCCDgEyDZ4pPgMwIIIIAAAggg4DKBffv2GRElJSW5LDLCQQABBBBAAIFAAiRbAulwDQEEEEAAAQQQCKIAM1uCiE/TCCCAAAIImBAg2WICj0cRQAABBBBAAAE7BQ4fPiy5ubnCzBY7lakbAQQQQAAB6wVItlhvSo0IIIAAAggggIAlAvn5+XLgwAFhzxZLOKkEAQQQQAABxwRItjhGTUMIIIAAAggggEDpBfS+Lfo0Io5/Lr0dTyCAAAIIIBAsAZItwZKnXQQQQAABBBBAoAQCet8WnWjh+OcSYHELAggggAACLhEg2eKSgSAMBBBAAAEEEECgKAHfiUQsJSpKh9cQQAABBBBwp0CUO8MiKgQQQAABBBBAAAEt4DuRqGmTJvLNpk1+UQrVlcwzZ/xe5wICCCCAAAIIOCdAssU5a1pCAAEEEEAAAQRKLXDo4EHjmfvuuUeuado04PMH1elFh48dC3iP1y5eWqOG/O+cOXLgZwevxU+8CCCAAALhKUCyJTzHnV4jgAACCCCAgEcE4ipWNCL9ac8e+WrDBr9Rx0RHy5YdO+Tw0aN+7/HihXu7dhV9KhMFAQQQQAABLwmQbPHSaBErAggggAACCISdgG+vloWLF8v8+fPDrv/nsrJItoTdqNNhBBBAwPsCbJDr/TGkBwgggAACCCAQwgJJSUlG73x7t4RwV+kaAggggAACISNAsiVkhpKOIIAAAggggEAoCvhmtvhOJQrFPtInBBBAAAEEQk2AZEuojSj9QQABBBBAAIGQEtAzWzIyMiQ9PT2k+kVnEEAAAQQQCGUBki2hPLr0DQEEEEAAAQQ8L6BntrCEyPPDSAcQQAABBMJMgGRLmA043UUAAQQQQAAB7whUrlxZqlatKiwh8s6YESkCCCCAAAJagGQL7wMEEEAAAQQQQMClAmyO69KBISwEEEAAAQSKESDZUgwQlxFAAAEEEEAAgWAJsDlusORpFwEEEEAAAXMCJFvM+fE0AggggAACCCBgmwAzW2yjpWIEEEAAAQRsFSDZYisvlSOAAAIIIIAAAmUXYGZL2e14EgEEEEAAgWAKkGwJpj5tI4AAAggggAACAQSuuOIK48hnjn0OgMQlBBBAAAEEXChAssWFg0JICCCAAAIIIIBA8+bNpVmzZrJs2TIwEEAAAQQQQMBjAiRbPDZghIsAAggggAAC4SHQq1cvo6PJycnh0WF6iQACCCCAQAgJkGwJocGkKwgggAACCCAQGgKRkZHStWtXOXDggGzatCk0OkUvEEAAAQQQCCMBki1hNNh0FQEEEEAAAQS8IXDrrbdKtWrVZO7cuVJYWOiNoIkSAQQQQAABBH4RiPrlK75AAAEEEEAAAQTCQCAmOloqlC/vt6eVK1b0e82JC3Xq1JHhw4fLmTNnZM6cOU40SRsIIIAAAgggYLEAyRaLQakOAQQQQAABBOwRePyhh6R8TIzk5OSYaqCVOuFHL9PxV6JVG7okxsf7u8W21ytUqCBTpkyReNX2008/LUeOHLGtLSpGAAEEEEAAAfsESLbYZ0vNCCCAAAIIIGChgF77vE7tX3Lo6FFTtZ7MyJDyanZLgZ/lOXFxcdLhrrvkbFaWqXbK8vCIESNEH/c8adIkWbJkSVmq4BkEEEAAAQQQcIEAyRYXDAIhIIAAAggggEDxAjm5uZKaliaHTM72mL1gQcDGEhISZPDrr0t2dnbA+6y+2Lt3b+nevbusWrVK3nnnHaurpz4EEEAAAQQQcFCADXIdxKYpBBBAAAEEEECgKIFmzZrJ0KFDjWVDL7zwghQUFBR1G68hgAACCCCAgEcESLZ4ZKAIEwEEEEAAAQRCUyA2NlbGjx8v0Wpp08CBA+XkyZOh2VF6hQACCCCAQBgJkGwJo8GmqwgggAACCCDgLgG9Ue+oUaOkcePGMm7cONmk9qShIIAAAggggID3BUi2eH8M6QECCCCAAAIIeFBAJ1hmz54td999t6xcuVKmTZvmwV4QMgIIIIAAAggUJcAGuUWp8BoCCCCAAAIIIGCTgF421K9fPxkwYIBERUXJ9OnTZezYsVLo53Qkm8KgWgQQQAABBBCwUYBki424VI0AAggggAAC3hWoUKGC1KhRw5IOJCYmyq233iodO3aUFi1aGEmWffv2yeDBg1k6ZIkwlSCAAAIIIOAuAZIt7hoPokEAAQQQQACBIAv4Zpjo5T36w8py5swZWbNmjfHxwQcfSFZWlpXVUxcCCCCAAAIIuESAZItLBoIwEEAAAQQQQMAdAhkZGTJmzBipXbu2ZQFlZ2fL6tWrjSRLXl6eZfVSEQIIIIAAAgi4U4BkizvHhagQQAABBBBAIIgCU6dODWLrNI0AAggggAACXhfgNCKvjyDxI4AAAggggAACCCCAAAIIIICAqwRItrhqOAgGAQQQQAABBBBAAAEEEEAAAQS8LkCyxesjSPwIIIAAAggggAACCCCAAAIIIOAqAZItrhoOgkEAAQQQQAABBBBAAAEEEEAAAa8LkGzx+ggSPwIIIIAAAggggAACCCCAAAIIuEqAZIurhoNgEEAAAQQQQAABBBBAAAEEEEDA6wIkW7w+gsSPAAIIIIAAAggggAACCCCAAAKuEiDZ4qrhIBgEEEAAAQQQQAABBBBAAAEEEPC6AMkWr48g8SOAAAIIIIAAAggggAACCCCAgKsESLa4ajgIBgEEEEAAAQQQQAABBBBAAAEEvC5AssXrI0j8CCCAAAIIIIAAAggggAACCCDgKgGSLa4aDoJBAAEEEEAAAQQQQAABBBBAAAGvC5Bs8foIEj8CCCCAAAIIIIAAAggggAACCLhKgGSLq4aDYBBAAAEEEEAAAQQQQAABBBBAwOsCUV7vAPEjgAACCCDgBYHY2FipXLmyZaHm5ORIenq6ZfVREQIIIIAAAggggIB1AiRbrLOkJgQQQAABBIoUKFeunKxcuVKqVq1a5PWyvrh9+3ZZsmSJrFu3TjZv3iy5ubllrYrnEEAAAQQQQAABBCwUINliISZVIYAAAgggUJRAVFSUkWjZt2+frF69uqhbSv1afHy8dOzYUQYMGGB8nDlzRsaNGyczZsyQwsLCUtfHAwgggAACCCCAAALWCZBssc6SmhBAAAEEEChSICIiwnh969atMnTo0CLvKcuL0dHR0qZNG2nbtq306tVLXn31VbntttvkpZdeEp3YoSCAAAIIIIAAAggER4ANcoPjTqsIIIAAAmEkYNdME71saMOGDTJ+/Hjp0qWLfPDBB3LNNdfIokWL5M477wwjYbqKAAIIIIAAAgi4S4Bki7vGg2gQQAABBBAok8DZs2flz3/+szz88MOSmZkpb775pjRv3rxMdfEQAggggAACCCCAgDkBki3m/HgaAQQQQAABVwmsXbtWnnnmGdH7xOgZL3Fxca6Kj2AQQAABBBBAAIFwECDZEg6jTB8RQAABBMJK4Ouvv5axY8dKo0aNZMSIEWHVdzqLAAIIIIAAAgi4QYBkixtGgRgQQAABBBCwWODdd9+VFStWSNeuXeXee++1uHaqQwABBBBAAAEEEAgkQLIlkA7XEEAAAQQQKImAXqlTO8BHrZJUYu09elPeQYMGyZEjR4y9XK666iprG6A2BBBAAAEEEEAAAb8CHP3sl4YLCCAQVgITVW8bqeN5M8Kq13TWKoFbVUUxASorVO+tY+p6nQD32HApPT3d2L/lww8/lMmTJ0v37t3lxIkTNrRElQgggAACCCCAAALnC5BsOV+DrxFAIHwFctQPwx8ViqwOXwJ6bkJgh3q2qnoP5fmpQ88jvVt9pPu5buPL3377rQwdOlRGjRolEyZMkH79+kl+fr6NLVI1AggggAACCCCAAMkW3gMIIICAFjinPg6qjx/1NxQESikwTN+vknV+SkR5dUEnW874ucHml2fPni0tW7aUvn37yp133ikLFiywuUWqRwABBBBAAAEEwluAPVvCe/zpPQIIIICAAwJ6/5Rgl3HjxhkzWnr27BnsUGgfAQQQQAABBBAIeQGSLSE/xHQQAQQQQAABkbS0NFm5cqX89re/lVq1grBjL4OAAAIIIIAAAgiEkQDJljAabLqKAAIIIBDeAsnJyVKuXDljo9zwlqD3CCCAAAIIIICAvQIkW+z1pXYEEEAAAQRcI7B8+XLRJxT16NHDNTERCAIIIIAAAgggEIoCJFtCcVTpEwIIIICAqwQiItRJRS4oubm5smbNGmnUqJHExcW5ICJCQAABBBBAAAEEQlOAZEtojiu9QgABBBBwkYAbNsj1cezdu9f4MikpyfcSnxFAAAEEEEAAAQQsFiDZYjEo1SGAAAIIIOBmgX379hnhNWjQwM1hEhsCCCCAAAIIIOBpAZItnh4+gkcAAQQQQKB0AsxsKZ0XdyOAAAIIIIAAAmURINlSFjWeQQABBBBAwKMCvmQLM1s8OoCEjQACCCCAAAKeECDZ4olhIkgEEEAAAQSsEThx4oRkZmYKe7ZY40ktCCCAAAIIIIBAUQIkW4pS4TUEEEAAAQRCWEDPbmFmSwgPMF1DAAEEEEAAgaALkGwJ+hAQAAIIIIAAAs4K6E1ya9SowfHPzrLTGgIIIIAAAgiEkQDJljAabLqKAAIIIICAFvDt28JSIt4PCCCAAAIIIICAPQIkW+xxpVYEEEAAAQRcK8Dxz64dGgJDAAEEEEAAgRARiAqRftANBBBAAAEEECihgG9mS/NmzWT9unV+nyosLJSMU6dEf6YggAACCCCAAAIIlFyAZEvJrbgTAQQQQACBkBBISUkx+tHjrrukee3aAft0LC1NDh89GvAepy7Wr1NHvtmyRfb9HL9T7dIOAggggAACCCBQWgGSLaUV434EEEAAAQQ8LlC5cmWjB7v37JEv16zx25voqCj5fudOOXj4sN97nLxQqWJFOXjkiJNN0hYCCCCAAAIIIFAmAZItZWLjIQQQQAABBLwr4Dv2efGyZTJr/nzPdORoaqpnYiVQBBBAAAEEEAhvATbIDe/xp/cIIIAAAmEo4Eu2+DbKDUMCuowAAggggAACCNgqQLLFVl4qRwABBBBAwH0CviOffRvlui9CIkIAAQQQQAABBLwtQLLF2+NH9AgggAACCJRaQM9sycrKkqMu2fi21B3gAQQQQAABBBBAwOUCJFtcPkCEhwACCCCAgNUCembL/v37OdLZaljqQwABBBBAAAEEfhYg2cJbAQEEEEAAgTASiImJkVq1aglLiMJo0OkqAggggAACCDguwGlEjpPTIAIIIIAAAsETqFevnpQrV07YHDd4Y0DL7hRISEiQ2NhYS4M7duyY5OfnW1onlSGAAAIIeEOAZIs3xokoEUAAAQQQsETAdxIRM1ss4aSSEBFo1KiRfPbZZxIZGWlpj1JSUmTSpEkyd+5cki6WylIZAggg4H4Bki3uHyMiRAABBBBAwDIB30lEzGyxjJSKQkAgLS3N6MXx48flk08+saRHFSpUkDvuuENGjx4tTz31lLz99tsyf/58S+qmEgQQQAAB9wuQbHH/GBEhAggggAAClgkws8UySioKIYGMjAz597//LVdeeaW8+eabkp2dbUnv3njjDenfv7/8/ve/l7Fjx4pexjdx4kRL6qYSBBBAAAF3C7BBrrvHh+gQQAABBEJAICIiwjW90D9Mnjt3jmOfXTMiBOIWgRUrVhh7trRr186ykE6dOiXjx4+Xm266SXbs2CEDBw6UZ555xrL6qQgBBBBAwL0CJFvcOzZEhgACCCAQIgKFhYWu6EnDhg2lVatWsmzZMo59dsWIEISbBHSyRZdOnToZn638z4kTJ+TBBx8k4WIlKnUhgAACLhcg2eLyASI8BBBAAAEErBLo1auXUVVycrJVVVIPAiEjoGeeHD58WDp37mxLn9LT042Ey/bt240ZLvfee68t7VApAggggIA7BEi2uGMciAIBBBBAAAFbBfRxz927dzeWD61du9bWtqgcAa8K6NktdevWlcaNG9vSBZ1w6devn/HncMiQIVKnTh1b2qFSBBBAAIHgC5BsCf4YEAECCCCAAAK2C+jf1l966aUyb948KSgosL09GkDAiwJ2LiXyeZw8eVJeeeUViYuLM04qctOeTr4Y+YwAAgggYF6A04jMG1IDAggggECYC1QoX17iYmP9KsTExPi95sSFWrVqyahRo4yNcWfOnOlEk7SBgOsE9J9R/Wc1UNm2davk5OQYS4nee++9QLeaurZy5Ur56KOP5J577hG9nIg/l6Y4eRgBBBBwpQDJFlcOC0EhgEC4C/RX//iunpgo57Kywp3CE/2/smlTiYzy/79UvYRHl8T4eMf7U179cDl58mSpVq2aPPfcc5KSkuJ4DDSIgBmBS6pXlwd69JBslQQpa9GzR65s1kx8fxYD1bN750655pprpFKlSpKZmRnoVlPXRo4cKR07djT2b5k/f76RDDVVIQ8jgAACCLhKwP+/DF0VJsEggAAC4SWQm5cn6zZtkp1794ZXxz3a2wNt2khFtSTA3/KcKJWI6az2Szmjjlx2urz++uvSokULmTZtmnz66adON097CJgW+H9qNlae+jsxPz+/zHXpZMuR1FSJiowMeBKXPjns0v375XJ1RHr79u1l8eLFZW6zuAdPnz4tf/vb30Tv3XLffffJ//zP/xT3CNcRQAABBDwmoM+j5AMD3gO8B8L7PTAyolBuc8/fhX26di1UsyXCe0xC6M+kWkZUuGvXrsJ33nnH0THt0aOH0e6MGTMK1W/0HW2bf1u45+8TxqJ0Y1G/fn3jz81f//pX2//MVKhQoXDdunWF69evL4yNjbW9Pd4LpXsv4IUX7wHeA2beA2yQq/QoCCCAAAIIhJqAPk3lL3/5ixw7dkz+9Kc/+Z11E2r9pj8ImBXYr2a27Nmzx1jiY/fmtVlqqaie3VJdLZXSs1soCCCAAAKhI0CyJXTGkp4ggAACCCBgCKjfkMvEiRNFb8z7/PPPS1paGjIIIFAKAX0qUY0aNeRKtZzI7vLhhx9Kqlri9Pjjj4ua6WJ3c9SPAAIIIOCQAMkWh6BpBgEEEEAAAScEItWeFMOHD5cmTZrIhAkTZMOGDU40SxsIhJTA2rVrjf60atXK9n6dP7vl/vvvt709GkAAAQQQcEaAZIszzrSCAAIIIICA7QJ66dDs2bOlu9qMd/Xq1cYpRLY3SgMIhKDAvn37jF7VrVvXkd6dP7sl2EfFO9JhGkEAAQTCQIBkSxgMMl1EAAEEEAiugN37Pugjav/4xz/KwoULjZOHpk+fLk888QT7tAR32GndwwIHDx40oncq2aJnt+g/t3rvlttvv93DcoSOAAIIIOAT4OhnnwSfEUAAAQQQsFlA76VSp04dS1qJj4+Xm2++WTp16mTsK6GXD+nfxg8ePFg2qWPDKfYLVK5cWapUqWJZQ9nZ2XL8+HHL6qOisgvosdD7qFj157UkkXz00UfGHkt6o9wFCxaU5BHuQQABBBBwsQDJFhcPDqEhgAACCISGQEFBgdGRG2+8UfSHleXUqVOycuVKWbNmjcyaNUv0b8gp9gvojUz1Uq2KFSta2tiOHTtkyZIloo4Dls2bN0tOTo6l9VNZyQX07BZ1DHTJHzB554kTJ2Tp0qVyxx13iF4SuHv3bpM18jgCCCCAQDAFSLYEU5+2EUAAAQTCQiA3N1eGDRsmSUlJlvVX/xCuN/HUP5Tn5+dbVi8VlUxAJ1t0omXnzp1GoqtkTwW+KzExUTp37izPPfec8XHmzBkZM2aM/OMf/5DCwsLAD3PVcoGUlBRp3bq16Blp586ds7z+oiqcOXOmkWy59957ZdSoUUXdwmsIIIAAAh4RINnikYEiTAQQQAABbwu8//773u4A0Rcp8O2338qIESOKvFaWF6Ojo40f8Nu1aye9e/eWoUOHSpcuXYzlYQcOHChLlTxTRgGdbNFFLyXatWtXGWsp3WM6eaqXA/bs2dNItDGzqXR+3I0AAgi4SYANct00GsSCAAIIIIAAAmEtoGdBbdy40Ti2WydZ9NKw6667Tj799FO57bbbwtrG6c4fOnTIaNKpTXJ1Y3oGkx7zhIQENsp1esBpDwEEELBYgGSLxaBUhwACCCCAAAIIWCGglxENGTJE+vfvL2fPnjVmOui9PCjOCJw/s8WZFv/TSnJysuikW9++fZ1slrYQQAABBCwWINliMSjVIYAAAggggAACVgrojXgHDBgg5cuXN2a86P1iKPYLOH38s69HaWlpxka5ekZTo0aNfC/zGQEEEEDAYwIkWzw2YISLAAIIIIAAAuEnsH79eiPR0rRpU2Mfl/ATcL7HwUq26J7qpUS66L1bKAgggAAC3hQwnWxpdcUV0k2tIX7onnukTYsW3lQgagQQQAABBBBAwOUCkyZNMk4+0hvndu/e3eXRej88fYz68ePHjQ1yne6N3ihXt6337aEggAACCHhTwNRpRJc3aSKX1Kghny5fLhGq//f16CGZan3xjz/95E0NokYAgfAVGKqOVS1wT/c/WrSIo17dMxxEEmICceoo31iTS3Hi4+MdVykoKJAXXnhBFi5cKMOHD5cdO3YYH44HEkYN6tkt9erVc7zHeqw///xzeeCBB6Rd27ay88cf/cagN9U9mZHB/zP8CnEBAQQQCI6AqWTLpTVryuZt2+Tyyy6TDuqIwpiYGLlP/aYl7eTJ4PSGVhFAAAEEEEAAgQACERERcoX6ZVG5yMgAdxV/KVr9m0eXqurUGCeLnu3w3HPPiT5KfMqUKdJD/aIrPT3dyRDCqq3Dhw9Lq1atjP1ysrOzHe37ypUrjWTL66+8Ivt++CFg2wdVnCdMvg/0L1AnT58uh1NTA7bFRQQQQACBkgmYSracO3dOdMLlh9275fCxY9KkYUNJqFJFNm7eXLLWuQsBBBBAAAEEEHBY4LfXXiuxKllSoGYElLXExcVJh7vukjPqlCCniz4aeuTIkcbeLW+//bb84Q9/ED0TgmK9QOXKlUUnWXJycqyvvJgaGzRoYNzxLzXeWwP821on/r5W183+srN/nz6Sm59fTFRcRgABBBAoqYCpZMu3338vj6npjYkqwZKjjqirdcklMl9NeczLyytp+9yHAAIIuEOgm1oMuVP94LXNHeH8pmVLOXz0qBxSHxQEELBWYP7ixaYrTFAzWl5VCY/sIPwQroPXM1taqr8n9MyWm266yTi9xnSnqOC/BOrWrSt6KZFequN00fu16F9sjh471vhsd/v63/Ik7exWpn4EEAgnAVMb5GapTP/kGTNkv/qf0BE15XDBkiUkWsLp3UNfEQglgetUZ5xflu9XsLH6jWZiEPaE8BsQFxBAwHUC48aNM344vkcdUkCxXkAvOatdu7aRbLG+9sA11qpVS1q3bi0rVqxwJNESOBquIoAAAgiURcDUzBbdYL6abvjT/v1laZtnEEAAAQQQQAABBMoocOjQIdFHQnfs2FGqVasmaWlpZayJx4oSqKmWykdHR0tKSkpRl219rVevXqKTPYvUZukUBBBAAAFvCpia2eLNLhM1AggggAACCCAQGgLJyckSFRUlXbt2DY0OuagXegmRLnoZkZOlXLly0kftn6I3Q/7iiy+cbJq2EEAAAQQsFCDZYiEmVSGAAAIIIIAAAk4KLFFLuM+cOSPd1WmQFGsFfMkWp2e2dOjQwVi+9NFHH7E839ohpTYEEEDAUQGSLY5y0xgCCCCAAAIIIGCdgN5AdcOGDdK8eXNjhot1NVOT3q9FF6eTLX379jU25J01axaDgAACCCDgYQGSLR4ePEJHAAEEEEAAAQT27dsnkZGR4puJgYg1Aj5PJ5cR6X1iOnfuLGvWrJEDBw5Y0xFqQQABBBAIigDJlqCw0ygCCCCAAAIIIGCNwN69e42KGqhTzCjWCdSpU0ey1cmbeu8Up4req0UnzmbOnOlUk7SDAAIIIGCTAMkWm2CpFgEEEEAAAQQQcEJAz2zRJSkpyYnmwqYNPbNFz2opLCx0pM++jXFTU1Nl2bJljrRJIwgggAAC9gmQbLHPlpoRQAABBBBAAAHbBZjZYj2xPnZZ79ni5BIi38a4+oSpvLw86ztFjQgggAACjgqQbHGUm8YQQAABBBBAAAFrBQ4dOiS5ubnMbLGQtUaNGhITE+Po5rgPP/ywMYuGJUQWDiRVIYAAAkEUINkSRHyaRgABBBBAAAEEzAoUFBTI/v37hT1bzEr++rzTm+O2bt1abrjhBvnss88cTfD82mO+QgABBBCwWoBki9Wi1IcAAggggAACCDgsoPdt0Ru6RkVFOdxyaDbXsmVLo2O7d+92pIMDBw40ZrVMmDDBkfZoBAEEEEDAfgGSLfYb0wICCCCAAAIIIGCrAMc/W8vbqVMnY9+UdevWWVtxEbVdffXV0r59e2NWy86dO4u4g5cQQAABBLwoQLLFi6NGzAgggAACCCCAwHkCbJJ7HobJL2NjY+W6666TjRs3SmZmpsnain/8ueeeY1ZL8UzcgQACCHhOgLmmnhsyAkYAAQQQQAABBC4U8B3/fMXll8vW77678GIpv9NHHZ9IT3fsyONShlfm2yvGxUlshQoBn9d9v/o3vzE2x12xYkXAe624qGe16L1aPv30U2FWixWi1IEAAgi4R4Bki3vGgkgQQAABBBBAAIEyCegTiXS5p1s3adWwYZnqOP+ho6mpkpqWdv5Lnv66XLly0vyyy0R/Lq6Ur17duMWJZMuAAQOY1VLcgHAdAQQQ8KgAyRaPDhxhI4AAAggggAACPoHKlSsbX/6g9vxYvmqV7+UyfY6Kjpbvtm0TnXAJlRIRESHt1dKgaLWBsJ694q8UqGuDhgyRAwcOiN2b495+++3GXi2LFi1iVou/AeF1BBBAwMMCJFs8PHiEjgACCCCAAAIIaIGkpCQD4tMlS2Sh+uGd8t8C89SxysWV5s2bS42aNeX9998v7lZT16tWrSp/+ctfJCMjQ0aNGmWqLh5GAAEEEHCnAMkWd44LUSGAAAIIIIAAAiUWaNCggXGvb6PcEj/IjRcI6FOIdPnyyy+Nz3b9Z9iwYaITLi+88IIcO3bMrmaoFwEEEEAgiALFL1wNYnA0jQACCCCAAAIIIFC8gG9mi2+j3OKf4I6iBHSy5dy5c7Jhw4aiLlvy2uOPPy5dunSR5cuXy/z58y2pk0oQQAABBNwnQLLFfWNCRAgggAACCCCAQKkE9MyWkydPyqlTp0r1HDf/KhAfHy/6dKB169ZJdnb2rxcs/EonWl588UXZtWuXvPTSSxbWTFUIIIAAAm4TINnithEhHgQQQAABBBBAoJQCemYLs1pKiXbR7R06dJDIyEix6xSi8xMtDzzwgJw4ceKiCPgWAQQQQCCUBNizJZRGk74ggAACCCCAQNgJ6BkZCQkJwn4t5obet1+L1cmWmmrD3aefflp0gkXPaNGf00LoWG1z6jyNAAIIhK4AyZbQHVt6hgACCCDgIoEqVaoYPxBbFVJOTo4cOXLEquqox8MCbI5rfvDKlSsnemZLSkqKRKnjoevXr2+60vLly0vfvn2ND/31d999J4899hiJFtOyVIAAAgh4Q4BkizfGiSgRQAABBDwsoH+Q06eb6BkIVpaffvpJlqijftevXy9ff/21sbGnlfVTlzcE2BzX/Dg1a9ZMEhMTjQ+9ca2VZfv27TJhwgRZunSpFBYWWlk1dSGAAAIIuFiAZIuLB4fQEEAAAQRCQyA6OtpItOjkiFVHyurEzY033ihPPPGE8ZGVlSUTJ06Ud999V/Lz80MDjl6USICZLSViCnjT7t275Z133pFKlSoFvK80F3ViZdOmTfLFF1+QZCkNHPcigAACISJAsiVEBpJuIIAAAgi4X0D/hnv06NGWBao387zqqqukXbt20rt3bxk0aJDccsstMnjwYGNvCMsaoiJXCzCzxfzw6GV5evYJBQEEEEAAAasEOI3IKknqQQABBBBAwI+AXUsH9AyWzZs3y7Rp0+Suu+6S6dOnS4sWLWTBggXSo0cPP9HwcqgJ6ISb3nCVY59DbWTpDwIIIICAlwVItnh59IgdAQQQQMATAhEREbbHqZcRjRw5Uu677z7jSFn9tf4hnBLaAjq51rhxY2M/kNDuKb1DAAEEEEDAWwIkW7w1XkSLAAIIIOBBAbtmthRFoTfKfeqpp0QneMaPHy+VK1cu6jZeCxGBXr16GT1JTk4OkR7RDQQQQAABBEJDgGRLaIwjvUAAAQQQQOAXAX3E7BtvvGEcX2vlHjG/NMAXrhDQGy/r5WN64+V///vfroiJIBBAAAEEEEDgPwIkW3gnIIAAAjcpgofUh963tAYcCISGwP/+7/8aS0tuv/12efDBB0OjU/TiAoE777xTEhISZO7cuRe8zjcIIIAAAgggEHwBTiMK/hgQAQIIBFOghWr845/300hUn3eo76sVBjMi2vaiQLx+3wQIPPrna/Zv3XJBEPpUossvv1yGDBkiW7dulW+//faC62H7TaLquf4wU3yrsxweU1/IDRs2lKFDh0pGRoawhMinwmcEEEAAAQTcI0CyxT1jQSQIIBAMgZcvajRGfb9U/fSUedHrTn+bqhrso+KoGKSf5Jzur9fb66g64EuoFNWXQjWOx9SF2kVdtO81fTrNM888I7NmzZLJkydLt27dJDVVv7nCuOg/47vUeOjPZkqBqkNT1jFTSdmerVixokydOlX050cffZQxLRsjTyGAAAIIIGCrAMkWW3mpHAEEXC+wRkV490VRPqlmtuRc9JrT37ZXDe5TcRxglo3T9GVqr496qpr64Tvfz9N60a6+56Sf6za+rGe06JktY8aMkUmTJsn9998veXl5Nrbo8qr1n209wecH9XHCRKw6WdPTZB1lbF7vx6NPINJjumrVqjLWwmMIIIAAAgggYKcAyRY7dakbAQTcLzBJhXivSmhcrX5Q1nmNieo/u1wQtp5Zo39rvt8FsRBC8QJj9C3+E2MR5dVlnWw5q+9zvnz88cfSqlUreeihh+Tuu++WefPmOR+Em1rcq4L5mxovM6uqEtTzOtni8Jj269dP9D48n3/+uTG7xU2sxIIAAggggAACvwqwQe6vFnyFAALhKtBBdXy8+uitfnh6JVwR6LedAk4e/eyvH/oYaD2jxXdUsL/7eN29Ai1atJCXX35ZUlJS5KWXXnJvoESGAAIIIIAAAkKyhTcBAggggAACYSBw8uRJWb58ubRt21bq1AnCRiNhYGxnFytXriwTJkwwmnj22Wfl9OnTdjZH3QgggAACCCBgUoBki0lAHkcAAQQQQMArAvqI4IiICOnZU69/oXhFIDo6Wt58802pW7eujB49WrZs2eKV0IkTAQQQQACBsBUg2RK2Q0/HEUAAAQTCTWDFihVy4sQJ41SicOu7V/t71VVXyfz58+WWW26RxYsXy9///nevdoW4EUAAAQQQCCsBki1hNdx0FgEEEEAgGAJ6Nokbit6zZe3atdKgQQPj2GA3xEQMRQskJibKn/70J0lOTjZOHpo4caIMHDiw6Jt5FQEEEEAAAQRcJ8BpRK4bEgJCAAEEEAg1ATdskOsz3bt3r/FlUlKSbNu2zfcyn8soUKlSJSN5VcbHL3hMJ1huvfVW6dixozRp0sRY8rVjxw558cUXGasLpPjGywI1a9aUuLg4y7pQUFAgBw8elPz8fMvqpCIEEEDACgGSLVYoUgcCCCCAAAIeEfAlW/TsFpItZR80XwKtS5cuoj+sLGlpafLZZ5/JmjVrjJktekYSBYFQELj88stlwYIFRiLRyv7oE7qmTJnCnxcrUakLAQRMC5BsMU1IBQgggAACCHhHYN++fUawemYLpewCGRkZMmzYMKldu3bZK7noyezsbFm9erV8/fXX4kvmXHQL3yLgaYFjx44Z8R85ckQWLlxoSV9iY2Pl7rvvlpEjR8qTTz4p77zzjsybN8+SuqkEAQQQMCNAssWMHs8igAACCCDgMYHzZ7Z4LHTXhfv++++7LiYCQsDNAnrWlj5Nq1GjRjJ27FixatbWmDFjpH///vL73/9e3nrrLSMJOmnSJDdTEBsCCISBABvkhsEg00UEEEAAAQR8AidPnpTTp09bts+Ir14+I4AAAiUR0Kei6b2Orr322pLcXqJ7MjMzRW8irU/t+uGHH+T555+Xp59+ukTPchMCCCBglwDJFrtkqRcBBBBAAAGXCujZLSwjcungEBYCIS6gky26dOrUyfhs5X/00fYPPvggCRcrUakLAQTKLECypcx0PIgAAggggIA3BfS+LdWrV+f4Z28OH1Ej4GkBvYzo+PHjtiRbNIyevXd+wqV3796e9iJ4BBDwrgDJFu+OHZEjgAACCCBQJgHfvi3MbikTHw8hgIAJAb3588qVK6Vx48ZSr149EzX5f1QnXB566CHRG/IOGTJEatWq5f9mriCAAAI2CZBssQmWahFAAAEEEHCrgC/Zoo9/piCAAAJOC9i5lMjXF72k6NVXXzX2hxk9erTvZT4jgAACjglwGpFj1DSEAAIIIICAOwR+Of65jTr++ccAMRWoa/vVR16Ae7iEAAIInCdQWW1+G6eOYw5UdmzbJvn5+dK5c2ex81Sv5cuXy8cffyzdu3cXvZxozpw5gcLiGgIIIGCpAMkWSzmpDAEEEEAAAfcLpBxMMYKs96Sawj84InDAOtmyK/Atnrt6hYp4rvr41nOREzACtgnUVPs4PXLffZKbV/bsarmICGl22WUlivGnXbukbdu2EqsSM+fOnSvRM2W5afjw4dKhQwfjhKL58+dLTk5OWarhGQQQQKDUAiRbSk3GAwgggAACCHhbICE+wehA+jfpgRMO5dVtSwtFtnu7v/8Vfbx6Zc9/vcoLCIS1wMT33pMcNdukoEBPaStbiVDJlhtUAiUqMlL03iz+ir6WdPCgPPPss3L99deLnoFiV8nIyJB3331XBg8eLH379pW///3vdjVFvQgggMAFAiRbLuDgGwQQQAABBEJfwLcx7t7394rM9v8DUchKpIRsz+gYAmUWOJyaWuZnz39w/uLF53/r9+vLdu40ki36CGg7ky06gH/84x/y2GOPyRNPPCEzZ85kdovfUeECAghYKVDOysqoCwEEEEAAAQTcL+DbGNe3Ua77IyZCBBAINYFdahlRSkqKbUdAn++llynp2S01a9Y0Zrecf42vEUAAAbsESLbYJUu9CCCAAAIIuFTAN7PFt1GuS8MkLAQQCHEBfQR07dq1pWnTprb3VM9u0ScU6dktMTExtrdHAwgggADJFt4DCCCAAAIIhJmAntmif9N77NixMOs53UUAATcJrFu3zginVatWtod1/uyWe++91/b2aAABBBAg2cJ7AAEEEEAAgTAT0DNb9u/fH3ADyzAjobsIIBAEAd/surp16zrS+vmzW6Ki2LrSEXQaQSCMBUi2hPHg03UEEEAAgfATKF++vNSqVUvYryX8xp4eI+A2gYPqRCJdnEq26NktM2bMkEsuuURuvvlmt3EQDwIIhJgAyZYQG1C6gwACCCCAQCCB+vXriz6e1fcb5UD3cg0BBBCwU+DUqVOiP+rUqWNnMxfUPWfOHMlXR1zrY6ApCCCAgJ0CJFvs1KVuBBBAAAEEXCbg2xyXmS0uGxjCQSBMBfTsFqdmtmhivVeVPmr6d7/7ndSrVy9M1ek2Agg4IUCyxQll2kAAAQQQQMAlAhz77JKBIAwEEDAEdLJFH8ns5B4qM2fONGb4sVEub0IEELBTgGSLnbrUjQACCCCAgMsEfDNbWEbksoEhHATCVCAlJUXKlStnHAHtFMFXX30lOslzzz33OJrkcap/tIMAAu4QINnijnEgCgQQQACBEBbQe6S4pbRo0ULOnDnDsc9uGRDiQCDMBZzeJFdzFxQUyOzZs6V69epslBvm7z+6j4CdAiRb7NSlbgQQQAABBJRAYWGhKxwaN24sV111lSxbtsw1MbkChiAQQCBoAnpmiy5ObpKr22OjXK1AQQABOwVIttipS90IIIAAAgi4SKBXr15GNMnJyS6KilAQQCCcBYKVbGGj3HB+19F3BJwRINnijDOtIIAAAgggEFSByMhI6d69uxw6dEjWrVsX1FhoHAEEEPAJBGMZka/tWbNmGRvl9ujRw/cSnxFAAAHLBEi2WEZJRQgggAACCLhX4JZbbjFO/Jg3bx5LiNw7TESGQNgJnDp1Sk6fPu34MiINrTfKTU9Ply5duoSdOx1GAAH7BaLsb4IWEEAAAQQQCHGBqqp/1QL0Mfrna0HaJ7du3boyYsQIY2Nc/ZtcCgIIIOAmAb2USP895XTJz8+XpUuXSu/evaXtddfJ3j17/IZQqDbVTT1xgmS1XyEuIIDAxQIkWy4W4XsEEEAAgf8WmKFeqq8yBaf/+xKvKIEb1Eeg/6MWKrtj6p7azmvFxsbKlClTJD4+Xp588kljGZHzUdAiAggg4F/gyJEj0qxZM2NJj9Mbiq9Ws1t0smXoSy/JgV27/AepriR/8oksWbky4D1cRAABBHwCgf5p6LuHzwgggAAC4S6QoZIFk9WJOmvDHcJP/+9Rr9dURvl+rutFu33Vxwk/1218Wc9oufzyy2XChAnGKUQ2NkXVCCCAQJkEdDJYLydyOtGig22kTmnTZbXay2rH998bXxf1n2tbt5YfiknGFPUcryGAQPgKkGwJ37Gn5wgggEDJBXLUrcfVx8GSPxJWd76jexvgeOcYdU0nW845q9KnTx/p1q2brFixQsaPH+9s47SGAAIIlFBALyHybZRbwkcsu+3222+XjIwMeXPcOMnLy/Nbb8P69eWkuo+CAAIIlFSADXJLKsV9CCCAAAIIeEhAT8n/85//LHp6/qBBg4LyG2MPcREqAggESSA6Olpq1KgRlGRLYzWrRf9duWzZsoCJliDR0CwCCHhcgGSLxweQ8BFAAAEEELhYIC4uzlg2pH+IGTBggHHaxsX38D0CCCDgBoE6deoYe7UEY2ZLr169DIKFCxe6gYIYEEAgxARItoTYgNIdBBBAAAH3CUREqP1cHCpRUVEyevRoadSokYwdO1a+/vprh1qmGQQQQKD0Ar5TiPSJRE4W/XelTrbodteuZUMyJ+1pC4FwESDZEi4jTT8RQAABBIIm4NSmj3oj3Hnz5smdd94pX375pbz77rtB6zMNI4AAAiUR0DNbdHE62XLrrbdKtWrVZNasWVKgjnWmIIAAAlYLsEGu1aLUhwACCCCAwEUCds9sqVq1qjz44IPy1FNPGdPxp06damyI61SS56Lu8i0CCCBQYgHfzBanlxH17dtX8vPzJTk5ucSxciMCCCBQGgGSLaXR4l4EEEAAAQRMCFSqVEn0hoxWFH1U6s033yydOnWSJk2aGEmWnTt3yuDBg+W7776zognqsEBAJ8ISExMtqOk/VWRnZzs+A8Cy4KkIgSIEateubbzq5MyWpKQkuf7662Xp0qVy7NixIqLiJQQQQMC8AMkW84bUgAACCCCAQEAB3xT1jh07iv6wshw/flw+/fRTY88BvYQoJ0ef001xg0BsbKysXLlS9Gcry549e2TJkiWyfv16Y0+es2fPWlk9dSHgqICe2aKPXs7MzHSs3XvvvddIUH/44YeOtUlDCCAQfgIkW8JvzOkxAggggIDDArm5ufLyyy+L/m2qVUUnVfSmjnoDXJYLWaVqbT0VKlQwEi3bt283ki5W1K5nytx0003yxz/+0fjIysqSd955R9577z32nbACmDocF9DJFieXEJ2/Me6aNWsc7y8NIoBA+AiQbAmfsaanCCCAAAJBFJgzZ04QW6fpYAps2bJFxowZY1kIkZGRcsUVV0i7du3kvvvuM5aO3Xbbbcbn3bt3W9YOFSFgt4A+nr5GjRqyefNmu5v6pX7fxrj6tDbfrMNfLvIFAgggYKEApxFZiElVCCCAAAIIIICA3QJ6U0+dwNGnTemTp2bMmCGtWrWSBQsWyF133WV389SPgGUCer+WcuXKOTqzpX///pKXlycfffSRZf2gIgQQQKAoAZItRanwGgIIIIAAAggg4AGBc+fOyfDhw+X+++839r3461//Ks2aNfNA5ISIgIjvJCKnNsdt3769tGnTRvT+VqmpqQwBAgggYKsAyRZbeakcAQQQQAABBBCwX2Djxo3y3HPPiV6WMX78eMs35bW/B7QQjgItW7Y0uu3U8jf9Z0TPDJs0aVI4ctNnBBBwWIBki8PgNIcAAggggAACCNghsGnTJhk3bpxxvPiIESPsaII6EbBUQB9dr2dn6WSh3cU3q2Xu3Lkcn243NvUjgIAhYHqD3DYtWkh9tYt4fOXKsmPnTtnw739DiwACCHhPoNB7ITsaMT6OctMYAmUVmDZtmlx77bXSrVs342hoNmYuqyTP2S2QkJAgrVu3Nk7qys7Otrs5Y+YXs1psZ6YBBBA4T8BUsuWq5s0lMT5eFi5ZIhGq0j5du0rG6dOyY9eu85rgSwQQQMADAq+6K5swW2106aryf9zl4yobgglbgcqVKkmluDi//Y9X/0ZyuuhjwAcNGiSLFi2SoUOHyrZt2+T77793OgzaC2OB+CpVJE4dex6oFKj3advrrxd9staKFSsC3WrJNd+sFp18dGp/GEsCpxIEEPC0gKlkS42qVWXLjh3SQiVdOv/udxKj1gk3a9xY0k+d8jQKwSOAAAIIIIAAAoEEIiIipEnDhsZJKv7ui46JMS5VVb/Bd7KcPHlSnnnmGfnggw9kypQpxiwX/RoFgUACL6n3TJ7az0TP/ihrKaf/XDRqJPrPR3GlUq1axi1ffvllcbeavs5eLaYJqQABBMogYCrZcjYrS+qpI9u2qoTL3gMHpHmTJlJF/ZbnXywlKsNQ8AgCCCCAAAIIeEmgnTrVJFbNbNGzSYoqFStWlA7qKObMM2eKumzra/9W/xZ7/fXXZeTIkTJhwgR5+OGHTf0QbWuwVO4KgZzcXJn7ySemfmmqkyztr7tOIqOK+RFD/Zl5Tb03f/jhBzl8+LCt/e/du7dxAtGsWbOY1WKrNJUjgMDFAsX8TXjx7Rd+/+3WrfLIffdJgpomq9daVq9WzVhSZCYjfmELfIcAAgg4JHCP+i3cD+oHpi0OtVdMM9ddfbUcVP8APXjkSDF3OnS5r/LZrHy2O9QezSDgAYHFxSx/SExMlGGqH/qH2GAU/cNlq1atpE+fPnLLLbfI4sWLgxEGbXpEQP/7/VRmpqlki+7qwqVLi+3x1er/cXqZ3cyZM4u918wNl156qbzyyivGMc9vvfWWmap4FgEEECi1gKnTiLJzcmTq++/Lrj175MChQ7JI/eVKoqXUY8ADCCDgBoGrVRC13RDIf2JoUK+eJKh1764p16hILnVNNASCAAIlFNDHQBcUFEjPnj1L+AS3IWC/QOfOnY1G7N6vZdSoUVJZHeLx2muvSXp6uv0dowUEEEDgPAFTM1t0Pfp//YVI9gAAQABJREFU4PtSUs6rki8RQAABBBBAAAEE3CBwRM2OW7t2rXTs2FGqV68ux48fd0NYxBDmAvrI51Nqj8dvvvnGNgm9UXSHDh1k/vz5smzZMtvaoWIEEEDAn4CpmS3+KuV1BBBAAAEEEEAAAXcIJCcnG6e+6OOgKQgEW6BmzZpyxRVXyFdffWXbjHidaHniiSdky5Ytxt5Fwe4z7SOAQHgKkGwJz3Gn1wgggAACCCAQJgJL1TLv06dPS/fu3cOkx3TTzQJ6Vosudp1CdH6iRW8Mrd/7FAQQQCAYAiRbgqFOmwgggAACCCCAgEMCWer0yI0bN0rTpk0lqrhTYhyKiWbCV0AnW/Q2BKtWrbIUoW7dujJ27NhfZrToRIteqkRBAAEEgiVges+WYAVOuwgggAACCCCAAAIlE9i3b5+xlEj/QLp3796SPRRmd9WqVUv0cd1WFX0k+IEDByRHHShB+Y9AdHS0tG/fXvaowzWqVq1qfJi1iY2Nlfvvv9/YBDoyMlLWr18vTz31FIkWs7A8jwACpgVItpgmpAIEEEAAAQQQQMDdAr4ES4MGDUi2FDFUjRs3No7GjohQx9xbWI4dOyZ/+9vf5MMPP5Ts7GwLa/ZmVVdeeaXExcWJz9vKXujNdvXpW6tXr7ayWupCAAEEyixAsqXMdDyIAAIIIIAAAgh4Q0DPbNFFJ1so/y2gkyJ6aUtaWproDYWtKOXLlxe9KfGrr74qjz/+uEyaNEn++c9/WlG1Z+vYvn27jBkzxvIZRBs2bJA1a9Z41oXAEUAgNAVItoTmuNIrBBBAAAEEEEDgFwHfzJakpKRfXuOLXwX0JqqbNm2S1q1by+TJk+XcuXO/XjTx1bhx44wlLjrZMmzYMNHLuN544w0TNXr7UT27Z+rUqd7uBNEjgAACJRRgg9wSQnEbAggggAACCCDgVYFDhw5Jbm4uM1sCDOCKFStEz0a5/vrrA9xVuks6afPee+/JzTffLJs3b5bHHntMBg8eXLpKuBsBBBBAwJMCJFs8OWwEjQACCCCAAAIIlFxAL5HZv3+/MLPFv5nvKGLf0cT+7yz9FT1zpn///iRcSk/HEwgggIBnBUi2eHboCBwBBBBAAAEEECi5gN63pU6dOhz/7Ids165dkpKSInYkW3STFydcdPKFggACCCAQugIkW0J3bOkZAggggAACCCDwi8D5xz//8iJfXCCwcuVKqV27tjRt2vSC1636xpdw0UmdQYMGsazLKljqQQABBFwoQLLFhYNCSAgggAACCCCAgNUCvk1yOZHIv6xvKVHnzp3932Tyik64vPTSS8b+MHqz3HLl+Oe4SVIeRwABBFwpwGlErhwWgkIAAQQQQAABBKwV8B3/3KpFC/lRHcHrrxQWFsrR48eNo5D93ePF1+OrVJGKsbEBQ9+7e7dkZWUZS4mmTZsW8F4zF9evXy8ffPCBPPDAA/LQQw/JjBkzzFTHswgggAACLhQg2eLCQSEkBBBAAAEEEEDAagF9IpEu3e68U66oVy9g9WknTkjayZMB7/HSRT17pHGDBhIREVFs2Lt37pQ2bdpIFZWcOXXqVLH3l/UGPavlpptukmeffVbmzJkjZ8+eLWtVPIcAAggg4EIBki0uHBRCQgABBBBAAAEErBbQyQNdvlezWpZ98YXf6qOiouTb77+X1LQ0v/d48cJvr71WKsTEiJ6546/oa7XVRrlXqtk/N9xwg3zyySf+bjX9uk6uTJkyRYYNGyb9+vWTqVOnmq6TChBAAAEE3CNAssU9Y0EkCCCAAAIIIICAbQK+vVoWL1smn3z+uW3tuLXixcuXlyi0unXryqAXXzSWEtmZbNHBzJ49W5588kl59NFH5e9//zuzW0o0QtyEAAIIeEOAHbm8MU5EiQACCCCAAAIImBJISkoynvdtlGuqshB+WJ8UpI+B7tixo+2b1+bm5hqzWxISEozZLSHMStcQQACBsBMg2RJ2Q06HEUAAAQQQQCAcBXwzW3wb5YajQUn7rE8lqlq1qrRQy4nsLnp2y5EjR4zZLXFxcXY3R/0IIIAAAg4JkGxxCJpmEEAAAQQQQACBYAromS1pah+WzMzMYIbhibbXrVtnxNmyZUvb42V2i+3ENIAAAggERYBkS1DYaRQBBBBAAAEEEHBWQM9sYQlRycwPHDhg3Kj3b3Gi+Ga3PPLII1KhQgUnmqQNBBBAAAGbBUi22AxM9QgggAACCCCAQLAFEhMTjaOMWUJUspE4ePCgcWpRnTp1SvaAybv07Jb33ntP9DjdcccdJmvjcQQQQAABNwhwGpEbRoEYEEAAAQRCXqBatWqiP6wqOTk5zFKwCjMM6mFz3NINsv7zlZqaKk7NbNHRzZs3TwYNGiT33XefzJ07t3QBczcCCCCAgOsESLa4bkgICAEEEEAg1AQiIyPliy++kEqVKlnaNf3b96VLl4reX2Ljxo1y6tQpS+unstARYHPc0o+l/vPVsGHD0j9YxifS09Nl8eLF0q1bN2natKn8+OOPZayJxxBAAAEE3CBAssUNo0AMCCCAAAIhLaCTLTrRoo+T/fzzzy3pqz4q9qabbpL+/fsbH3l5ecYRspMmTRL9NQWB8wWY2XK+Rsm+1kdAX3311aJPCDp79mzJHjJ518yZM41kS9++feUvf/mLydp4HAEEEEAgmAIkW4KpT9sIIIAAAmEhEBERYfTzhx9+kHHjxlnW59dff12aNWsmbdu2Ff3D2bPPPis333yzvPjii7J9+3bL2qEi7wsws6X0Y6hntuiilxI5NctEz1DbvXu3dO/eXd58803JysoqfeA8gQACCCDgCgE2yHXFMBAEAggggEAoCxQWFtrSPV3vjh07ZMaMGdK1a1djZotefqD3frj33nttaZNKvSnQokULOXbsGMc+l2L49MwWXZzct0W3p2e3VKlShY1yNQYFAQQQ8LAAyRYPDx6hI4AAAggg4BPQp5mMHTtW7rnnHjly5IgMGzZMWrdu7bvM5zAW0O8DPbNlyZIlYaxQ+q77ki1OnUjki1AnS/UGvXq2GgUBBBBAwLsCJFu8O3ZEjgACCCCAwH8JbNmyRZ588kkpKCiQd955R+Lj4//rHl4IL4FevXoZHU5OTg6vjpvs7fnLiExWVarH9Ua5n332mbRp08bYKLdUD3MzAggggIBrBEi2uGYoCAQBBBBAAAFrBPR+LSNGjBD9G3m97wMlfAXKly8vd955p+zcuVN0Io5ScoFDhw6JXqrn9MwWHeGsWbOMQHv06FHygLkTAQQQQMBVAiRbXDUcBIMAAkER6KZa/b36+L/qo15QIqBRBCwX+OCDD+STTz4xTiz6wx/+YHn9VOgNAb2Xj97/g1ktpR+v7OxsSU1NdXzPFh2p3ihX77HTpUuX0gfOEwgggAACrhDgNCJXDANBIIBA0ATaqJb/8Z+TYqSy+rxZfV/Vns1Mg9ZHGrZfoIZqomaAZqJ/vvbzWy3AnZZeeuWVV+Sqq64yTifSsxr0D3AU6wTiVRKjkjoW2F/xLeHynUbl7z67Xm/SpIm89tprcvLkSZk7d65dzYR0vXopUcOGDR3vo55Ro5cSPfzww3JT586yI8DpYgXq3qMqKaSXDlIQQAABBNwjQLLFPWNBJAggEAyB/3NRo/qH4lXqJ+KzF73u5Ld/PC/Zc49q+FGHf0Ivqq+N1IvtVRzpRV3kNWmnDCIDOBQqu2Pqep0A99hw6cyZM/L000/LnDlzZOLEidKtWzdj81wbmvJUlQMfe0xiK1QQvamwmXJZgwYSUc7/JOHomBij+sQg7JujZ7NMnTpV9DKixx9/XE6cOGGmq2H7rN5s+uqrrzYc9UwXJ8tXX31lJFteHDhQ9qpj4wOVY8ePS8apU4FuKfZanUsvlYoVK8oJtWcMBQEEEEDAvADJFvOG1IAAAl4WWK6Cv+u8Dug8Rx/1n/zzXnP6y5OqwVY/N/qp+rzyvOSL07H42huqkgXLVBxrfC/w+QKBnuq7S5WRv/eNTsQ8pD7SLnjKkW/00dAvvfSSsVnu5MmTjRNO9Ekn4VzOnD0ri7/8Ug6qH6TNlLbqh/CKamaLv6O9K1aqJB3uuktOq6SXk0XPpBkzZowkJSXJyJEjZf369U42H1Jt6dlJWVlZ4nSiRSPqmUm6rFqzRrZ8+63xdVH/iYyMlG/UzDWzSZIKKjGXpmZBURBAAAEErBEg2WKNI7UggIBXBd5VgfdSSYTfqR+UdU7jDfUfcz9/WSuhZ9gEc5aNrzdZ6osM9ZHqe4HPFwhM09/pN1DRJaK8el0nW84Vfd3uV/XeLS1btpRHHnlE9B4eH330kd1Nurp+vdzi7Llzcjoz01Scy9TMg0AlMTFRhqsbzM6gCdRGUdceffRRufHGG2XhwoUyffr0om7htRIK1K1bV3ynEpXwEctuu+OOO+SsSgyOUaeKOZHsMfvnwbKOUxECCCAQIgL+576GSAfpBgIIIFCswO3qjvHqo7f6YXlksXdzAwKlFvA386HUFZl4YMqUKcYP/b5jgE1UxaMuFtDHBQ8aNEj27NkjQ4YMcXGk7g+tnFoiVrt27aAkW3SSp0WLFvLFF184kmhx/2gQIQIIIOA9AZIt3hszIkYAAQQQQKDUAulqHwb9g9s111wj9erVK/XzPOB+gYSEBGO5WF5enjz77LPGrAj3R+3eCGvWrClRUVGSkpLieJD33KM37BJjdpLjjdMgAggggIAlAiRbLGGkEgQQQAABBNwvoI//1ft59OypN5mhhJJABbXh79ixY6VWrVoyfPhw0Xv1UMwJ6Nkluji9jEjvwdK7d285evSorFy50lwneBoBBBBAIGgCJFuCRk/DCCCAAALhIhCso38v9l21apWkqiNiu3fvfvElvvewwG9+8xtZtGiRdOzYUebPny8zZ870cG/cE3qdOv85PszpmS2d1VHPl1xyicyePVvy8/3tuu0eJyJBAAEEEChagGRL0S68igACCCCAgGUCbtizRXdG/+C2bt06YxlRJXVSDsXbApeqo3r1viwffvihsbeIPoHoxRdf9HanXBS9b2aL08mWvn37it7EWR/ZTkEAAQQQ8K4ApxF5d+yIHAEEEEAAgVIL7Nu3z3imQYMGsnXr1lI/zwOlF9DHBzdv3rz0DxbxhD7h6NZbbzVmsdSvX9+447vvvjOSLLt27SriCV4qq4Av2eLkMiK9IW+HDh2M5UOHDh0qa+g8hwACCCDgAgGSLS4YBEJAAAEEEEDAKYG9e/caTSUlJZFssRldz07Q5bbbbjM+rGxO/yA+d+5cWbNmjbGEiOUmVur+py69jCgrK0uOHz9ufeV+auzTp4/oU5BYCuYHiJcRQAABDwmQbPHQYBEqAggggAACZgV8yRY9s4Vir0BGRoa88sorxqa1VrWUnZ0tq1evJlFmFWiAevTMFidnteiNcXWyRW+Mu2LFigCRcQkBBBBAwAsCJFu8MErEiAACCCCAgEUCvmVEemYLxX4BvckpxXsCenaJPtlJ73HkVNEb4+rjpidMmMDGuE6h0w4CCCBgowAb5NqIS9UIIIAAAgi4TSA9PV30jAtmtrhtZIjHTQI66REdHS1Obo7bv39/I8lCgs5N7wRiQQABBMouQLKl7HY8iQACCCCAgCcF9OwWZrZ4cugI2iEBpzfHvfbaa6Vdu3bG/juHDx92qJc0gwACCCBgpwDJFjt1qRsBBBBAAAEXCuh9W6pVqyYc/+zCwSEkVwi0bNnSiGPnzp2OxDNw4EBjVsvEiRMdaY9GEEAAAQTsFyDZYr8xLSCAAAIIIOAqAd++LSwlctWwEIyLBPT+Kbm5uY7s2XLddddJ27ZtjVkte/bscZECoSCAAAIImBEg2WJGj2cRQAABBBDwoIDvRCKWEnlw8AjZdoGKFSuKXtazYcMGOXfunO3tDRgwgFkttivTAAIIIOC8AKcROW9OiwgggAACCARVwDezpWWLFrL5m2/8xlJYWChHU1MlLz/f7z1cQMArAonx8VIxLi5guPo936J1a4mKinLk+GXfrJb58+cLs1oCDg0XEUAAAc8JkGzx3JARMAIIIIAAAuYEDh48aFTQ5eabpUHVqgErSz91So6fOBHwHq9dvKRGDflmyxbZ/7OD1+IPt3hffOYZiVRHMefl5ZW56xEREdJIHXceUYIa4i65xLjryy+/LMHd5m5hVos5P55GAAEE3CxAssXNo0NsCCCAAAII2CCQmJho1Lptxw75ZOlSvy2Ui4yU79U9R9TsllAqMTExcur06VDqUkj35eyZM/LJF19IalqaqX5ef801UkGNfXFlyPDhopfa+WaAFXd/Wa93797d2Ktl7ty5zGopKyLPIYAAAi4WINni4sEhNAQQQAABBOwQ8G2M+8XKlbIwQLLFjrZdUaf64Z3iHYGCggI5q/ZOyTQ5bkvV+724cuWVV0r16tVl4cKFxd1q6nrNmjXltddekxNq1tjo0aNN1cXDCCCAAALuFCDZ4s5xISoEEEAAAQRsE/BtjOvbKNe2hqgYAY8JdOrUyYh4xYoVtkY+YsQIiVd7yDyjlkidPHnS1raoHAEEEEAgOAKcRhQcd1pFAAEEEEAgaAK+mS12L5MIWgdpGIEyCugjn8+ePSv/+te/ylhD8Y89//zzcuONN8qnn34qixcvLv4B7kAAAQQQ8KQAyRZPDhtBI4AAAgggUHYBPbNFH2l77NixslfCkwiEmIDey6hly5ayZs0ayc3NtaV3AwcOlKefflq+//57YxmRLY1QKQIIIICAKwRItrhiGAgCAQQQQAAB5wT0zBaWEDnnTUveEOjQoYOUU6ce2bWESCda9LIhnWjp16+fZGRkeAOGKBFAAAEEyiTAni1lYuMhBBBAAAEEvClQoUIFuUQdbfvtt996swNEjYBNAnoJkS5WJ1vq1asnOtHSrVs3Ei02jR3VIoAAAm4UINnixlEhJgQQQAABBGwSqF+/vkRERDCzxSZfqvWmQKQ65vyGG26QlJQUqVq1qvFhtifly5eXvn37So8ePUTXv379emMJETNazMryPAIIIOANAZIt3hgnokQAAQQQQMASAd9JRGyOawknlYSIQNOmTY3TgfQJQVYf+/z111/L+PHjjb1gQoSLbiCAAAIIlECAZEsJkLgFAQQQQACBUBHwnUTEni2hMqL0wwqBnTt3ysiRI6Vy5cpWVPdLHZs2bZK1a9f+8j1fIIAAAgiEjwDJlvAZa3qKAAIIIICA+JItzGzhzYDArwJ5eXkyffr0X1/gKwQQQAABBEwKcBqRSUAeRwABBBBAoDgBvUeKW4o+2jYzM5Njn90yIMSBAAIIIIAAAiEpQLIlJIeVTiGAAAIIuEmgsLDQFeE0a9ZMLr/8clmyZIkr4iEIBBBAAAEEEEAgVAVItoTqyNIvBBBAAAEELhLo1auX8UpycvJFV/gWAQQQQAABBBBAwEoBki1WalIXAggggAACLhXQR8927drVONr2X//6l0ujJCwEEEAAAQQQQCA0BEi2hMY40gsEEEAAAQQCCnTp0kWqV68uc+fOFbcsawoYMBcRQAABBBBAAAEPC3AakYcHj9ARQAABBNwhEF+lilSpVMlvMNHR0ca1YG2Uq08gGj58uJw6dUpmzZrlN04uIIAAAggggAACCFgjQLLFGkdqQQABBBBwUOCZ3/9eEuPjJTsnx8FW/TfVqH59iSjnf7JouZ+vJaiYnS5xcXEydepUqVixojz22GNy9OhRp0OgPQQQQAABBBBAIOwESLaE3ZDTYQQQQMD7AhmnT8sqte/I7j17XNGZNuo45YTKlf0uz4mKipLO3btL5pkzjsf7xhtvyGWXXSZjx46VlStXOt4+DSKAAAIIIIAAAuEoQLIlHEedPiOAAAIeFygoKJCsrCw5c/asK3ry1fr1AeOIiYmRMeqO3NzcgPdZffHBBx8UvVfL0qVLZcqUKVZXT30IIIAAAggggAACfgT8z3n28wAvI4AAAggggID7Ba688kp55ZVXjNOHBg8e7P6AiRABBBBAAAEEEAghAZItITSYdAUBBBBAAAEtUElt1jthwgTRe8UMGDDA2BgXGQQQQAABBBBAAAHnBEi2OGdNSwgggAACCNguoJcsvfXWW1Jfbdqr92vZvHmz7W3SAAIIIIAAAggggMCFAiRbLvTgOwQQQAABBDwr0KpVK1m4cKHccsst8vnnn8v06dM92xcCRwABBBBAAAEEvCzABrleHj1iRwABBBDwhEBERIStcV566aXSr18/eeSRR4wTkd5++202xLVVnMoRQAABBBBAAIHAAiRbAvtwFQEEEEAAAdMChYWFRh3x8fFyxRVXmK5PV5CQkCA333yzdOrUyVgypF/btm2bvPjii7Jjxw79LcUFAjoRVrVqVcsiyc7Olp9++snvMeOWNURFCCCAAAIIIGBKgGSLKT4eRgABBBBAoHgBfVS1Tri0b9/e+Cj+iZLfcejQIUlOTpa1a9fKokWLJD8/v+QPc6etArGxsfLFF19I+fLlLW1Hj7k+znu9OnJ848aNkp6ebmn9VIYAAggggAAC5gVItpg3pAYEEEAAAQQCCuTl5ckLL7wgSUlJAe8rzcWcnBxZs2aNbN26tTSPca+DAhUqVDASLXqMdNLFipKYmGjsyfPwww+L/sjNzZXJkycbHyTarBCmDgQQQAABBKwRINlijSO1IIAAAgggEFBgwYIFAa9zMXQF9PIufRS3VWX48OFy2WWXSbt27eTBBx80jvfWmyKzhMwqYepBAAEEEEDAvACnEZk3pAYEEEAAAQQQQMAxAb0kbefOnfL+++/L3XffLdOmTZNmzZrJxx9/LD179nQsDhpCAAEEEEAAAf8CJFv823AFAQQQQAABBBBwtYBeTvbWW29Jnz59JDU1VUaMGGHZJsyu7jjBIYAAAggg4HIBki0uHyDCQwABBBBAAAEEihPYvHmzPPPMM1KuXDljyVKlSpWKe4TrCCCAAAIIIGCjAMkWG3GpGgEEEEAAAQQQcEpAJ1zeeOMNYyPmUaNGOdUs7SCAAAIIIIBAEQKmNsj97TXXSFLdupJ55oxRtf4typ79+2X9118X0RQvIYAAAi4WyFWxuejEXH2qSIHal8E1xWU+ecpH71tBQQCBCwWmT58ubdu2lTvuuEM2bNgg//znPy+8ge8QQAABBBBAwBEBU8mW8jExsuyrryQ1Lc0Itmb16nJFkyaOBE4jCCCAgKUCr7vrB/fkTz6xtHumK3vZXT6z5s833SUqQMCsQGJCglSuWNFvNfHx8ca1iIgIv/fYcWHw4MGiT78aMmSIcTS4nvFCQQABBBBAAAFnBUwlW3yhtmnRQm7p0EGio6IkLjZW2rZp47vEZwQQQAABBBBAIOQEdAKlQb16EiiREq1+KaWLTso4WTIyMuTpp5+WWbNmyZQpU6Rbt27G5rlOxkBbCCCAAAIIhLuAJcmW77Zvlx27dkmNatWkWaNGsnrjxnB3pf8IIIAAAgggEOIC17ZuLZXVEmp/S9oqqmsd7rpLTmdmOi6xdetWefXVV42TiiZOnCj333+/6OWJFAQQQAABBBBwRsBUsiU6Oloua9BAcvPyjGirV61q/I/87LlzzkRPKwgggIBVAvepaf7b1FIZl8y2v17tiZVy8KAcOHzYqh6aq+ch5fON8vneXDVWPX2D2pNi1969cvjoUauqpB4ESi2wct26gM8kJiaK3qY2N1dveuR8mTdvnrRWCaEHHnhAbr/9dvnEbcsTnSehRQQQQAABBBwTMHUa0Sq18drR1FQ5cfKk8fHj7t2yav16x4KnIQQQQMAygatUTZdaVpvpiurVri1VKlc2XY9lFbRSNdW0rDbTFdWvU8eYUWC6IipAIMQFJk2aZPwirFevXiHeU7qHAAIIIICAuwRMzWzJysqSn9TpQxQEEEAAAQQQQAAB9wkcO3ZMVq9eLe3bt5eaNWuK/p6CAAIIIIAAAvYLmJrZYn94tIAAAggggAACCCBgRiA5OVkiIyOle/fuZqrhWQQQQAABBBAohQDJllJgcSsCCCCAAAIIIOA1gWXLlok+oUifSkRBAAEEEEAAAWcESLY440wrCCCAAAIIIIBAUARycnJk06ZNctlll0lUlKkV5EGJn0YRQAABBBDwogDJFi+OGjEjgAACCCCAAAKlENirTu/SS4nq169fiqe4FQEEEEAAAQTKKkCypaxyPIcAAggggAACCHhEYN++fUakSUlJHomYMBFAAAEEEPC2AMkWb48f0SOAAAIIIIAAAsUK6JktujRo0MD4zH8QQAABBBBAwF4Bki32+lI7AggggAACCCAQdAFmtgR9CAgAAQQQQCDMBEi2hNmA010EEEAAAQQQCD+Bw4cPi94ol5kt4Tf29BgBBBBAIDgCJFuC406rCCCAAAIIIICAYwIFBQVy4MABki2OidMQAggggEC4C5BsCfd3AP1HAAEEEEAAgbAQ0Pu21KpVi+Ofw2K06SQCCCCAQLAFSLYEewRoHwEEEEAAAQQQcEBA79vC8c8OQNMEAggggAACSoBkC28DBBBAAAEEEEAgDAR8JxJx/HMYDDZdRAABBBAIukBU0CMgAAQQQAABBBBAAAHbBXzJlqtbt5afdu70215hYaEcOnJE8vLz/d7DBQQQQAABBBAILECyJbAPVxFAAAEEEEAAgZAQOKISKLrcddtt0kzt3RKopGdkyEn14YZySfXqEl+lihxNTXVDOMSAAAIIIIBAiQRItpSIiZsQQAABBBBAAAFvC8THxxsd+G7rVlny+ed+O6PXmG/evl2Onzjh9x4nL8RER8vpM2ecbJK2EEAAAQQQMC1AssU0IRUggAACCCCAAALuF2jQoMH/Z+8+wKOo1sePv6G3EHoXURTlB0gTKYI0RRQQBRWuXrErSLHxSLt6r/6v/SICCqgICtJUQFABFaVJU5BeREC6dEJNCCT8zzuyCMguSXZmdnb2e54nJtmZOec9nxOX3XfPnGMF+c3338tU8xUtJSk5OVpCJU4EEEAAAQTOCLBA7hkKfkAAAQQQQAABBPwrEEi26K5EFAQQQAABBBBwVoBki7O+1I4AAggggAACCHhCILALEckWTwwHQSCAAAII+FyAZIvPB5juIYAAAggggAACKqAzW/bu3StHWf+EPwgEEEAAAQQcFyDZ4jgxDSCAAAIIIIAAApEX0Jktge2fIx8NESCAAAIIIOBvAZIt/h5feocAAggggAACCEihQoUkPj6eZAt/CwgggAACCLgkwG5ELkHTDAIIIIBAbAuUKFFCihUrZhtCSkqKrFu3TtLS0myrk4r8K8B6Lf4dW3qGAAIIIOBNAZIt3hwXokIAAQQQ8JFA1qxZ5bvvvpPcuXPb2itdf2P69Okyf/58WbhwobUeh60NUJlvBAI7EXEbkW+GlI4ggAACCHhcgGSLxweI8BBAAAEEol8gW7ZsVqLl119/la+++sqWDhUoUEBuvPFGad++vfWVmpoqw4YNk7fffluOHz9uSxtU4h8BZrb4ZyzpCQIIIIBAdAiQbImOcSJKBBBAAIEoFjh16pQV/fr162Xw4MG29eTVV1+1dpipXbu23HPPPfLoo49KkyZN5LnnnpNly5bZ1g4VRb9AYGYL2z5H/1jSAwQQQACB6BBggdzoGCeiRAABBBBA4IICelvIuHHjpE2bNtKvXz8pW7asfPrpp9KhQ4cLns+DsSlwzTXXyK5du9j2OTaHn14jgAACCERAgGRLBNBpEgEEEEAgtgTi4uIc77DeRvTuu+/K7bffLlu3bpU+ffpIrVq1HG+XBrwvULNmTSsJN23aNO8HS4QIIIAAAgj4RIBki08Gkm4ggAACCHhXIHAbkRsR6rowTzzxhJw4ccJav6VgwYJuNEsbHhZo27atFd348eM9HCWhIYAAAggg4C8Bki3+Gk96gwACCCCAgLUl9IsvvijFixeXvn37ihsza2D3pkCuXLnk1ltvlbVr18rq1au9GSRRIYAAAggg4EMBki0+HFS6hAACGRS415z/iPkaYL4uz+C1nI6ARwU+++wz+eKLL+SGG26Qxx9/3KNREpbTArqWT758+YRZLU5LUz8CCCCAAALnCrAb0bke/IYAArEmUNt0eMjp9TTymO+/mN8L/LlzTKxR0N8wBMqYa4uHuD776WMuf8Tx/PPPS5UqVeTpp5+W5cuXy7x580IEyaEMC5Q1VxQNcVX86WMuj3sgoooVK0rv3r1lz549MnHixMDDfEcAAQQQQAABFwRItriATBMIIOBhgafOiy2r+X2hSboknfe4m78+cFayp51puJPzi6uG7F6Hs+K5x5z5WITjefiseB4xsfwzZPTuHKxmmtG/nWDllIlztzlYKtgJzjyelJRkrd8yYcIEGTBggLV47rZt25xpLJpq/caMR4IJODmMoPV/Ax33UImUNHPSHnNO6TDayeSlBQoUsLYZz5Ytm3Tp0kUSExMzWROXIYAAAggggEBmBEi2ZEaNaxBAwD8C35qutDyrO/o+vpn5T+pZj7n94zHT4DWnG51gvn99VnLB7Vi0PY0nUD43P0z2QDxVTwc0wsQyNhBcBL+3Mm3r7Ja0IDFkNXE+Zo7tDXLcwYc3bNgg3bt3l0GDBllvvu+88045fvy4gy1GQdU7TIz/MWOyIsxYdd1ZndkS7H+JXObAg+a4JlxcLFmyZLEWRy5Tpoz8+9//lsWLF7vYOk0hgAACCCCAgAqQbOHvAAEEYltguOl+a/OGqIn5BFrfKP/X/HzQQyQnTCz65ZWSYgLRL68Ur8QzJjRIXE7z96XJlnBmUoRuIuTR7777Tt577z3p2LGjNbtl3LhxIc/3/UH9f11nrx0Js6cfX+R63QhKky0uj3unTp2kfv361joto0aNukiQHEYAAQQQQAABJwRCTX51oj3qRAABBLwncLsJaaD5amcSLf/zXnhEFP0Cbm79HEzr/ffft2a0BLYBDnYej0e3wHXXXSfdunWT3377Tf7zn/9Ed2eIHgEEEEAAgSgWINkSxYNH6AgggAACCKRX4NChQzJ9+nSpUaOGlCtXLr2XcV4UCRQuXNi6fSglJUW6du0qumYPBQEEEEAAAQQiI0CyJTLutIoAAggggIDrAoHtf3U7YIq/BPLkySP9+vWTYsWKWeu0rF+/3l8dpDcIIIAAAghEmQDJligbMMJFAAEEEIg+gbg4s2aLB8rcuXNl9+7d0rp1aw9EQwh2CdSrV0+mTJki+v2zzz4T3X2KggACCCCAAAKRFWCB3Mj60zoCCCCAQAwIeGHNFmVOTU2V+fPnW8mW+Ph4OXz4cAzo+7eLejvYQw89JP/4xz8kOTlZ/vvf/8qIESP822F6hgACCCCAQBQJkGyJosEiVAQQQAABBMIV2Lx5s1WFvlFfsSLcvY/DjSY2rte1VKpWDexXHl6fCxUqJM2aNZOGDRtatwxpbYsWLZIePXpIYGzDa4GrEUAAAQQQQMAOAZItdihSBwIIIIAAAlEiEHhDfumll5JscXjM0tJ0j2mRpk2bWl92Nrdx40ZrwWO9NUy39g60ZWcb1IUAAggggAACmRcg2ZJ5O65EAAEEEEAg6gQ2bdpkxcyORM4P3cGDB+XZZ5+VkiVL2tbY8ePHZc6cOcICuLaRUhECCCCAAAKOCJBscYSVShFAAAEEEPCmQGBmC8kWd8Zn0qRJ7jREKwgggAACCCDgKQF2I/LUcBAMAggggAACzgokJiaKfultRBQEEEAAAQQQQAABZwRItjjjSq0IIIAAAgh4VkBntzCzxbPDQ2AIIIAAAggg4AMBki0+GES6gAACCCCAQEYEdN2WggULim7/TEEAAQQQQAABBBCwX4Bki/2m1IgAAggggICnBVi3xdPDQ3AIIIAAAggg4AMBki0+GES6gAACCCCAQEYEAskW1m3JiBrnIoAAAggggAAC6RdgN6L0W3EmAggggAACvhA4s/3z9eVEdoXo0ilzbJX5SgpxDocQQAABBBBAAAEE/iZAsuVvJDyAAAIIIICAvQJxcXH2Vhhmbdt3bLdqKN2htEiXi8S225z65+lhtuqhy3UjJt2ReamHYiIUBBBAAAEEEPCVAMkWXw0nnUEAAQQQ8KLAqVM6RcQ7pXChwlYw++buE5kfIja92fgb87XRO7HbEklOU8thW2qiEgQQQAABBBBA4IICJFsuyMKDCCCAAAII+FcgsO3zpk83iXzu334G7dmxoEc4gAACCCCAAAII2CLAArm2MFIJAggggAAC0SMQWBg3sFBu9EROpAgggAACCCCAQHQIkGyJjnEiSgQQQAABBGwTODOzZdMm2+qkIgQQQAABBBBAAIG/BEi2/GXBTwgggAACCMSEgM5sOXbsmOzZsycm+ksnEUAAAQQQQAABtwVItrgtTnsIIIAAAghEWEBntnALUYQHgeYRQAABBBBAwNcCJFt8Pbx0DgEEEEAAgXMFcufOLcWKFSPZci4LvyGAAAIIIIAAArYKsBuRrZxUhgACCCCAgLcFypYtK3FxcbKJ9Vq8PVBEhwACCDgsULFiRcmVK5dtraSlpcm6deskKSnJtjqpCIFoFiDZEs2jR+wIIIAAAghkUIDFcTMIxukIIICADwVq1aolY8aMsb1n+/btkw8++EBGjRpF0sV2XSqMNgGSLdE2YsSLAAIIIIBAGAJs+xwGHpcigAACPhEIrNulsxw//fRTW3qVJ08eufvuu6Vnz57y6KOPysCBA+WTTz6xpW4qQSAaBUi2ROOoETMCCCCAAAKZFGBmSybhuAwBBBDwkcDu3btl9erVUqZMGfnwww8lNTXVlt4NHjxY2rdvL48//rj85z//keLFi0vfvn1tqZtKEIg2ARbIjbYRI14EEEAAAQTCEKhataocOnSIbZ/DMORSBBBAwA8CM2bMkPz580uNGjVs687x48fl448/lubNm8uKFSukU6dO8uyzz9pWPxUhEE0CJFuiabSIFQEEEEAAgTAEdDHEq666Sr755pswauFSBBBAAAE/CMycOdPqRqNGjWzvjib177//fhIutstSYTQJkGyJptEiVgQQQAABBMIQaNu2rXX1+PHjw6iFSxFAAAEE/CCwbNkySUxMlMaNGzvSnfMTLnp7EQWBWBIg2RJLo01fEUAAAQRiViBbtmxy2223iS6KuGjRoph1oOMIIIAAAn8K6FbNs2bNkgoVKkipUqUcYdGEy4MPPii7du2SXr16SenSpR1ph0oR8KIAyRYvjgoxIYAAAgggYLNAy5YtpVChQjJhwgSba6Y6BBBAAIFoFXDyVqKAic6e6dOnj+TNm1deffXVwMN8R8D3AuxG5PshpoMIIIAAAo4LlDUtlAjRSvbTxyL0EUf58uXlxRdftKaL27XFZ4jecggBBBBAIIhAiWLFJE/u3EGOuv/w5o0brZ2IdN2W0aNHOxaAJnX0Fla9nVW3h+bfIseoqdhDAiRbPDQYhIIAAggg4LLAZNNeqTiRpDDbrWKuzxqijlOmjd3aVohzHDoUHx8vQ4YMkVy5clm7QuzZs8ehlqgWAQQQ8K9A8aJF5alHH5VUc+tNZkuWLFmkTMmSmb3cset+37BB6tatKzlz5hTdTcip8vLLL1vrwzz11FPyxRdfSEpKilNNUS8CnhAg2eKJYSAIBBBAAIGICGwxSZC3T4nMD7P1Fub6MubLVHXBktUceMIc2XvBo44++L///U8uu+wyeeWVV2TevHmOtkXlCCCAgF8FXnj9dUk9FexJPn29jouLkzo1a0quHDnSd4ELZ6WZPlXatk26dusmtWvXltmzZzvWqq7f8sEHH0iPHj1EF8sdMWKEY21RMQJeECDZ4oVRIAYEEEAAgcgI6AeU+iFeuDNbPr9I+Pq6WpMtyRc5z+bDDz30kDRt2lSmTJkiw4YNs7l2qkMAAQRiRyDZplkYs+eHm92333zb7t1WskV3JXIy2aKRf/LJJ/KomSHUsWNHGTt2LLNb7B9OavSQQITuHveQAKEggAACCCDgQ4GqVavKc889Z+0+1Lt3bx/2kC4hgAACCNghsHbtWtm5c6foui1Ol6SkJGt2SzGzdg1bQTutTf2RFiDZEukRoH0EEEAAAQRsFkhISJABAwaIbuvZtWtXOXLkiM0tUB0CCCCAgJ8EdAHbSy65RHRBdaeLzm7Zv3+/Nbslh4duqXK639QfewIkW2JvzOkxAggggIDLAnqfvlslt9nlom/fvlK6dGnRxQhXr17tVtO0gwACCCAQpQILFy60Iq9cubLjPTh7dku7du0cb48GEIiUAMmWSMnTLgIIIIBAzAicCnNRxfRC1apVS77++mtrKviXX34po0aNSu+lnIcAAgggEMMCW7ZssXqviXo3ytmzW7JmDbWdnxvR0AYCzgiQbHHGlVoRQAABBBBwTaBcuXLywgsvyOjRo6V48eLy2muvybPPPuta+zSEAAIIIBDdAtu3b7c6UKaMbq3nfNHZLSNHjrT+zbrxxhudb5AWEIiAALsRRQCdJhFAAAEEYksgcBtRwYIFpUaNGrZ0vkCBAqIvUHVBQ11oUMvSpUutRXE3btxoSxtUggACCCAQGwJ79+6V5ORk6xZUt3r86aefSpcuXayFcr/55hu3mqUdBFwTINniGjUNIYAAAgjEqkBqaqrorUT16tWzvux00MTKd999J/PNdqLffvuttSiunfVTFwIIIIBAbAjo7Ba3Zrao6K5du0QX5m3SpInV7rZt22IDml7GjADJlpgZajqKAAIIIBApgZMnT1qf3pUtW9a2EFJSUmTu3Lmyfv162+qkIgQQQACB2BXQZEvdunUlS5YsriXux44dK02bNhVdKFcXd6cg4CcBki1+Gk36ggACCCDgWQGmSHt2aAgMAQQQQMAI6MyS7NmzS9GiRa1ZJ26gzJo1S/744w+588475e233xadCUpBwC8CLJDrl5GkHwgggAACCCCAAAIIIIBAJgXcXiRXw0xLSxNdu0UTPCyUm8mB4zLPCpBs8ezQEBgCCCCAAAIIIIAAAggg4I5AYM0UN9dt0Z5pskVntLRv396djtIKAi4JkGxxCZpmEEAAAQQQQAABBBBAAAGvCgSSLaVLl3Y1xMBCufXr13d1gV5XO0ljMSlAsiUmh51OI4AAAggggAACCCCAAAJ/CUTiNqJA6+PGjZO4uDhp3bp14CG+IxD1AiRbon4I6QACCCCAAAIIIIAAAgggEJ7A3r17JTk5Wdye2aJRz549Ww4dOiS33HJLeJ3gagQ8JMBuRB4aDEJBAAEEEEAAAQQQQAABBCIloLNb3F6zRft68uRJmT59urRp00YamtuJArc0Rcoh0K4u4LvZ7NKk3ykIZFSAZEtGxTgfAQQQQAABBBBAAAEEEPChwO7du6VatWoR6dlPCxdayZbnnnpKtm3cGJEYLtToqAkTZPaCBRc6xGMIhBQg2RKSh4MIIIAAAggggAACCCCAQGwIFCxYUA4cOBCRzla46iqr3clTpsjvGzZEJIbzG21iZtmsWLPm/If5HYF0CZBsSRcTJyGAAAIIIIAAAggggAAC/hbQW4jWRCC5oIvjNm/eXP744w95f/hwOXXqlCega5lZPkePHfNELAQRfQIskBt9Y0bECCCAAAIIIIAAAggggICtAgkJCZIvX76IrJdStWpVKVWqlEybNs0ziRZbcaksJgVItsTksNNpBBBAAAEEEEAAAQQQQOAvgcAuRJFYnPbuu++2Avnyyy//CoifEIhyAZItUT6AhI8AAggggAACCCCAAAIIhCsQ2IVIdyRys+TNm1datmxp3b60fPlyN5umLQQcFSDZ4igvlSOAAAIIIIAAAggggAAC3heI1MyW1q1bS548eWTs2LHeRyJCBDIgQLIlA1icigACCCCAAAIIIIAAAgj4USAws8Xt24jat28vSUlJMmnSJD+y0qcYFiDZEsODT9cRQAABBBBAAAEEEEAAARXQZEtaWprs3LnTNZAqVarI//3f/8lXX30lR44cca1dGkLADQGSLW4o0wYCCCCAAAIIIIAAAggg4GEBvY1o165dcvLkSdei/Mc//mG1NWbMGNfapCEE3BIg2eKWNO0ggAACCCCAAAIIIIAAAh4V0GSLm7cQ6cK4rVq1YmFcj/49EFb4AiRbwjekBgQQQAABBBBAAAEEEEAgagUSEhIkPj5e3NyJSBfGzZ07tzCrJWr/bAj8IgIkWy4CxGEEEEAAAQQQQAABBBBAwM8Cbu9ElCVLFrn//vvl2LFjLIzr5z+sGO8byZYY/wOg+wgggAACCCCAAAIIIBDbAoGdiNya2dKiRQspX768fPLJJ3L06NHYxqf3vhUg2eLboaVjCCCAAAIIIIAAAggggMDFBapVq2adtG7duoufHOYZOqulS5cu1nbPQ4cODbM2LkfAuwIkW7w7NkSGAAIIIIAAAggggAACCDgu0LhxYzlw4ICsWLHC8bYCs1pGjhwp+/fvd7w9GkAgUgIkWyIlT7sIIIAAAggggAACCCCAQIQFdL2WK6+8UmbNmiVpaWmORsOsFkd5qdxjAtk8Fg/hIIAAAggggAACCCCAAAK+FChVooTkNTvweKVocqVugwZWODNnznQ8rMCslvfff59ZLY5r00CkBUi2RHoEaB8BBBBAAAEEEEAAAQR8L1CwQAH59zPPeK6fRS+/XFJTU2XOnDmOxpY1a1bWanFUmMq9JkCyxWsjQjwIIIAAAggggAACCCDgO4EDiYmya88eWbhkiRxPSfFE/7KZBMibAwbIEhPTwYMHHY3p0UcftXYgGjx4MLNaHJWmcq8IkGzxykgQBwIIIIAAAggggAACCPha4NCRIzJ7/nw57JHtjhs2bCi5zW1NTt9CpGvCPPnkk/L777/Lu+++6+sxpnMIBARYIDcgwXcEEEAAAQQQQAABBBBAIIYEdBciLTNmzHCs13r70BtvvCH6vUePHpKcnOxYW1SMgJcESLZ4aTSIBQEEEEAAAQQQQAABBBBwSaBRo0byxx9/yK+//upIi7r70GuvvSZVqlSRjz76SH755RdH2qFSBLwoQLLFi6NCTAgggAACCCCAAAIIIICAgwLly5eXMmXKOHYLkSZaXn/9dbnjjjusbaX/97//OdgbqkbAewIkW7w3JkSEAAIIIIAAAggggAACCDgqoLNatDhxC9H5iZZOnTpJikcWBbY6zX8QcEGABXJdQKYJBBBAAAEEEEAAAQQQQMBLArpeiyZA5psFe+0sVatWlWeffVbq1atnzWgh0WKnLnVFkwDJlmgaLWJFAAEEEEAAgZgUuPzyy6Vw4cK29f348eOyatUqSU1Nta1OKkIAgegRyJcvn1x77bXy22+/SeXKlW0JPG/evHLfffeJ7nB06tQpmTRpkvTq1cv3M1oqVqwo6mlXOWJ2rFq7dq1laFed1BMZAZItkXGnVQQQQAABBBBAIF0C+gZm6tSp1k4e6bognScdOHBAvv/+e+tT7QULFsiuXbvSeSWnIYBAtAtcc801ki1bNtFEwZgxY2zrjiZZpk2bJu+8846VMLCtYo9WVKFCBfnyyy9tj27Hjh3yww8/iD4361diYqLtbVCh8wIkW5w3pgUEEEAAAQQQQCDTArly5bISLUuWLJEpU6Zkup6zL9RZMjfddJPceeed1pfOcPnwww+lf//+orNeKAgg4G+BRYsWyfPPPy/6/GJX0USL3pLk1M5GdsVpZz2BGS2aGLHrdqxSpUpJ8+bN5Z///Kf1pVtl9+3bVz7++GNJS0uzM3zqcliAZIvDwFSPAAIIIIAAAgjYIaBvYIYPH25HVVYdujNI6dKlpU6dOnL//ffLY489Jk2bNpXnnntOli1bZls7VIQAAt4T0LVa7JzR4r0euhvRzz//bOvz88svvyy6W5Q+Pz/66KPSp08fKwHTo0cP2bRpk7udo7VMC7AbUabpuBABBBBAAAEEEIhuge3bt8v48eOtrVnffvttKVu2rHz66adyzz33RHfHiB4BBBCIcoENGzbIqFGj5NZbb7W+16hRQ7766isJ7CIV5d2LifBJtsTEMNNJBBBAAAEEEEAguIDeRqRrLNxxxx2iawW88MILojuKUBBAAAEEIitw7Ngx+fe//20tPqy3eeotRTorkeJ9AZIt3h8jIkQAAQQQQAABBFwR0B0wOnfubK0LMGDAAElISHClXRpBAAEEEAgtoAvl6m2e+rysz8+6wDHF2wIkW7w9PkSHAAIIIIAAAgi4KrB69WrR9QL0k9M33njD1bZpDAEEEEAguIDuIDds2DBr5qEmXijeFgg72VK3Zk1pffPNcv/dd0vT+vUlLi7O2z0mOgQQQOBCAkfMgykXOhCZx5LNNNGTZlq/Z8phE4nHfPS2h7CL9utE2LVQAQK+E9B1AnTnI10w98EHH/Rd/+gQAgggEK0CmgTXRcwfeugh6zk6WvsRC3GHNfeoptmfPWeOHDLpm28sqztuuUX+z+w1vsqslk9BAAEEokrg1VOeCnfy6edVzwT1ord8xn/9tT00fbzVL3s6RS3RJlC8aFFJiI8PGnaBAgWsY1lc/kCrd+/eUqlSJdHdL1auXCm62wYFAQQQiCWBHNmzy5WXXSYnTp68YLcvMds0a3FzwsFJE0u3bt1k8uTJ8uabb0qbNm3YoeiCoxP5B8NKtuQ3LwxWmXt7r6teXW5p3Ni6b0xnuhw1i/hQEEAAAQQQQAABBEIL6Av0ksWK6Sv1oCfmyJnTOlbwdNIl6Ik2Hzhy5Ii1fstnn31mLZ7bunVr2blzp82tUB0CCCDgTQFNhJcwz8/dHnkkaIAJhQtbx9x+ftad5J555hn54IMPZPDgwdK2bVvRhXQp3hIIK9ly5OhRudLs/z3PfNKxyExlql65suQyLwjmL17srV4SDQIIIIAAAggg4FEBff1UIMRCtPH580uDFi3k4GG9783dogvm9uzZU/r37y+DBg2Sdu3ayYkT3Hvn7ijQGgIIREJg9969MsIkm3PlyhW0+fJXXCHXNmwoBw8dCnqOUwdmzZol/fr1k2effdZaX6tLly5ONUW9mRQIK9myZMUKuddk0QqaFwjJycmSw9xSNPWHH+TUKaZlZ3I8uAwBBCIlcL/5VHmlee7ySK74hjp1ZPPWrbLZfHLhifKI8fnZ+CzzRDTS+PrrZd3GjbL9jz/CC6iT6dcs06/V4VXD1QiEI7B4+fKQlxc+/cmpTh2PRPna3LZXrVo1a+2W5s2by5dffhmJMGgTAQQQcFVA39POvcjtkwfM5AMttqwjl4neDRkyxHp+1ufma8wSH8sv8u9JJprgkjAEwlogVxdv1Gzfz0uXygrzyce0GTNItIQxGFyKAAIRFKhg2i4SwfbPa1qnrebLm/e8RyP469Wm7UIRbP+8pksVLy558+Q579FM/FrRXFMwE9dxCQIxJvDee+9ZbyZ0qjoFAQQQQMAbApoQ0lmHWnh+9saYnB1FWMkWrUgHeNeePdZXWlra2XXzMwIIIIAAAggggIAPBPaa6fQ6Zb1evXpSokQJH/SILiCAAAL+ENCdiTZs2CAtW7a07jTxR6/80Yuwky3+YKAXCCCAAAIIIIAAAqEEJkyYIFmyZJHbb7891GkcQwABBBBwWUCfnxPM0h5NmzZ1uWWaCyVAsiWUDscQQAABBBBAAAEELIHvv/9eEhMTRXcloiCAAAIIeEdg4sSJ1q2ePD97Z0w0EpIt3hoPokEAAQQQQAABBDwpoLsQLTY7Tl5++eWSLVtYeyx4sn8EhQACCESrwO7du+X333+Xq6/WRfYoXhHgX0qvjARxIIAAAgj4WuDSSy+1da2LlJQUWblyJdvw+vqvxnud27Rpk2TNmlXKli0rG82OYBQEEEAAAW8IbN68WRo1aiTZs2fntYE3hkRItnhkIAgDAQQQQMC/AvrmVLfPzZUrl62dPHTokMwwOwEuWLBA5s+fL9u2bbO1fipD4BK60CQAAEAASURBVHwBfTGvRZOHJFvO1+F3BBBAIHICgWT4JZdcwvNz5IbhnJZJtpzDwS8IIIAAAgjYL6DJFk20rF69WnQROzuKLoR30003Wetn6D3aujvg6NGj5bXXXpOkpCQ7mqAOBP4moC/mtZQrV876zn8QQAABBLwhcPbzM8lwb4wJyRZvjANRIIAAAgj4WCAuLs7qnd5P/dFHH9nW0/79+0uxYsWkTp068s9//lPuvfdeadiwofTs2dOa7WJbQ1SEwGmBs2e2gIIAAggg4B0Bnp+9MxaBSFggNyDBdwQQQAABBKJQQBfFmzx5srRv315eeeUVKVKkiIwcOVIee+yxKOwNIXtd4I8//hBdL4iZLV4fKeJDAIFYEzh7Zkus9d2r/SXZ4tWRIS4EEEAAAQQyIJCWlibDhg2TVq1ayYYNG6R79+5y/fXXZ6AGTkXg4gL6d7Z161aSLRen4gwEEEDAVYGdO3dayXBdU4viDQGSLd4YB6JAAAEEEPCxgK6n4lbRW5U6deokycnJ0rdvXylatKhbTdNOjAjop6clS5Zk++cYGW+6iQAC0SGgyfAtW7aQDPfQcJFs8dBgEAoCCCCAAAJ2CGjC5V//+pd1S1G/fv0kSxb+ubfDlTr+FNB1AQLbP2OCAAIIIOAdAX1+1mS4bv9MibwAr74iPwZEgAACCCCAgO0Cuo7LuHHjrMVzu3btanv9VBi7AoF1AZiqHrt/A/QcAQS8KaDPz5oM1+2fKRkXyJc3r7Rq1kxuadxYnjZr3xUz6+CFU9iNKBw9rkUAAQQQQMAI6D/GBc1WzMFK4BMmt2eYvPTSS1K1alXp3LmzLFu2TGbOnBksRB5HIN0CgWTLdddeKzvMlPVgRW+f22TWd0k5cSLYKTyOAAIIIGCjQGBHouvr1pXscX/uhHih6lNTU2Wjef7WW48ofwl07NBBPvvyS9m8bZssWLJEbm7USCZ/840cS0r666QM/ESyJQNYnIoAAvYJPHH//VKmVClrIS/7as1cTUNGjJCdste6uE7NmtLcPLFGuuSPj5fqlSrJcbPrR6TLO8OHG50DVhj1r7tObmzQIKIhDfjwwzPt31C7tjSpX//M7xn5of/QoaZXh6xLGpqtkxuHsZhsCbP9cmB75wvFEEiyFMif/0KHHXvs+PHjVqJl4sSJorcT3XHHHRJ4o+xYo1Tse4Fdu3ZZfWzetKlcfpE1gY4cPSqHjxzxhEmCeV4daBaR1jcYFAQQQMCPAokH/ny91t78e1/ffNgSqiQePChJZn03yl8C+fLkkQfbtRP9sODFt96Srdu3Wx+mkWz5y4ifEEAgCgR27tkj8xYvlmWrVkU82j8XL/0z+7/AxLTwl18iHtNdZkeZ1b/+KqvWrYt4LGf7/PjTTzL3558jGtOf8fwZwuyFC2WOiSkz5ex+zVqwQLSuzJYqFStKkUKFgl6eLVs2aXz77XIoAm869VOup556Soaa5NKQIUOshEtSJj+hCdpBDsSUQKHTf+s/mefKb6ZMCd5382J1qXmOP2Be0HuhaJL/yLFjXgiFGBBAAAFHBPLmy2fVO+PHH+WXRYuCtnHKzGhZaGZukGw5l6h18+aidvp6LYdZ96ZWtWqyyrwez2xhZktm5bgOAQTCFtA3u2e/cQ67Qpsq8EpM+KRvQO0ar3DqWb56dchgc+TIYR0/efJkyPOcOjh79mwZOHCgPPnkk9KmTRsZNWqUU01RbwwIlCtXzurlD7NmyQ/mRSkFAQQQQMAbAoG1tL6cOlV+DSNJ4I3euB+Ffuja+cEHZea8eVK6RAmZ8sMPknjoz1nQmYkmS2Yu4hoEEEAAAQQQiC6B4eZ2MJ3RoskWCgLhCARezHNLWjiKXIsAAgjYL6DPz/rhkW4BTcm4wM7du0VvV99ibh+aPmeOrNuwIeOVnHUFyZazMPgRAQQQQAABvwocMVNiv/32W2vB3PLly/u1m/TLBQGd2cKLeRegaQIBBBDIoIA+P+82CQNuF84g3Fmn61pj2/74w5ZbYEm2nAXLjwgggAACCPhZYMKECVb3mN3i51F2vm/6ySkv5p13pgUEEEAgowL6/BzYkSij13K+/QIkW+w3pUYEEEAAAQTOEQi1U9E5Jzr8y/z58+UP82lN69atHW6J6v0soC/muYXIzyNM3xBAIBoFiprd4fKY3XR4fvbO6JFs8c5YEAkCCCCAgE8Fwll8106SNN19wOy6VMIs+paQkGBn1dQVIwKBF/N8chojA043EUAgagQCi5fz/OydIWM3Iu+MBZEggAACCCDguEDgRZjOTli+fLnj7dGAvwQCL+b55DT4uFapUkXynd5+NfhZ6T+iydo1a9bIQY9soZ3+yDkTAQTcFNB/17Xw/Oymeui2SLaE9uEoAggggAACvhIIvAjTN80kW3w1tK50JvBiPpC0c6XRKGqkYsWKMnHiRNsjPmoWbBwxYoR8aHbJSExMtL1+KkQAgegXCCTDeX72zliSbPHOWBAJAggggAACjgsEXoQFXpQ53iAN+Eog8HcTSNr5qnM2dEb//zpx4oTs3btXPvjgAxtqFMmVK5fcdddd0qlTJ+nQoYOVcHnnnXdEbwukIIAAAgEBTYbrTLjAv/OBx/keOQGSLZGzp2UEEEAAAQRcFwi8SQ7MUHA9ABqMagFNtrDtc/AhPHbsmLUuUu3atWX8+PGiM1LsKDqjpWXLltKlSxfp1q2blCpVSnr37k3CxQ5c6kDAJwL6/MxOcd4aTBbI9dZ4EA0CCCCAAAKOChw6dMi6DSEwQ8HRxqjcVwK6q9Y111wj27dvl6SkJF/1zc7OzJo1S7Jnzy7XX3+9bdWmpqbKpEmTrITLjz/+KHfeeae88sorkiULL+VtQ6YiBKJYID4+XsqXLy/r16+P4l74L3Seof03pvQIAQQQQACBkAI6u4WZLSGJOHgBgTp16lgzKqZOnXqBozwUEJgxY4b1Y+PGjQMP2fb9+PHj8vjjjwsJF9tIqQgBXwi0aNFCcuTIITw/e2s4SbZ4azyIBgEEEEAAAccFNNlSoEABtn92XNpfDbRt29bq0IQJE/zVMZt7o/9/6VfDhg1FZwPZXc5PuHTu3NnuJqgPAQSiTECfn/W54euvv46yyP0dLskWf48vvUMAAQQQQOBvAoHF85jd8jcaHggikDdvXrn55putHax+++23IGfxcEBg5syZUqxYMdHdiZwo+qaqY8eOsmHDBtFki1PtOBE7dSKAgL0Cl112mVSvXl2+/fZbOXz4sL2VU1tYAiRbwuLjYgQQQAABBKJPQD9118K6LRYD/0mHwN133y25c+e2Fn1Nx+kxf4omW7Q4cSuRVbH5T3Jysjz33HPW7Jk33nhDsmVj34uADd8RiCWBBx54wOquLspN8ZYAz8reGg+iQQABBBBAwHGBwMyWa2vUkHWrVwdtz9pCcts2STafolOcEyhZvLgkmMUNgxW95UtLpBZDrVatmvWmfseOHTJ58uRgYcbM46VLlJD4fPlC9nf/nj2iOxNpsuXdd98NeW44B5ctWyZDhw611nF57LHHZNCgQeFUx7UIIHCewKVlykhus/16sKLHtThxy2CwNs9+/NZbb5V7771X9Llg3rx5Zx/iZw8IkGzxwCAQAgIIIIAAAm4K/PHHH1ZzjRo0kOJ58oRs+qjZdeYQ05JDGoVzUF+gFy9aVEKt7JEjZ06riYIJCeE0lalr9VYYfQOflpYmTzzxRFRPUdckSdeHHxbd2SezJT3jFah7g7ndSndvKliwoBw4cCDwsO3f+/fvL7fccotosmXUqFFy8OBB29ugQgSiTeC1Pn2sNUxOhRG4JriLFykSsoaEwoWt4wVPJ8VDnmzzwauvvlpef/112bdvn3U7oT5PU7wlQLLFW+NBNAgggAACCDguUOT0i8cl5pOwL774Imh7+iJ1xZo1ss/BN4pBG4+hA9UqVZJQiZT4/Pmlgdlp4qDLSa+sWbPKgAEDrLVHunfvLitXrozqUen92mu2xF/TJFDyX2Rmi84KK1ehglSpWlVuuOEGa9tmWxq/QCUpKSnyzjvviN5K9OCDD8rbb799gbN4CIHYEtAPCfoOGSLHzf8fmS2aXK1t1kIJNbOl/JVXyrVmMeyDhw5ltplMXZfPPAdpIly3me/SpYvs3LkzU/VwkbMCJFuc9aV2BBBAAAEEPCcQWBh39ty5MoNpxxEfn6WrVoWMofDpT05PnjwZ8jy7Dz799NNy7bXXyieffBIyKWd3u16vb/Hy5ekKsfjGjfKv55+XRo0aOZps0WAmTZpkfbKtazcMHz6c2S3pGiFOQiC0gCZNF/zyS8iTDpq1k7SEM2MuZANBDr5mksdly5aVl19+WX7++ecgZ/FwpAVYIDfSI0D7CCCAAAIIuCwQWBg3sFCuy83TXBQI6LbFjz/+uKwyiaBXXnklCiL2Xoi7du2SNWZmWANzu57OEnKy6Bs9XRtGP+3W2S0UBBDwr8A///lPad68uXz33XdWctW/PY3+npFsif4xpAcIIIAAAghkSCAwsyWwUG6GLuZk3wuUMGub/O9//5OjR49K165dRW9ToWROQHcl0gWOdZFhp4vObtmyZYvo7JaECKzv43T/qB8BBEQqmdtOe/fuLdvM4vU9evSAxOMCJFs8PkCEhwACCCCAgN0COrNF30jv3bvX7qqpL8oFNDGg67Tooq49e/a03rxHeZciGv7ChQut9itXrux4HMxucZyYBhCIqEDp0qVl4MCB1s50Tz75pBxyeZ2YiHY+Shsn2RKlA0fYCCCAAAIIZFZAZ7YwqyWzev697sYbb5SpU6dKDbMl+EcffSTTpk3zb2dd6tnWrVutlsqc3h7W6WZ1wWv9f1tnt+TNm9fp5qgfAQRcENCFeu+55x6ZMmXKmXVadKtnivcFSLZ4f4yIEAEEEEAAAdsEcufObe0uw3ottpFGdUW6talOS3/rrbdkiNm5I1euXNaMlv/+979R3S+vBK/brOsim/qJtBtFZ7cMGzbMWrvltttuc6NJ2kAAAYcEsmXLZi1S/vHHH8tLL70kR44ckUceeURGjhzpUItUa7cAuxHZLUp9CCCAAAIIeFiAxXE9PDgXCa148eJSr169i5yVvsOFChWSZs2aSf369SW/2Vpay6xZs6RPnz5sIZo+wnSdpevd7NmzR9ya2aJB6dotegtY+/btZcyYMemKk5MQQCA8Af231a7n51KlSlkL4NauXVv0AxIt48ePF02CHzZbWlOiR4BkS/SMFZEigAACCCAQtgCL44ZN6HoFgS2fGzduLPplV9EZFytXrpQFCxbIXLMN+I8//mhX1dRzloAuZFm+fPmzHnH2R/30+6uvvpK77rpLqlSpIitWrHC2QWpHIIYFAs/P7dq1E/2yq+gstV/MttP6/KwLbXPbkF2y7tZDssVdb1pDAAEEEEAgogLMbIkof6YaP3jwoHTs2FFKliyZqesvdFFycrKVYNmxY8eFDvOYjQKabNF1cHQNFV2Y2o0yduxYK9mis1tItrghThuxKqD/f3Xv3l3i4+NtI9DZKzrT8MCBA7bVSUWRESDZEhl3WkUAAQQQQCAiAsxsiQh72I1Onz497DqoIDIC27dvtxrWW4l+/fVXV4LQT8HXrFkjrVq1kldeecW1JI8rnaMRBDwkoDMEdWFqCgIXEmCB3Aup8BgCCCCAAAI2CuhOAl4p1atXl8TERLZ99sqAEIfvBXRmixa3FskNgOrsljx58ggL5QZE+I4AAgi4K0CyxV1vWkMAAQQQiEEB/eTLC0XXb7jiiius7X29EA8xIBALAmfPbHGzv7pQblJSkrVQrpvt0hYCCCCAwJ8CJFv4S0AAAQQQQCBGBNq2bWv1VHc1oCCAgDsCgZktbu5IpD0LLJSrW3tXrlzZnc7SCgIIIIDAGQGSLWco+AEBBBBAAAH/CmTPnl1atmwpGzdulKVLl/q3o/QMAY8J6CLEOrvN7duIlGHcuHGWxu233+4xFcJBAAEE/C9AssX/Y0wPEUAgygRubtpUGtapIw//4x9S1iyoSEHADoE77rhDChQoIBMmTLCjOupAAIF0CqSkpMiePXvE7ZktGp4mVvU2pltuuUW8tHZUOuk4DQEEEIhqAXYjiurhI3gEEPCbQKWrr5Y2N99sdStbtmzSu0sX6dizp9+66bv+lChWTAomJATtl84q0ZIlS2Q+46hYsaI8//zz1qK4n376adA4OYAAAs4I6K1El19+uTOVX6TWqVOnyiOPPCJtbrtNVq9eHfRsnX2zYfNmOXHiRNBzOIAAAgggkH4Bki3pt+JMBBBAwHGBJtdff04bcebN+cu9eknqyZPnPO7mLwM+/FD2ygGryQa1a8tNN9zgZvN/a+vtoUPPPKYzgJo2aHDm94z80O+DD0yvDlqXNKpbV5rUr5+Ry885t1iRIiE/NQ4kWQrkz3/OdW78orNZBg8eLJrw6WKSd/v373ejWdpAAIGzBHbv3i01atSQHDlyiM50cbMsXLDASrY89tBDsukiW08fPnJEjplFdcMpCfHx8sa778r2XbvCqYZrEUAAgagXINkS9UNIBxBAwE8CS1askMpXXXWmS/pJY59XXz3ze+R++HPr4jkLF4p+eaXMMm8i9Cvz5c9+zZw/X/Qrs6WSGbOihQsHvVxnKTU2ayYcMm9k3Cx620C/fv2s2xf+/e9/y6JFi9xsnrYQQOC0QGHz/KAL1rqdaNHmq1xzjRXF5ClTZJX5NyZYSUtLkyUrV4omXMIpTz36qBxLTg6nCq5FAAEEfCFAssUXw0gnEEDALwI//vST/J95417D7ByhL3xHT5zol675uh+rLvJpsX6areWkyzOUOnbsKA3MzJ+J5u9o1KhRvh4DOoeAlwV0cdzArkRux6nrtSQmJsoQMyswNTXV7eZpDwEEEIhZAZItMTv0dBwBBLwq8P7IkXK3ubd+1dq1smrdOq+GSVweF6hVq5Y89dRTsmHDBnnhhRc8Hi3hIeBfgaxZs0rx4sVlzZo1rnfyiiuukCuvvFI+++wzEi2u69MgAgjEukBkVuqLdXX6jwACCCCAgIMChQoVkv79+1u3LOg6LUlhrsHgYKhUjYDvBUqWLCmacInEzJa7777b8p08ebLvnekgAggg4DUBZrZ4bUSIBwEEEEAAgTAE4s3ilG+//bYUMzsk9TQ7Wf32229h1MalCCAQrkBgy2e3ky16+2KbNm1ks9lhaEFYa1uFK8D1CCCAQGwKMLMlNsedXiOAAAII+FDgBrNTlG7zWq9ePeu2gc8//9yHvaRLCESXQCDZsn37dlcDb968uehuZOPGjRNdbJ2CAAIIIOCuADNb3PWmNQQQQAABBGwV0G2lrzKLKnfo0EHuuusuOXbsmOjOQ6NHj7a1HSpDAIHMCejiuFrcntnyj3/8Q06cOCHjx4/PXOBchQACCCAQlgDJlrD4uBgBBBBAAIH0CxQpUkTq16+f/gtCnJmQkCA33nij6GwW/VnLfLN9da9evVx/UxciTA4hEPMCgZktO3bscM2ifPnyootkTzHbPe/bt8+1dmkIAQQQQOAvAZItf1nwEwIIIIAAAo4I6Dbe+lW7dm3ry85GVq1aJXq70Ny5c2XOnDncLmAnLnUhYIOAJluOHj1qbb9sQ3XpqqJdu3bWeWPHjk3X+ZyEAAIIIGC/AMkW+02pEQEEEEAAgXMETp48KY888ohccskl5zwezi8pKSnWTBa3b00IJ2auRSAWBfQ2Ijf/Pz17YVyd7UZBAAEEEIiMAMmWyLjTKgIIIIBAjAnMnj07xnpMdxFAQLd8Ll68uKxdu9Y1jMDCuO+//z4z3VxTpyEEEEDg7wLsRvR3Ex5BAAEEEEAAAQQQQCBsgZIlS4omXNyc2fLggw+KznxjN7Kwh48KEEAAgbAESLaExcfFCCCAAAIIIIAAAghcWCCwOK5byZYmTZpIlSpVrK3f9+/ff+GgeBQBBBBAwBUBki2uMNMIAggggAACCCCAQKwJ1KhRw+ryunXrXOl6t27drO2eBw8e7Ep7NIIAAgggEFyAZEtwG44ggAACCCCAAAIIIJBpgUaNGklSUpL89NNPma4jvRfqrJbKlSvLp59+Kjt37kzvZZyHAAIIIOCQAMkWh2CpFgEEEEAAAQQQQCB2BQoUKCDVqlWTefPmWWuoOC3BrBanhakfAQQQyJgAuxFlzIuzEUAAAQQQQAABBGJY4JJSpSQ+X76QAqdOnZL/M2unZMmSRWbMmBHyXDsOBma1jBo1ilktdoBSBwIIIGCDAMkWGxCpAgEEEEAAAQQQQMDbAv9+9lnJkT27pKamZjrQuLg4KVakSLquTyhTxjpv5syZ6To/sydpTMxqyawe1yGAAALOCZBscc6WmhFAAAEEEEAAAQQ8IrB33z757KuvZPfevWFFVN2si5I/Pj5kHZoA6TtwoKxdu9bxmSYdOnSw1mr5+OOPHW8rZKc5iAACCCBwjgDJlnM4+AUBBBBAAAEEEEAAgeACS1auDH7w9BHdhSghIUHGjBlz0XPDOaFs2bLSvXt32b59u7z11lvhVMW1CCCAAAI2C7BArs2gVIcAAggggAACCCAQ2wKNGze2AJy8hUjXg3n99dcld+7c0qtXLzl69Ghso9N7BBBAwGMCJFs8NiCEgwACCCCAAAIIIBDdArrl88GDB2XJkiWOdERvU/p//+//Sa1atazZM7rjEQUBBBBAwFsCJFu8NR5EgwACCCCAAAIIIBDFAsWLF5eKFSvKnDlzwlqMNxiBJlr++9//Srt27axtpV9++eVgp/I4AggggEAEBUi2RBCfphFAAAEEEEAAAQT8JaCzWrQ4seXz+YmWxx57TJKTk632+A8CCCCAgLcEWCDXW+NBNAgggAACCCCAAAJRLKDrtaSlpcns2bNt7UXVqlXl6aeflvr161szWki02MpLZQgggIDtAiRbbCelQgQQQAABBBBAwF6Bq6++WooWLWpbpTobYtmyZZKSkmJbnVQkkj17dqlXr57s2LHD2o7ZDpNcuXJJ+/btpWHDhnLq1CmZPHmy9O7dmxktduBSBwIIIOCgAMkWB3GpGgEEEEAAAQQQCFcgX758MmnSJMmaNWu4VZ1z/eHDh2XWrFmyYMECmTt3rmzduvWc4/yScYEKFSpInjx5rK/hw4dnvIIgV2iSZdq0aTJw4ED59ddfg5zFwwgggAACXhIg2eKl0SAWBBBAAAEEEEDgPIGcOXNaiZZFixZZsxrOO5ypXwsVKiTNmjWTli1bWl/6Zn7kyJHy5ptvSlJSUqbq5CKRNWvWyDPPPCOaILOr6NgsXrxY1q1bZ1eV1IMAAggg4IIAyRYXkGkCAQQQQAABBBAIV2D9+vUyevTocKs5c/0777wjRYoUkdq1a8sDDzwgHTp0EF3ctWfPnvLTTz+dOY8f0i+ga7XobT4UBBBAAAEE2I2IvwEEEEAAAQQQQCBGBfbu3Stff/21tY3wa6+9Jrpt8ahRo6zkS4yS0G0EEEAAAQRsESDZYgsjlSCAAAIIIIAAAtEroDMyhg4dKq1atZJNmzZJr1695Nprr43eDhE5AggggAACERYg2RLhAaB5BBBAAAEEEEDAKwIbN26Uzp07y4kTJ6R///5SsGBBr4RGHAgggAACCESVAMmWqBougkUAAQQQQAABBJwV0IVYX3zxReuWor59+0pcXJyzDVI7AggggAACPhQIa4Fc/ce3/nXXSYGEBEmIj5e9+/fLNzNniq6aTkEAAQRCCRwzu12kmE9OPVMOmEg8tAHH0WPHrE+WPeOz30SS7JloxPI5eTL8gLRfx8OvhhoQ8JvAZ599JnXq1JHWrVvL448/LkOGDPFbF+kPAggggAACjgqElWy5tmpVK7gvv/3W+t7yppukSsWKsnz1akeDpnIEEIh+gWkzZnirE//zVpL46+nTveXzird8vpg2zR6f/3irX/Z0ilqiTaBMyZKSkD9/0LATChSwjmXJ4u6E5H/9619SuXJlefrpp2X58uUyb968oDFyAAEEEEAAAQTOFQgr2RKfL5+sWLNGateoIS2aNpVs5kVAw7p1Jcl8Yk1BAAEEEEAAAQQQCC2gs4SLme2XQ5UcOXNahwuamcRuFn0998QTT8iECRNkwIABcvvtt8u2bdvcDIG2EEAAAQQQiFqBsJIthw4flopXXimzFyyQhb/8IrWqVZOsWbPKgsWLoxaEwBFAAAEEEEAAATcFdFZwqERKfjPrpUGLFnLw0CE3w7La2rBhg3Tv3l0GDRokgwcPlrZt20pKSorrcdAgAggggAAC0SYQVrJl6cqV0s7cy3t78+ai6y/opzPfzpoVbQbEiwACERC4wawFsH3nTtlgthj1RHnELAC5zNxS8rMnopHG118vv2/ZIpu2bvVGQJ2MzwLjs8Qb4dx0ww2ydv162bpjR3gBdTP9+sH0a2V41XA1AuEI6CzhUKVw4cLW4ZOpqaFOc+zYd999J++//761dsutt94qX3zxhWNtUTECCCCAAAJ+EQjr5l/9R3/0xIny408/yS8rVliJFhbH9cufBv1AwFmBIoUKSb68eZ1tJCO1X2ZOLpSRC5w9t6h5c5U3d25nG8lI7eXNyX8uG5GRqxw7V2+7yG2HzxUmRHfvzHDMhIoRcFLgww8/lJNmUWqd2UJBAAEEEEAAgYsLhJVs0eo1uaK7EOkXiZaLg3MGAggggAACCCAQbQL7zeu8mWbHSd2hqHTp0tEWPvEigAACCCDgukDYyRbXI6ZBBBBAAAEEEEAAAdcFxo8fb90yfscdd7jeNg0igAACCCAQbQIkW6JtxIgXAQQQQAABBBCIgMCMGTNEZ7i0atUqAq3TJAIIIIAAAtElQLIlusaLaBFAAAEEEEAAgYgI6Jotv5jdJy+77DLJnj17RGKgUQQQQAABBKJFIKzdiKKlk8SJAAIIIIBApAUqVKggJUuWtC0M3X536dKlkmR2A6Qg4JbAJrODXJYsWaRs2bKi20JTEIiUQK1atSRPnjy2NZ+WliYrzIYfiYmJttVJRQggENsCJFtie/zpPQIIIICACwJZs2a1tsvNkSOHra1pomX27Nkyf/5864s3v7byUtkFBDZv3mw9eumll5JsuYAPD7kjUL16dRkzZoztjelz6ogRI2To0KFy4MAB2+unQgQQiC0Bki2xNd70FgEEEEAgAgKabNFEi35qOm7cOFsiKFCggNx0003SrFkzufnmm606P//8c3n55Zfl8OHDtrRBJQicL6AzW7RosoWCQKQENLGcmpoq27dvl/fff9+WMHLnzi3t27eXxx9/XDp06CAffPCBDBw4kN1WbdGlEgRiU4BkS2yOO71GAAEEEHBRIC4uzmpty5YtMnbsWNtaHjJkiGjS5brrrpP77rtP7rzzTqlfv7706dNHZs2aZVs7VIRAQCCQbClXrlzgIb4j4LrAoUOHrPWDqlSpYs0aTE5OtiWGjz/+WFq2bCldunSRbt26Wbd+9u7dm4SLLbpUgkDsCbBAbuyNOT1GAAEEEHBZ4NSpU461qOsLfPvtt9YnsS+88ILkz59fPvzwQ+natatjbVJx7Ars3LlTjh8/zsyW2P0T8EzPdXesXLlySZ06dWyLSddtmTx5stx2220yd+5cueuuu+SVV16xtjy3rREqQgCBmBEg2RIzQ01HEUAAAQT8LKAJndGjR8utt94qa9assT6VbdiwoZ+7TN8iIKB/ZzpDi5ktEcCnyXMEZs6caf3euHHjcx634xedKaO3E5FwsUOTOhCIXQGSLbE79vQcAQQQQMCHAtu2bZMnnnhCjhw5In379pUSJUr4sJd0KZICukhuqVKl2P45koNA27Ju3TrZsWOHOJVUPj/h0rFjR9QRQACBDAmQbMkQFycjgAACCCDgfYGtW7dKr169rPVc+vfvL7pALwUBuwTO3v7ZrjqpB4HMCOjsljJlysgVV1yRmcsveo0mXDTJsnHjRmu2YIUKFS56DScggAACAQGSLQEJviOAgGsCNzdtKk0bNJAH2rWTCg69QHKtMzSEgEcFpk2bJiNHjpSaNWvKM88849EoCSsaBc7e/jka4ydm/wg4eStRQEm3g+7Ro4eVtH799ddJXgdg+I4AAhcVYDeiixJxAgII2CmgyZU2p7epzWY+bX/mscek43PP2dkEdSHgukApc6tOIbMrULCSPXt261CWLO5+xqELO1avXl0eM/+fLVu2zFpIN1iMPI5AegUCOxLVqVVLdpvbOIIVXd9lg9kqOtksqEtBIKMC5S65RPLlzRvyssS9e60Fm3XdFt2q2amyZMkSGT58uDz88MPWl13bTTsVL/UigIA3BEi2eGMciAKBmBFoVLfuOX3VDXFfM7c7pJw8ec7jbv4yyGz1uFP2WE3WNbMAbmnSxM3mL9hWfL58UrNyZTl+4sQFj7v94Nc1fpCr85aX8tde6nbTf2vv7aFDzzzW0OxCobOkMlP6mRfmB+Sgdan+XTYxWyZnthQrUiTkbhWBJEsBs1OQm+WE+fvp3LmzTJo0Sd58801rKvz69evdDIG2fCiwe/duq1c3mTe4lxYuHLKHR48dkyNHj4Y8x62D+v+ffu02b9ApzgmUKFZMnu3USdJSUzPdSFxcnOjzanrKht9+s2bwxcfHy+HDh9NzSabOeeutt6R58+bWwrm6GLmui0VBAAEEQgmQbAmlwzEEELBdYPHSpVKzSpVz6u3zxhuSGsaLsnMqy/QvmvYRmb94sfWV6WpsuvBus+3kqrVrZZVZANATpXicLPx6scgMT0RzJohZCxaIfmW+/DnuM+fPF/3KbLnazNgqGuJNZ7Zs2aTx7bfLIQffCASLffv27dZaA/qp7JAhQ6R169Zy1CNvfoPFzOPeFihUqJAV4Pyff5apX30VNNg0M7NlhdkZKxJ/90GD4oDjAj1fftmWNqqbDxwuNrNF/8auNq8peplz65uE+dSpU21p+0KV6JbngwYNkpdN/x544AF55513LnQajyGAAAJnBEi2nKHgBwQQcENg8YoVMnfRItEZJPqp1+gvvvBAosWNntOGnwXWmtki+hWs5MyZ0zp0MkJJxXnz5km/fv2ke/fu0qZNG2stl2Cx8jgCFxMIbPs8Y/ZsmbNw4cVO5zgCmRJYsnJluq7bbG5l0wXBGzVq5GiyRYMZP368dDKzdh588EH56KOPmN2SrhHiJARiV8Ddm8dj15meI4DAWQIjPv1Uvps1S94fNUrm/vTTWUf4EQF/CujaFZEuI0aMEF3osW3btpEOhfajXODSS/+8nTCwUG6Ud4fwo1xAt7vfsGGDtQW03n7kZDlpbnkePHiwJCQkWLNbnGyLuhFAIPoFSLZE/xjSAwQQQAABBC4qcMysnaFT7Cub6fZsX3pRLk4IIaAzWzSBuGXLlhBncQgB9wR0V6IiZo0XfX5zuujsFk3w6OyWfGZ9NQoCCCAQTIBkSzAZHkcAAQQQQMBnAvomQQuzW3w2sC53R5Mtu3btkuTkZJdbpjkELizw0+lZspUqVbrwCTY+evbslvvvv9/GmqkKAQT8JkCyxW8jSn8QQAABBDwn4PTU9vR2WN+Q6CeyrVq1Su8lnIfA3wT0NqLA9s9/O8gDCERAQJ/XtJQpU8aV1gOzWx566CHJnTu3K23SCAIIRJ8AyZboGzMiRgABBBCIMgEvrNmiZBrHz2YHmWJma9YCBQpEmSLhekFA/3b0zSXrtXhhNIghIBBItpQuXTrwkKPfdXaLLpCra7e0aNHC0baoHAEEoleAZEv0jh2RI4AAAgggkGGBwIyEwCKnGa6AC2JaIPB3E/g7imkMOu8ZAd3OPjEx0bWZLdrxiRMnim4H3b59e884EAgCCHhLgGSLt8aDaBBAAAEEEHBUIDAjIbB9r6ONUbnvBAJ/NyRbfDe0Ud+h7du3i1szWxTr4MGDMm3aNKlWrZpcffXVUe9HBxBAwH4Bki32m1IjAggggAACnhUIvEkOzFDwbKAE5kmBwN9NIGnnySAJKiYF9FaiokWLSo4cOVzr/5gxY6y2mN3iGjkNIRBVAiRbomq4CBYBBBBAAIHwBAJvkgNvmsOrjatjTYBtn2NtxKOnvzqzRRcjL1WqlGtBL1q0SNavXy+tW7dmoVzX1GkIgegRINkSPWNFpAgggAACCIQtcPjwYdm/f78EbgcJu0IqiBmBLFmySPXq1a0drdj2OWaGPWo6Glgk160diQIw48aNk/j4eBbKDYDwHQEEzgiQbDlDwQ8IIIAAAgjEhoDObiHZEhtjbWcv69WrJ8WLF5evv/7azmqpCwFbBALJFjfXbdHAWSjXluGjEgR8KUCyxZfDSqcQQAABBBAILqDrtuiWpWz/HNyII38XaNOmjfXghAkT/n6QRxCIsIDeRqTF7ZktugtSYKHcq666KsIKNI8AAl4SINnipdEgFgQQQAABBFwQYN0WF5B91oTeJtGsWTNZunSpbNy40We9ozt+EIjUzBa101uJtOjaLRQEEEAgIECyJSDBdwQQQAABBGJEILAjEbcSxciA29DNe+65R3LlyiXjx4+3oTaqQMB+gaNHj4rOMnF7Zov25Oeff5bdu3fLrbfean/HqBEBBKJWIFvURk7gCCCAAAIIIJApgUCy5bqaNeX3deuC1pF26pRsNOu7HEtKCnoOB8IXKFu6tBTInz9oRXrLlxZdoDYSpVatWvLMM8/I1q1bZfLkyZEIgTYRSJeA3koUiWTLKfNcqbcSdejQQdrcdpus/+23oPHmzZNHsmfPHvQ4BxBAwD8CJFv8M5b0BAEEEEAAgXQJ7Ny50zqvwfXXSxEzWyFU0UTL4SNHQp3CsTAEdKvaYkWKhKwhR86c1vGCp5MuIU+2+WCJEiXknXfekZSUFOnUqZPo7AEKAl4V0NklFStWtLaA1gSIm2Wx2QZaky2PPvCAbDHbQYcqdUyie8r334c6hWMIIOADAZItPhhEuoAAAggggEBGBIoWLWqdvuiXX2T8558Hv9S8WVltZr4cOHgw+DkcCVugUoUKIRcrzm9mvTRo0UISDx0Ku62MVJAtWzZ59913pXDhwtKtWzdZu3ZtRi7nXARcFyhiEpf79u0TtxMt2tHKVapY/f104kRZ9+uvQft+Ki1Nlq5aFfQ4BxBAwD8CJFv8M5b0BAEEEEAAgXQJBNZq+XH+fJn700/puoaTnBNYFeJWLm1Vkx1aUlNTre9u/adHjx5StWpVGTZsmEyZMsWtZmkHgUwL6C1EgQXAM11JJi+85ZZbrHVbPvrkk4gkezIZNpchgICDApG5+dfBDlE1AggggAACCIQWuPTSS60TAmu3hD6bo7EocOONN8qDDz5o7T70xhtvxCIBfY4ygdy5c0vBggUlsCuRm+FrUlITPVOnTiXR4iY8bSHgcQGSLR4fIMJDAAEEEEDAboHAzBaSLXbL+qO+0mbB3tdff10OmtvHnnzySTl58qQ/OkYvfC0QWBg3EsmWu+66y7JlAWlf/4nROQQyLMBtRBkm4wIEEEAAAQSiW0Bnthwxi97u378/ujtC9LYL6JoXuiCu7oD0+OOPi+7uQkEgGgQCyRa3/2bzmN2FbjM7EK1Zs0aWLVsWDVTEiAACLgkws8UlaJpBAAEEEEDAKwI6s4VZLV4ZDe/E0bJlS2v72ipmoc/33ntPvme3FO8MDpFcVEBnZGlxe2aLJlo04TJ27NiLxsgJCCAQWwLMbImt8aa3CCCAAAIxLqBvCnQ3op9YGDfG/xL+7L7uOKTrTTz88MPSrFkzSUxMlKeeekq++uorfBCIKoFIzWxp3769JCUlCbcQRdWfC8Ei4IoAyRZXmGkEAQQQQAABbwiwOK43xiEzUegn902aNMnMpX+7plChQlZypW7duqILi2r59ttv5YUXXpC9e/f+7XweQMDrAoFky44dO1wLtXLlyqJfn332mRw+fNi1dmkIAQSiQ4BkS3SME1EigAACCCBgi0BgcdxIbY9qSydirJITJ05YPW7QoIHol11Ft5L+5ZdfZMGCBTJ37lxZtGiRXVVTDwKuC2gyUhOFycnJrrWts1q0cAuRa+Q0hEBUCZBsiarhIlgEEEAAAQTCE2BmS3h+kbj60KFD1jbMJUqUsK3548ePWwmWffv22VYnFSEQSQGd2bJlyxbXQmBhXNeoaQiBqBUg2RK1Q0fgCCCAAAIIZFyAmS0ZN/PCFXPmzPFCGMSAgCcF9Fa4ggULyrx581yLj4VxXaOmIQSiVoDdiKJ26AgcAQQQQCBaBOLi4jwTao0aNeTAgQPCjAbPDAmBIIBAmAJu70SUJUsWa7bZsWPHZNKkSWFGz+UIIOBXAZItfh1Z+oUAAggg4BmBU6dOeSKWatWqyeWXXy5TpkzxRDwEgQACCNghcMkll1jVbN++3Y7qLlpHixYtpHz58vLJJ5/IkSNHLno+JyCAQGwKkGyJzXGn1wgggAACMSjQtm1bq9fjx4+Pwd7TZQQQ8KtAzZo1ra6tXbvW8S7qrJYuXbpY2z0PHTrU8fZoAAEEoleAZEv0jh2RI4AAAgggkG6BnDlzin4au379elm+fHm6r+NEBBBAwOsCDRs2lMTERFm2bJnjoQZmtYwcOVL279/veHs0gAAC0StAsiV6x47IEUAAAXcEXjTNPGS+Rph1R+q50ySt2C9w5513Sv78+YVZLfbbUiMCCEROQHfpqlixougi0rqduZOFWS1O6lI3Av4TYDci/40pPUIAAQTsE2htqnrm9OKuBczPU83PCd5Yf8S+TtpQUxVTR5kQ9QT+tQ18D3GqE4eqVKkivXv3ll27dslnn33mRBPUiQACCNgqUP7SSyVv3rwh69T1sKqaRb+1zJw50/ru5H8Cs1ref/99ZrU4CU3dCPhEIEIv+3yiRzcQQAABvws8fF4HdT7kMpNwcfbDw/MaPe/X1mclezS+zqeTQeeddtFfW51Vz6Pm7E6ZrEcbusJ8hbr8lDm425xTUk92txQuXFgGDRokuiPSE088YU21dzcCWkMAAQQyJpBgZuE917lzui4qahb9TktLk1mzZqXr/MyelDVrVtZqySwe1yEQowIkW2J04Ok2AgggkC4BnQTR+Kwz08zPVc9KUpx1yNUfa51u7UPz/UMb4vnA1PNBGPU0MNeXM1/BSlZT97/MwZ3BTnDmcZ3y3r9/fylZsqT06tXLlfUMnOkJtSKAQCwJHDx0SLb98YcsWLxYjiUlBe16FpMAGfTBB9Zzm67Z4mTp2LGjtQORJq9Zq8VJaepGwD8CJFv8M5b0BAEEELBfYKSpspFJFLQ1MzNSzM+PhpGQsD8679Q4x4SiX8FKDnNAky0ngp3gzONdu3aVOnXqyLhx47h9yBliakUAAYcEjhw9Kj8vXSqJJvESrNSvX19y584tM2bMCHaKLY9fddVV1qyWDRs2yLvvvmtLnVSCAAL+FyDZ4v8xpocIIIBAeAJ6q84B8/W1SbQ4+3o2vDi5+hyBevXqSWczDV+3Qn3ppZfOOcYvCCCAgB8EGjVqZHXDyfVa9PahN954Q3SmYI8ePeT48eN+oKMPCCDggoDefU9BAAEEEEAAAR8JFC1aVN566y1JTk6Wbt268ebAR2NLVxBA4C+Bxo0by+7du2X16tV/PWjjT5po0efSSpUqybBhw2SpmWlDQQABBNIrQLIlvVKchwACCCCAQBQIFChQQAYMGCBFihSRf/3rX7Jx48YoiJoQEUAAgYwJlCtXTi41OxY5NaslkGjRHYimT58uffv2zViAnI0AAjEvQLIl5v8EAEAAAQQQ8ItAs2bNZNq0aVKrVi0ZNWqUTJ482S9dox8IIIDAOQI6q0WLE8mW8xMtXbp0kZMnT57TPr8ggAACFxNgzZaLCXEcAQQQQACBMAV022WnSrZs2aRKlSrSoUMHadWqlRwyi0nqugLjx493qknqRQABBCIuoOu1nDhxQubOnWtrLHXr1pWnn35aatSoYc1oIdFiKy+VIRBTAiRbYmq46SwCCCCAQCQFihcvLk2bNrUlBL1d6MYbb5TAbhxaqX7C26dPH9m1a5ctbVCJdwSuueYa0bV47Cq6yOdis61uUohtde1qi3oQsFsgT548ct1118nWrVutHdfsqF/rvOeee6yZgampqTJmzBh58cUXmdFiBy51IBCjAiRbYnTg6TYCCCCAgHsCOv1cX7xfe+211pddLaelpcmSJUtkwYIF1qe7P/30k11VU4+HBOLj4+Xzzz+3dkOxMyxNtMyZM+fM349ua0tBIBoEKlasKNmzZ5fLL79c3nvvPdtC1ufpCRMmWNs7b9682bZ6qQgBBGJTgGRLbI47vUYAAQQQcFFAX8DrbT6XXHKJba2mpKRYb5J1Jw6KvwVy5MhhJVo0maZvBO0ohQoVEl3jR2dH6XctY8eOlVdffVWOHj1qRxPUgYBjArorUNeuXSVv3ry2taHJ60WLFsmWLVtsq5OKEEAgtgVItsT2+NN7BBBAAAGXBBYuXCj6RUEgswK6s5TOcLGrvP/++5KQkGDdNvHQQw9J+/bt5YYbbpDevXvLjz/+aFcz1IOA7QKawJ46dart9VIhAgggYKcAuxHZqUldCCCAAAIIIIBAFAkcPHjQWgT03nvvlZdeekkKFiwoH330kTz22GNR1AtCRQABBBBAwHsCJFu8NyZEhAACCCCAAAIIuCpw6tQpGTFihNx6662yfv166d69u20Lj7raERpDAAEEEEDAIwIkWzwyEISBAAIIIIAAAghEWkB3d+ncubPobkX9+vWTIkWKRDok2kcAAQQQQCAqBUi2ROWwETQCCCCAAAIIIOCMgO5K9Pzzz1tbTfft29f2XZCciZpaEUAAAQQQ8JZAWAvkxsXFScM6dayVwPObbQkPHzkiX0+fLjoVlYIAAgiEEjhsdrvQT049U/aaSDy0AYc+nx43u814puwxkRzzTDRy6PBhSTlxIvyAdCOfpPCroQYE/CbwxRdfSO3ateWuu+6yZroMHDjQb12kPwgggAACCDgqEFay5bpq1eTEyZNWgkWjvLVpU7nG7Hu/bPVqR4OmcgQQiH6B72bN8lYn+nkrSTz1hx+85fO6t3y+/O47e3z+661+2dMpaok2gXJmS/CE/PmDhq07BmnJksXdCckvvviiVK1a1dpid9myZTJ79uygMXIAAQQQQAABBM4VCCvZonvbr1izRmrXqCEtTKIlm3kRkD1nTmmbxMeE5zLzGwIIIIAAAggg8HcBnSVc7CLrouQwr620FDyddPl7Lc48kpycLE888YRMnDjRWr/ljjvukC1btjjTGLUigAACCCDgM4Gwki0HDx2SSlddJTPnzZOFv/witatXF33RsMD8TEEAAQQQQAABBBC4uEDFK68MmUjJb5IsDVq0kETzusvtsmnTJnnmmWfkvffekyFDhkibNm1EkzAUBBBAAAEEEAgtEFayZemqVdLW/OPfxmwTeMzMZklNTZXpc+aEbpGjCCCAgBFoVK+ebN+5U37buNEbHh3jRJaYW0oWeiOcpg0ayO+bN8tGr3yK3NX4zDM+i73hc3OjRrLmt99ky/bt4QX0jOnXdNOv5eFVw9UIhCOgf8uhSuHCha3D+jorEmXGjBkyePBga+0W3Rp6woQJkQiDNhFAAAEEEIgqgbBu/tV/9D+dPNma2fLz0qVWooXFcaNq/AkWgYgJFCpQQPLkzh2x9v/W8CXmkQJ/ezRiDxQuWFBy58oVsfb/1vCl5pHgS0r87XSnHyhSqJDkssOnnIk03uloqR+B6BcYPny4nDCLUrdt2zb6O0MPEEAAAQQQcEEgrGRLIL79iYmy78ABdiEKgPAdAQQQQAABBBDwkUCiea33g1m4+7rrrpMyZcr4qGd0BQEEEEAAAWcEbEm2OBMatSKAAAIIIIAAAgh4RWD8+PHW2ny6bgsFAQQQQAABBEILkGwJ7cNRBBBAAAEEEEAAASMwa9Ys2bdvn7Rs2RIPBBBAAAEEELiIAMmWiwBxGAEEEEAAAQQQQECsjRB+MTtOlitXTnLkyAEJAggggAACCIQQCGs3ohD1cggBBBBAAAEEzhKoVKmSlCpV6qxHwvsxJSVFFi1aJEePHg2vIq5GIAMCuhV0lixZ5JJLLpENGzZk4EpOzahAPbNrX968eTN6WdDzdROL5cuXy+7du4OewwEEEEAAAfsESLbYZ0lNCCCAAAIIXFAga9as8vnnn0v27NkveDyzD2rCZe7cuTJ//nzra82aNZmtiusQSJfAZrMlvRad3UKyJV1kmTqpcuXKMmLEiExdG+oifc4YN26cDBkyRHbt2hXqVI4hgAACCIQpQLIlTEAuRwABBBBA4GICmmzRRMuyZctk1KhRFzs9XccTEhLkpptukhtuuEEaN25sXTN58mR56aWXRHeOoSDghIDObNFy6aW6HzzFKQFNZGliRGehDBgwwJZmcuXKJe3bt5f77rtP2rVrJyNHjpQ33njDuj3MlgaoBAEEEEDgHAGSLedw8AsCCCCAAAL2C8TFxVmVbtu2TSZMmGBbA8OHD7duM6hVq5b1Buq2226TunXrygsvvCDfffedbe1QEQIBgUCyRWe2UJwTSEpKkoULF1r/P3/77bdy5MgRWxobPXq03HjjjfLkk0/Kww8/LCVKlJBnnnmGhIstulSCAAIInCvAArnnevAbAggggAACUSWga7bMnDnTeuPUs2dP0U+vBw8eLM8++2xU9YNgo0NAbz1JTk5mZosLwzVjxgzJli2b1K9f39bWpk+fLnfccYfo9xYtWshbb70lOvuOggACCCBgrwDJFns9qQ0BBBBAAIGICei6MM2bN5eVK1dKp06dpGnTphGLhYb9KaCLrG7ZssVas8WfPfROrzSJqqVRo0bWdzv/c/LkSenSpQsJFztRqQsBBBA4T4Bky3kg/IoAAggggIDdAvoG1a2iMw86d+4sBw8etNZjKF26tFtN006MCOgiuSVLlmT7Z4fHW5NaGzdulIYNG0rgVkQ7mzw/4fL000/bWT11IYAAAjEvQLIl5v8EAEAAAQQQ8JvA9u3b5bnnnhNdRFcX19RbESgI2CVw9vbPdtVJPRcW0NktRYsWFd2dyImiCZeuXbuK7mT26KOPyjXXXONEM9SJAAIIxKQAyZaYHHY6jUBkBVo1ayZNGzSQh82uCJWuvjqywdA6Aj4V+P7772XYsGFStWpVK/Hi027SrQgInL39cwSaj6kmnbyVKAB54sQJ6zlCZ+C9/vrrzFgKwPAdAQQQCFOAj7rCBORyBBDImEClChWkpdkJQUs2syBftwcflMd79MhYJZyNgMcEyppbdQoXLBg0Kt32WUvWLO5+xqHbutasWVMeeughWbp0qUyZMiVojBxAIL0CgR2J6tWuLfvNbWvBSpp5877ObGGcZBbUpfxdoLzZ0Sl/vnx/P3DWI8lmFyJdBFvXbRk4cOBZR+z9UWe2DBo0SLp16yZPPPGEvP322/Y2QG0IIIBADAqQbInBQafLCERS4Hrz4vycYrbEfa1XL0kxU5kjVQZ9/LHslD1W83XNG9NbmjSJVChWu++Y7XwD5Xqzpe/N5kV2JMuADz+UvXLACqGBGb+bbrghkuFYbeePj5fKFSvKiZSUTMfS74MPTK8OWtc3MtslNwljx49iRYqEXFMhy+kkS0L+/JmONzMX6i0Cun7LpEmTrE+sN5g3vr/++mtmquIaBM4I7Nnz5/NlE/NcUKZAgTOPX+iHo8eOyRGTLKCcK6DPCUULFz73wSC/rV+3TqqYGWqFzfn79u0Lclb4D2uypWXLllZy9mPz7+KBA38+74dfMzUggAACsSlAsiU2x51eIxAxgfm//CI1q1Q5075OW+5jPn1PTU0981hkfoizmp2/eLHol1fK3J9/Fv2KfPnTZ87ChaJfkS73tmkjPy9bZn1qHl4sf/Zr5vz5ol+ZLVdedpkULlQo6OXZzMyWxrcJ7/j6AABAAElEQVTfLgcPHw56jlMHdu7cae068sknn8iQIUOkVatWcsR8Wk5BILMC+qZfy48LFsjXX34ZtBp9fl9tknuHSbZc0EhnesabxHGoooZXmsRy1erV5QaT3Jo4cWKo08M6psnZd955x9oK+pFHHpE333wzrPq4GAEEEIh1AZItsf4XQP8RcFlgxapV8oN5U9vIzJDQBMtIs1Vt5BMtLiPQnO8Efvv9d9GvYCVHjhzWoUj9rf9sEnb6xqlnz55y5513ykcffRQsVB5H4KIC5cztL1pm/fijLPBQctoKKor+s8rMWElP+X3bNvn3f/4jjRs3djTZorF89dVX1my4++67T4YOHcrslvQMEOcggAACQQTcvXk8SBA8jAACsSUwznwy993s2fLB6NGycMn/b+9O4K2q6sWB/xgEBEUQ0XLsaZljCIrirJlTWKnYPLzn8JK0fDZZ+cr375Vlk2VOTWrZk0xDfQ6UZqamIjiAJuKYL0lRwQQEmbn/vc7r8PDCHc9w9z7nuz6f4z3n7L3X+q3vOoDnd9dea1pzdV5vCfSQwBVXXBGvZbd0jBs3roci0GyjCGyzzTalrpQXym2UfuW1Hy+99FI8+uijsV92q2OfbK2zWpZVq1bFhRdeGAMHDow0u0UhQIAAge4LSLZ0386VBAgQIECgMAKLFy8uLZC7Y3ZLQnooBLorkGa2pNtbnn322e5W4bouCqRdiQZnaz6NGjWqi1d2/fQ0uyWt75RmtwxtZ+HvrtfsCgIECDSXgGRLc4233hIgQIBAEwtMnDix1PtjszVvFALdFUjJlrQW0NKlS7tbheu6KJBuBUxlp5126uKVXT99zdktJ554YtcrcAUBAgQIlAQkW3wQCBAgQIBAjQV6Zbtu5aHcf//9MWvWrNKOI3mIRwzFE0if5a233jrK2z8XrwfFjDj9uU1lyy23rEsHyrNbPvaxj3W4iG9dAtIIAQIECigg2VLAQRMyAQIECBRLIN1ykYeS4ki/IR8+fHgM6WDL3jzEK4b8CWy66aax/vrrS7bUeWhmz55dunVriy22qEvLaXbLpZdeWlq75T3veU9d2tQIAQIEGk1AsqXRRlR/CBAgQIBAOwLlGQnpVhCFQFcFLI7bVbHqnL9s2bKYM2dO3Wa2pKhvyLb1XpRt2/2BD3ygOp1QCwECBJpMQLKlyQZcdwkQIECguQXKO8iUvzQ3t4bed1WgnKQrJ+26er3zuy/wt2wL6HrNbElRpt3LUsJlhx12iN122637gbuSAAECTSog2dKkA6/bBAgQINCcAuUvyeUvzc2poNfdFSgn6cpJu+7W47quC6Rky0YbbRSDBg3q+sXdvOJXv/pV6UqzW7oJ6DICBJpaQLKlqYdf5wkQIECg2QTKX5LLX5qbrf/6W5lAStLZ9rkyw+5e/dxzz5UurdciuamxGTNmxCOPPBJjx461UG53B851BAg0rYBkS9MOvY4TIECAQDMKLFy4MF5++eUws6UZR7+yPvfp0ydGjhwZzz77rG2fK6Ps1tVpZksq9byVKLV35ZVXlhZFtlBu0lAIECDQeQHJls5bOZMAAQIECDSEQJrdItnSEENZ107su+++kXYjuummm+rarsb+V6AnZraklq+//noL5foQEiBAoBsCki3dQHMJAQIECBAoskBat2Xw4MG2fy7yIPZA7OPGjSu1es011/RA65osz2yp521ESX3NhXJHjBhhIAgQIECgkwKSLZ2EchoBAgQIEGgUgfK6LWa3NMqI1r4fKTn3jne8Ix544IEoL7Jc+1a1sKbA888/X1ovp963EaUYrrrqqlIoRx999JoheU6AAAEC7QhItrSD4xABAgQIEGhEgfKXZYvkNuLo1qZPH/nIR6J///4xceLE2jSg1g4Fli1bFnPmzIl6z2xJgT388MMxa9asOPzww6N3b18fOhwsJxAgQCAT6EuBAAECBAgQaC6BcrJl7z33jFl/+UubnU+7zjz5zDOxcNGiNs9xoHKBbbfeOoZkW/q2VdJ2v6n01JfcvffeO/7t3/4t0ufmhhtuaCtM79dBIN1KtO2229ahpbWbmDRpUpx88snxwfe+N2Y++ujaJ/zjnVWrVsVjTz0VS5YubfMcBwgQINAMApItzTDK+kiAAAECBNYQePHFF0uv9hkzJoaut94aR9Z++trixfFqtoORUhuBXr16xaabbNJu5f2yGSWpDG0nIdNuBRUcTLes/PCHP4wlS5bE+PHjY3H2eVB6TiDNbBk1alT07ds3VqxYUddAHsxuIUvlox/6UPz18cfbbXvBq6/G4uwzU0lJCciBAwfGvAULKqnGtQQIEOgxAcmWHqPXMAECBAgQ6BmBtKNMKlPuvz9+8+tftx1ENrNlZvYb6vTFSamdwFu3267dmS2Dsy+d+48dG/Pmz69dEOuoeb0sEXfhhReWFlI+9dRT46nss6D0rMDw4cNj3rx5dU+0pF6PzJI8qfz6N7+JR2fMKD1f13/SjLhHHnssUqJWIUCAQDMLSLY08+jrOwECBAg0pUB5Ydx77r03pjz4YFMa5KnTjz/9dLvhDBs2rHR8ZXZ7Rj3LmWeeGbvsskv8+Mc/jltuuaWeTWurDYG0XktaKLcnypFHHhlz586NX1xxRaRbhRQCBAgQaF/AClft+zhKgAABAgQaTqC8MG557ZaG66AOVSxwxBFHxEc/+tG4P5v9dO6551ZcnwoqF0gzjdLMlvIW0JXX2Pkadtppp0h/b9x8880SLZ1ncyYBAk0uINnS5B8A3SdAgACB5hMoz2yRbGm+se9Mj7fOFuz95je/Ga+88kqcfvrpsXLlys5c5pwaC6T1c9IaP88991yNW1q7+ve///2lN6+//vq1D3qHAAECBNYp4DaidbJ4kwABAgQINK5A+g31q9k6LOnLtEJgTYHNNtustE7LBhtsECeddFK88MILax72vAcFUrIllXrPbFl//fXj3e9+d2nNngf+sUhuDzJomgABAoURMLOlMEMlUAIECBAgUB2BNLPFrJbqWDZSLePGjYvf/va3seOOO8YFF1wQd9xxRyN1r/B96alky1FHHRUbbrhhXHnllYU31AECBAjUU8DMlnpqa4sAAQIECPSwwKBBg2KTbKvhe7PFcRUCAwYMiJEjR8aJJ54YBx10UGkB1FNOOcWCuDn8aKTFcVOp921EH/jAB2Lp0qVx7bXX5lBFSAQIEMivgGRLfsdGZAQIECBAoOoCFsetOmndKtxqq60iLVxbjbLxxhvHYYcdFnvttVekhVdTueGGG+KrX/1qaWvharShjuoK9MTMljTLacSIEXHdddfF/DpvPV5dPbURIECg/gKSLfU31yIBAgQIEOgxgfLiuH/96197LAYNd01g+fLl0dLSEvvuu2/p0bWr2z57xYoVMWXKlNIsp7vvvjsefvjhtk92pMcF0syWlPBYuHBh3WJJs1pS+dWvflW3NjVEgACBRhGQbGmUkdQPAgQIECDQCQEzWzqBlLNTFixYEB/5yEfiDW94Q9UiS7eFTJ482WyFqonWvqKUbKnnLUTlhXGffPLJsDBu7cdXCwQINJ6AZEvjjakeESBAgACBNgXKM1sskNsmUS4PpBkoSvMKpFu9hg8fHg899FDdEMoL4/7gBz+oW5saIkCAQCMJ2I2okUZTXwgQIEAglwK9evXKTVy77757vPzyy7Z9zs2ICIRAxwKbb7559O7du24zW9LfWccff3wsXry4tF5LxxE6gwABAgRaC0i2tBbxmgABAgQIVFkgrbeRhzJq1KhIM1tuuummPIQjBgIEOimQFkdO5W9/+1snr6jstLQQ8/bbbx8TJkxwq1lllK4mQKCJBSRbmnjwdZ0AAQIEmktg3LhxpQ5PnDixuTqutwQKLpBmpKUyc+bMmvckzWo57bTTSrNafvrTn9a8PQ0QIECgUQUkWxp1ZPWLAAECBAisITBgwIAYO3ZsPP744zFjxow1jnhKgEDeBQ466KDSLkQPPvhgzUNNs1re8pa3lHYgmjt3bs3b0wABAgQaVUCypVFHVr8IECDQoAIfOvro2G/PPeOUf/mX2P7Nb27QXla/W+9///tjgw02CLNaqm+rRgK1FNhkk01il112ibvuuivSdt21LGvOavnJT35Sy6bUTYAAgYYXsBtRww+xDhIgQKBxBPbeY484cJ99Sh1av3//+PS//mt84gtf6PEOvilbT2HY0KFtxpF2EkmlT7bAZU+U3XbbLb74xS/G888/L9nSEwOgTQLrEHjLttvG4CwB2l5ZtWpV7LjrrpGSIH/84x/bO7Uqx8qzWi655JIwq6UqpCohQKCJBSRbmnjwdZ0AAQJFExjzj3ULynH3zr6AnP35z8fK8htd+Pn9bC2CV2J+6YqD9t473r7ffl24+vWnbpr95jl9GWqrpF1EUtlo8OC2TqnZ+5tuumlcdNFFkb60nXLKKRa7rJm0imsl8NXsz3jfPn1i5cru/EmvVVSV1Zv+Thg+bFinKhmWLWqdFtm+4447OnV+d0/qkxlbq6W7eq4jQIDA2gKSLWubeIcAAQIEcipw37RpscN2262OLiUQ/v0731n9uutP/jdBcvvkyZEe3S3bbbNNDNt44zYvTzNbDs5uf5r/6qttnlOLA+nL03nnnRcp4fK5z30uHnnkkVo0o04CNRV48aWXYuKkSfHinDk1bafele+YrYuyYQczW1JS5sfZLJP0Z7fWM00+/vGPl9Zq+dGPflTztuptrT0CBAj0hIBkS0+oa5MAAQIEuiVw19SpsW32W959si2Mly5fHj+54opu1VPti57+618jPdoq/fr1Kx2q92/mP/3pT8fo0aPjiszpuuuuays87xMg0AMCM598ssNW99prrxiUJWRqfQtRWhA3zWp55pln4oILLugwLicQIECAQMcCki0dGzmDAAECBHIkcPlVV8XKbJHI+x56KJ54+ukcRZavUA444IA4+eSTSzsPnX322fkKTjQECHRK4OCDDy6dV8tbiNIMuG9/+9uRfn4hWwNryZIlnYrNSQQIECDQvkDPrNTXfkyOEiBAgAABAhUIbLbZZvG9730vFi1aFJ/61Kdi2bJlFdTmUgIEekogJVtefvnlePjhh2sSQkqwnHvuubFrtgjvZZddFvXYWromHVEpAQIEcigg2ZLDQRESAQIECBDorsCwbNHNdBvA0Gx3pC996Uvx7LPPdrcq1xEg0IMCW265ZWyXrVF15513lhbIrXYo5UTL2LFj49Zbb43vVLT+VbWjUx8BAgSKLyDZUvwx1AMCBAgQIFASOOqoo+Lmm2+OkSNHln5L/dvf/pYMAQIFFTjooINKkddivZbWiZZPfvKTsSK7PVMhQIAAgeoJWLOlepZqIkCAAAECdRfo379/KbnysY99LA477LCYN29epIVxb7jhhrrHokECBKonkG4hSotq33XXXdWrNKtpv2yb+/R3xIgRI0ozWiRaqsqrMgIECKwWkGxZTeEJAQIECBCorcAb3/jGOPLII6vSyJAhQ+LQQw+NMWPGRHm3o1tuuSXOOuss27ZWRVglBHpOYMCAAaU/27Nnz4599923KoGkOj/4wQ/GqGw3t5TESbuUfe1rXzOjpSq6KiFAgMDaApIta5t4hwABAgQIVFUgfbFJj/QlJz2qVVKdU7PtsCdPnhz33HNPTJ8+vVpVq4cAgR4UePOb3xxp1lpat+X888+vWiTp74yrr746Lrzwwvjb3/5WtXpVRIAAAQJrC0i2rG3iHQIECBAgUFWB9AXnAx/4QOmLU7UqXr58edx7772l24aqVad6CBDIh8CMGTPi4x//eAwaNKiqAU2bNk2SpaqiKiNAgEDbApItbds4QoAAAQIEqiaQvuSkh0KAAIGOBFpaWuK2227r6DTHCRAgQCDHAnYjyvHgCI0AAQIECBAgQIAAAQIECBAonoBkS/HGTMQECBAgQIAAAQIECBAgQIBAjgUkW3I8OEIjQIAAAQIECBAgQIAAAQIEiicg2VK8MRMxAQIECBAgQIAAAQIECBAgkGMByZYcD47QCBAgQIAAAQIECBAgQIAAgeIJSLYUb8xETIAAAQIECBAgQIAAAQIECORYQLIlx4MjNAIECBAgQIAAAQIECBAgQKB4ApItxRszERMgQIAAAQIECBAgQIAAAQI5FpBsyfHgCI0AAQIECBAgQIAAAQIECBAonoBkS/HGTMQECBAgQIAAAQIECBAgQIBAjgUkW3I8OEIjQIAAAQIECBAgQIAAAQIEiicg2VK8MRMxAQIECBAgQIAAAQIECBAgkGMByZYcD47QCBAgQIAAAQIECBAgQIAAgeIJSLYUb8xETIAAAQIECBAgQIAAAQIECORYoG+OYxMaAQIECBAgQIBAJjB69OjYdNNNq2axdOnSmDJlSrz66qtVq1NFBAgQIECAwP8JSLb8n4VnBAgQIECAAIHcCWy44YYxYcKE6NWrV1VjW758eUyePDnuvffeuOuuu+LRRx+tav0qI0CAAAECzSwg2dLMo6/vBAgQIECAQO4F+vXrV0q03HPPPXHVVVdVJd6NN944DjvssNhnn33igAMOiDPOOCOuu+66+NrXvhbz58+vShsqIUCAAAECzSwg2dLMo6/vBAgQIECAQGEEnn322bjxxhurFu/ll18e66+/fuy+++5x4oknxtFHH11Kvnz5y1+O2267rWrtqIgAAQIECDSjgAVym3HU9ZkAAQIECBAgkAksXry4dAvR8ccfH2eeeWYMHDgwfvKTn8SnPvUpPgQIECBAgEAFApItFeC5lAABAgQIECDQKALpFqUjjzwyHnvssTjttNNiv/32a5Su6QcBAgQIEKi7gGRL3ck1SIAAAQIECBDIp8Ds2bPj1FNPjddeey3OPffcqu6AlM8ei4oAAQIECNRGoCrJliGDB0d6KAQIECBAgAABAsUW+Otf/1q6pSgtonveeedFnz59it0h0RMgQIAAgR4QqCjZkrYgPGT//WPvbGG1ww46KI7Jpp727l1RlT1AoEkCBHpCYP6CBbF4yZKeaHrdbc7O3n513Yd64t152W4gS5Yu7Ymm193m89nbC9d9qCfefSXzWVoNn+ey6Bf1RA+0SSDfAjfddFNcccUVMXr06Dj99NPzHazoCBAgQIBADgUq2o1ozKhRsWjRovjDgw+WunbYgQfGiJ12immPPJLDrgqJAIE8CfzhrrvyFE7EBS25iueWO+7IVTxxbr58Jv3hD9Xx+Va++lWdTqmlaAJv+ad/iiEbbdRm2IP/caxPnX+hdfbZZ8fIkSNj/PjxMX369PhDtf7ctdlTBwgQIECAQOMIVJRsSdsFPvzoo7FXlnQZe8ghpWmm/fr1K81waRwiPSFAgAABAgQI1EYgzRLedJNN2q28X//+pePtJWTaraCbB5ctWxannHJKXHfddfG9730vxo0bF08//XQ3a3MZAQIECBBoLoGKki2vzJsXI3fZJX5/550xJZvdkm4nWrVqVUyZNq25FPWWAAECBAgQINBNgTe/6U3tzmzZKJvZsv/YsZFun6t3+dvf/la6jeiSSy6Jiy++ON7znveUtouudxzaI0CAAAECRROoKNnyUDar5egjjoj3vutdsShbtT6tv3D7PfcUzUC8BAj0gMAh2Zais7JdL57Iy29JP9kr4sHslpKc/BWW1sF6+pln4ulsocpclM9kPn/KfO7LRTTxzmw25Ywnnoi/zppVWUBfyPp1c9av6ZVV42oClQg89T//0+7lw4YNKx1Pv9DqiXJXdtvn+eefX0q6HHXUUXH11Vf3RBjaJECAAAEChRKoaDXb9I/+NZMmRVpb4O777os/3n13tLS4/71QnwDBEughgY2yHczWHzCgh1pfR7NvzN7bcB3v99BbaYe3Af+4daCHQnh9s5tnLzd4/Vs9+Wpo9pv+/tltqxWXLbIaBlVciwoINLzAL3/5y0i3FaVbiRQCBAgQIECgY4GKki3l6tOuIumhECBAgAABAgQINJ7A/OwWpltvvTX22GOP2GabbRqvg3pEgAABAgSqLFCVZEuVY1IdAQIECBAgQIBAzgQmTpxYiujYY4/NWWTCIUCAAAEC+ROQbMnfmIiIAAECBAgQIJA7gbR2y0svvRRjs8V6FQIECBAgQKB9AcmW9n0cJUCAAAECBAgQyARWrlwZ07IdJ9NtRP3ztKaU0SFAgAABAjkUqGg3ohz2R0gECBAgQCCXAiNHjowtt9yyarGlxUqnTJkS8+bNq1qdKiLQkcBfsx3SevXqFVtttVU89dRTHZ3uOAECBAgQaFoByZamHXodJ0CAAIF6CfTp0yeuvPLKSD+rWdJMg6lTp8bkyZPjnnvuienT7WFdTV91rS3wP//YpvpNb3qTZMvaPN4hQIAAAQKrBSRbVlN4QoAAAQIEaiOQkizp8eCDD8bPf/7zqjQyZMiQeMc73hFjxoyJvffeOz7zmc/ELbfcEmeddVbMnTu3Km2ohEBrgTSzJZWUbFEIECBAgACBtgUkW9q2cYQAAQIECFRFIN12kcrs2bNj0qRJVakzVTJhwoTS2hnpFqWPfexjcdhhh8Wee+4ZX/3qV+OGG26oWjsqIlAWKM9ssf1zWcRPAgQIECCwbgEL5K7bxbsECBAgQKBqAi0tLVWrq3VFS5cujXvvvTdOOeWUOP3000uHv//978e///u/tz7VawIVC6TdiBYvXmxmS8WSKiBAgACBRheQbGn0EdY/AgQIEGgagRtvvDGOOOKI0totxx9/fBx55JFN03cdrY9AShw+++yzpR2J6tOiVggQIECAQDEFJFuKOW6iJkCAAAEC6xRI67Wceuqp8corr8Q3v/nN2Hrrrdd5njcJdFcg3Ur0xje+0fbP3QV0HQECBAg0hYBkS1MMs04SIECAQDMJvPjii/HZz342Bg0aFOeff37069evmbqvrzUWWHP75xo3pXoCBAgQIFBYAcmWwg6dwAkUV+B973pXHHrAAXHShz4Uo3bdtbgdETmBHAvceeed8eMf/zh23nnnOPPMM3McqdCKJlBeJNeOREUbOfESIECAQD0F7EZUT21tESAQu+6wQxyy//4liX69e8fHP/KRGP+FL5AhUGiB7bbZJoZtvHGbfVhvvfVKx9L2z/UsaaHcPfbYIz6S/TmbPn16XHfddfVsXlsNKlDe/nn/ffaJBS+/3GYv0/oujz7xRCx67bU2z3GAAAECBAg0qoBkS6OOrH4RyKnA3qNHvy6ytCXuOV/6UixbseJ179f7xc2j74h/Gr5VbP+2bevd9FrtXXDZZavf2zfzOvygg1a/7oknP7zkkpgbr5Sa3n+vvUqzknoijnKbP/jZz8pP48AxY1Yn71a/2YUn14/4fbyt947xpn227MJVa5+66SabRHl757WPRvTOEoupbLThhus6XLP3Vq5cGaeddlopyXL22WfHk08+GTNmzKhZeypuDoG0LlAqB2TJljdssEG7nV64aFHFyZbBgwfHRtnjxTlz2m3LQQIECBAgkCcByZY8jYZYCDSBwN333Re7r3nrUPabzy9mi3j2eBnSK+6+c2rEzT0eyesCSF7p0fOlVymEP02ZEumRl3JHtuVxenS7bNUr7v/19Ii7u11D6cI3bbVVDBs6tM1K0syWg48+OuYvWNDmObU6kLbqTdtC/+pXv4qLL7443pXdxjd//vxaNafeJhAYPnx4qZe333VX3Hj99W32OM1seeypp+K1bKtohQABAgQINJuAZEuzjbj+EuhhgRmPPRa/u/320uyI5dlslssmTOjhiDRPoHKB/5k1K9KjrdK/f//SoZWrVrV1Sk3fT7cQnXPOOfGVr3wlxo0bF5deemlN21N5Ywtsk902l8pdkyfHAw8/3Nid1TsCBAgQINBNAQvkdhPOZQQIdF/g2kmT4tZs8c5Ls9+0T3/00e5X5EoCBRFIv+Hv6fLrX/86Fi5cWEq29HQs2i+2QHlh3PJCucXujegJECBAgEBtBCRbauOqVgIECBAgkCuBJUuWxE033RRvfetbSzsU5So4wRRKIM1sWZXN0prVzmyuQnVIsAQIECBAoAYCki01QFUlAQIECBDIo8DEiRNLYaVbiRQC3RVIM1tmz54dy5Yt624VriNAgAABAg0vINnS8EOsgwQIECDQ0wLt7VRUz9gefPDBSLd+jB07tp7NaquBBNJneeutt47y9s8N1DVdIUCAAAECVRWQbKkqp8oIECBAgMDaAnlYs6Uc1QMPPBDDhg2LjTfeuPyWnwQ6LbDZZpvFgAEDSkm7Tl/kRAIECBAg0IQCki1NOOi6TIAAAQLNK1Be1LS8o0zzSuh5dwTKi+Oa2dIdPdcQIECAQDMJSLY002jrKwECBAg0vUD5S3L5S3PTgwDokkA5SVdO2nXpYicTIECAAIEmEpBsaaLB1lUCBAgQIFD+klz+0kyEQFcEykm6ctKuK9c6lwABAgQINJOAZEszjba+EiBAgEDTC5S/JJe/NDc9CIAuCZS3fX722We7dJ2TCRAgQIBAswlItjTbiOsvAQIECDS1wKJFi2Lu3LlhZktTfwy61fk+ffrEqFGjSjsR2fa5W4QuIkCAAIEmEpBsaaLB1lUCBAgQIJAE0q1EZrb4LHRV4IADDohNNtkkbrzxxq5e6nwCBAgQINB0ApItTTfkOkyAAAECzS6QbiXacMMNY+jQoc1Oof9dEBg3blykbcyvueaaLlzlVAIECBAg0JwCki3NOe56TYAAAQJNLFBeJNfslib+EHSx60OGDIlDDjkk7r///pg1a1YXr3Y6AQIECBBoPgHJluYbcz0mQIAAgSYXsEhuk38AutH9f/7nf4711lsvJk6c2I2rXUKAAAECBJpPoG/zdVmPCRAgQIBAcwuUZ7bsM2ZMPJ/dUtRmyW4ZmfnUU7Hg1VfbPMWBygW23267GLrRRm1WNPgfx/r07pnfkaW1Wk499dR4KvssWK+lzWFygAABAgQIvE5AsuV1HF4QIECAAIHGF3jppZdKndxrjz1icK9e7Xb4tcWL49WFC9s9x8HuC/TK/DfNFp1tr/Tr3790eEg7CZn2rq/kWNq16gc/+EGkXazGjx8fS5YsqaQ61xIgQIAAgaYRkGxpmqHWUQIECBAg8L8Cm222WenJPffeG1ddeWWbLGkx1CefeSYWZl+0ldoJbJslNIYMHtxmAxtlSZb9x46NV+bPb/OcWhzonyV5Lrzwwthggw3i5JNPjv/JdrFSCBAgQIAAgc4JSLZ0zslZBAgQIECgYQTKC+NOnjo1HvzznxumX0XtyF/au5Ur69SwYcNKXVu1alVdu3jWWWfFDjvsEOeff3788Y9/rGvbGiNAgAABAkUX6Jmbf4uuJn4CBAgQIFBggXKypbxQboG7IvQaCbz73e+O97///XFvNvspJVsUAgQIECBAoGsCki1d83I2AQIECBAovEBahyMVt4UUfihr0oFtt902vv71r8fcuXPj05/+dNR7Rk1NOqVSAgQIECBQZwG3EdUZXHMECBAgQKCnBdLMlgULFsS8efN6OhTt50xgyy23jAsuuCAGDBhQWhB3zpw5OYtQOAQIECBAoBgCZrYUY5xESYAAAQIEqiaQZraY1VI1zoaoKO2K9OEPfzgmTZoU22+/fZx77rlxzz33NETfdIIAAQIECPSEgJktPaGuTQIECBAg0EMCaWeZtODq3Xff3UMRaDZPAhtuuGHskW0BfsIJJ8Tee+8dL7zwQnzqU5+KO+64I09hioUAAQIECBROQLKlcEMmYAIECBAg0H2B8notFsftvmFPXZlu/zr66KOr0vzQoUPj8MMPj5EjR0afPn1KdV599dXxjW98I1599dWqtKESAgQIECDQzAKSLc08+vpOgAABAk0nUN6JyG1ExRn6ZcuWlRapHTNmTKRHtcrSpUtLM1gmT55cmun0xBNPVKtq9RAgQIAAgaYXkGxp+o8AAAIECBBoJgEzW4o32mmmyfve977YbLPNqhZ8SrRMnTo1XnvttarVqSICBAgQIEDg/wQkW/7PwjMCBAgQINDwAma2FHOIp0+fXszARU2AAAECBJpUwG5ETTrwuk2AAAECzSeQdpwZPXp0pO18bfvcfOOvxwQIECBAgED9BCRb6metJQIECBAg0KMCadeZrbbaKm688cYejUPjBAgQIECAAIFGF5BsafQR1j8CBAgQIPAPgXHjxpWeXXPNNUwIECBAgAABAgRqKCDZUkNcVRMgQIAAgbwIrL/++nHkkUfGzJkzS4+8xCUOAgQIECBAgEAjCki2NOKo6hMBAgQIdCxwSXbKP2ePa3pFHNHx6UU/40Mf+lAMGjQoJk6cWPSuiJ8AAQIECBAgkHsBuxHlfogESIAAAQJVFzgxq/F9WZIllYHZ45fZ8+EtpZfd+s8+2VVvaufK8r+267VzTg0PpUVxzzjjjJg1a1b85je/qWFLqiZAgAABAgQIEEgC5f/9o0GAAAECBJpH4LhWXR2QvZ6eJVxWtXq/sy/fnJ34j9zNOi9pyQ6+lB15wzqP1vTNN7zhDXHBBRfEsmXL4hOf+EQsXLiwpu2pnAABAgQIECBAQLLFZ4AAAQIEmlHgv7JO77dGxxdnz3erYGbLbtn1W61RX+unfbO6v5O9Obv1gdq+7tu3b1x44YUxbNiwOO200+Kxxx6rbYNqJ0CAAAECBAgQKAmY2eKDQIAAAQLNJ3BF1uVRWQLkhGzGyaLs+fsqSLQkven/eKTn6yr9sjdTsmXFug7W7r1069CIESPisssui0mTJtWuITUTIECAAAECBAi8TkCy5XUcXhAgQIBA0wh8NutpWkPl11mi5Z7G6/UhhxwSJ5xwQjz00EPxrW99q/E6qEcECBAgQIAAgRwL2I0ox4MjNAIECBAg0B2BLbbYIr797W/H/PnzS7cPrVhR5yk13QnaNQQIECBAgACBBhIws6WBBlNXCBAgQIDAZpttVlqnZaONNorx48fHc889B4UAAQIECBAgQKDOAma21BlccwQIECBAoFYCxx13XPzud7+LXXbZJS6++OK49dZba9WUegkQIECAAAECBNoRMLOlHRyHCBAgQIBANQR69WpvX+jKWhg0aFCMHj06PvrRj8aBBx4Yc+fOjbQw7u9///vKKnY1AQIECBAgQIBAtwUkW7pN50ICBAgQINA5gZaW/93taMstt4xjjjmmcxd1cNaQIUPi0EMPjd133z369OlTOvv666+P//zP/4x58+Z1cLXDBAgQIECAAAECtRSQbKmlrroJECBAgEAmsHLlyli+fHlpG+a0FXO1yrJly+LOO++MyZMnlx4zZ86sVtXqIUCAAAECBAgQqEBAsqUCPJcSIECAAIHOCKRkS1pPZfPNN+/M6Z06JyVv7r///li4cGGnzncSAQIECBAgQIBA/QQkW+pnrSUCBAgQaGKBGTNmRHooBAgQIECAAAECjS9gN6LGH2M9JECAAAECBAgQIECAAAECBOooINlSR2xNESBAgAABAgQIECBAgAABAo0vINnS+GOshwQIECBAgAABAgQIECBAgEAdBSRb6oitKQIECBAgQIAAAQIECBAgQKDxBSRbGn+M9ZAAAQIECBAgQIAAAQIECBCoo4BkSx2xNUWAQI4F3pDFtmmO4+vp0JLP8J4OogbtD83qTA+FAAECBAgQIECAQBUFJFuqiKkqAgQKLPCeLPZ/7lXgDtQ49KOy+j/WYD7pX8A07ic0WL9q/FFQPQECBAgQIECAQMcCki0dGzmDAIFmEVjQLB3tRj/7ZNcs7MZ1eb4k9SnlWRqtX3k2FxsBAgQIECBAoEkEJFuaZKB1kwABAgQIECBAgAABAgQIEKiPgGRLfZy1QoAAAQIECBAgQIAAAQIECDSJgGRLkwy0bhIgQIAAAQIECBAgQIAAAQL1EZBsqY+zVggQIECAAAECBAgQIECAAIEmEZBsaZKB1k0CBAgQIECAAAECBAgQIECgPgKSLfVx1goBAgQIECBAgAABAgQIECDQJAKSLU0y0LpJgAABAgQIECBAgAABAgQI1EdAsqU+zlohQIAAAQIECBAgQIAAAQIEmkRAsqVJBlo3CRAgQIAAAQIECBAgQIAAgfoISLbUx1krBAgQIECAAAECBAgQIECAQJMISLY0yUDrJgECBAgQIECAAAECBAgQIFAfAcmW+jhrhQABAgQIECBAgAABAgQIEGgSAcmWJhlo3SRAgAABAgQIECBAgAABAgTqIyDZUh9nrRAgQIAAAQIECBAgQIAAAQJNIiDZ0iQDrZsECBAgQIAAAQIECBAgQIBAfQQkW+rjrBUCBAgQIECAAAECBAgQIECgSQT6Nkk/dZMAAQJtCqy//vqx/Yq3xrL1l8XjvR+LVatWtXluMx4YOHBgbL/8rbFk4JJ4ovfjDeMzaNCgeMvy7WPxwMXxZO8nGqZfzfgZ1WcCBAgQIECAQN4EzGzJ24iIhwCBugn06tUrPvnJT8bUqVNj4sLfxA1vuT7+9Kc/xaGHHlq3GPLcUO/eveP0008v+fzm71fHjTvdELfffnscfPDBeQ67w9j69OkTn/vc5+K+e+6L1K+bdrsxbrvttth///07vNYJBAgQIECAAAECBDojINnSGSXnECDQkAKf/vSnS8mEF198Mc69/Nz4yRU/iTTb4cILL4z99tuvIfvclU6dccYZpWTUc889F9+7/Hvxswk/iyFDhsSPfvSj2HPPPbtSVa7OPfPMM2P8+PHx7LPPxncv/25c+qtLY9iwYfGzn/0sdt9991zFKhgCBAgQIECAAIHiCrRkoXsw8BnwGajrZ+DYd76zZcTOO9e1zTX/rhs6dGjLzJkzW373u9+1ZLcRrY7jzW9+c8sjjzzS8t///d+r31vzuno9f9+7392y8/bb91gMm266acvjjz/ecsMNN7T0799/dRw77rhjye3qq69e/V69TNZs58PHHtuy/XbbdTmGzTffvOWJJ55oufbaa1v69eu3+vpddtml5bHHHmuZMGHC6vfWbM9z/5/gM+Az4DPgM+AzUJzPwJmnndbSf41/541dccaukcbKzJZsNBUCBJpPYOTIkbHeeuvFL3/5y1i8ePFqgKeeeir++Mc/xs477xxpLZdmLaNGjYp0u80vfvGLWLp06WqGLEEVd955Z+y2227Rt2/xlv1K/Uq3R/385z+PZcuWre5XlmCLu+++uzSzJR1XCBAgQIAAAQIECFQi4P8oK9FzLQEChRVYuXJlKfaUUGhd0nstLS2lR+tjzfK67LOuhErySYsIJ6Oilfb6lfpa1H4VbRzES4AAAQIECBBodAHJlkYfYf0jQGCdAtOmTYslS5bECSecUFqHpHzSiBEj4u1vf3uUj5ffb7afDzzwQGnmx4knnhiDBw9e3f3Ro0eXFpK97777opy4WH2wAE/uv//+WLFiRfzrv/5rbLDBBqsjHjNmTOy9995x7733FjKJtLojnhAgQIAAAQIECORCoHhzwHPBJggCBIousGDBgjjvvPPiC1/4Qvz2t7+NdBtJSh4ccMABpa6dc845Re9iRfH//e9/Ly0UnBYRTj7ZeialJMWBBx5YcvrWt75VUf09dfGcOXNKC/ymXahSv5588snV/Uq3FX3nO9/pqdC0S4AAAQIECBAg0EACki0NNJi6QoBA1wR++tOfxmuvvRaf+cxnVm9nnL58/8d//Ec8+OCDXausAc9OuzItXLiwtGNTSrKkkpIuZ511Vvz5z38ubI9/8IMfREq2nXbaaauTa48++mh85StfifRTIUCAAAECBAgQIFCpgNuIKhV0PQEChRa44oorIi2KWy633HJLTJ06tfyy6X9efvnl8cwzz6x2SLNBGiERlRbITVs/l8uNN94YDz30UPmlnwQIECBAgAABAgQqEpBsqYjPxQQIFF3gne98Z2kHmokTJ8bTTz8daY2SbHvgoneravEfffTR8ba3vS2uvPLKUnJi/PjxkW0LXbX6e6qicePGxU477RQp2fbcc8/FKaecEsOGDeupcLRLgAABAgQIECDQYAKSLQ02oLpDgEDnBfr3719asyXdKvPtb387vvGNb8SAAQPijDPO6HwlDXxm2vr6c5/7XMyfPz+++93vxje/+c3SdtjpvSKXQYMGlW4de+WVV+J73/tepPVn0mK5n/3sZ4vcLbETIECAAAECBAjkSECyJUeDIRQCBOorkGaxbLHFFnHRRRfFyy+/HHfccUfceeedcdRRR8WoUaPqG0wOWzv55JNjs802ix/+8Icxb968+P3vf1/areeYY46JXXfdNYcRdy6kNItl+PDhUV67ZdKkSZF2KTruuONixx137FwlziJAgAABAgQIECDQjoBkSzs4DhEg0LgC6VaYdEvMrFmz4rLLLlvd0bPPPru0286Xv/zl6NWr1+r3m+3JG9/4xjjppJNKt1b913/91+ruJ5+WlpZIPkUsW265ZRx//PHxxBNPlG6NKvfh61//emm8i9qvcj/8JECAAAECBAgQyIeAZEs+xkEUBAjUWSDdMjJw4MDSrTHLly9f3XpatyWt45HWKUnrlTRrSVtip1uq0q1DaUvscpk5c2ZcddVVpXVuxo4dW367MD+/+MUvRr9+/Uq3jK3Zr7T19zXXXBN77bVXHH744YXpj0AJECBAgAABAgTyKSDZks9xERUBAjUU2GWXXeLYY4+NKVOmRNp9qHVJt82kdUo+//nPl9YoaX280V+PHDmydCvVn/70p7j99tvX6u73v//90pbQaW2btO5NUcro0aPjiCOOiNtuuy3uuuuutcJO67ekrcBTQma99dZb67g3CBAgQIAAAQIECHRWQLKls1LOI0CgYQTSrSLpVph068i6SlqfJCVcyrcareucRn0v3TqVfNKsj3TL0LpKWt/mwgsvLK13k241KkLp3bt3fOUrX4kVK1aUZuusK+aXXnopLr744thqq61Ktxqt6xzvESBAgAABAgQIEOiMgGRLZ5ScQ4BAwwikrZ732GOPuPrqqyPdEtNWSeuUNONW0O95z3tixIgRMWHChHjqqafa4omf//znpa2g0yK6RdgKurzV8y9/+ct45pln2uzXpZdeaivoNnUcIECAAAECBAgQ6KyAZEtnpZxHgEDhBdbc6vncc89ttz9pZkezbQWdtnpOt06lW6jOO++8dn3SOjdpPZe07k3et4Jec6vn888/v91+LV261FbQ7Qo5SIAAAQIECBAg0BkByZbOKDmHAIGGEGi91XNHnWq2raDLWz2nhES6laqjUpStoD/xiU+8bqvnjvplK+iOhBwnQIAAAQIECBDoSECypSMhxwkQaAiB8voraavndAtMZ0uzbAVd3ur5L3/5S6RbbTpb8r4VdNrq+YQTTognn3zydVs9d9Q/W0F3JOQ4AQIECBAgQIBAewKSLe3pOEaAQMMIrLnV87Jlyzrdr2bZCjrtLJS2ek63Tq25JXJHUGndm7T+ze677x553Aq6vNVzOWnWUX/Kx9fcCvqwww4rv+0nAQIECBAgQIAAgU4JSLZ0islJBAgUWaCjrZ476lujbwWdtnp+17veFW1t9dyRT1r/ZuHChZG3raA72uq5o37ZCrojIccJECBAgAABAgTaEpBsaUvG+wQINIxAR1s9d9TRNbeCTuuaNFLpzFbPHfV3za2g07o4eSid2eq5ozjTVtA/+tGPYuutt7YVdEdYjhMgQIAAAQIECLxOQLLldRxeECDQaALlrZ5/85vftLvVc0f9Lm8FfdJJJ8Xmm2/e0emFOd7ZrZ476lB5K+jx48fnYivozm713FG/LrnkEltBd4TkOAECBAgQIECAwFoCki1rkXiDAIFGEVhzq+d0S0glpRG3gu7KVs8d2aWtoM8555xcbAXdla2eO+rXmltBf+Yzn+nodMcJECBAgAABAgQIlAQkW3wQCBBoWIG0C80WW2wRF110UaRbXSotjbYVdFe3eu7I75Zbbol77703jjnmmNh11107Or1mx7u61XNHgZS3gn7ve98bO+64Y0enO06AAAECBAgQIEAgJFt8CAgQaEiBtNVz+tLd1a2eO8Io72qT1oFJ650UtXR3q+eO+tvTW0F3d6vnjvplK+iOhBwnQIAAAQIECBBYU0CyZU0NzwkQaBiB8lbP6daWrmz13BFA2gp6woQJ8ba3vS2OPvrojk7P7fHubvXcUYd6eivo7m713FG/bAXdkZDjBAgQIECAAAECawpItqyp4TkBAg0hsOZWzzfffHPV+3TeeefF/Pnz4/Of/3ykdU+KVird6rmj/vbUVtCVbvXcUb9sBd2RkOMECBAgQIAAAQJlAcmWsoSfBAg0jEClWz13BFHkraCrsdVzRz49sRV0NbZ67qhftoLuSMhxAgQIECBAgACBskDf8hM/CRAg0AgCb3/722OPPfaItHvQz372s053qX+/frFq1apYvmJFp65JX+5TSVtBX3755fH3v/+9U9f19EmHH354jBgxouTzi1/8otPhJJ+Vmc+KTvr06dOnVHfaCjptm71gwYJOt9WdE4866qjYaaedSvGl9jpb0o5V6bPS2X717fu//2yecsopccUVV8SiRYs625TzCBAgQIAAAQIEmkhAsqWJBltXCTSDQJpVMW3atCh/Ke5sn7fOdi1avmxZvDR3bmcviRdeeKF0O1Ha9rgoZc6cOd3y2WbLLSNtg/xSF3Z1mj17dikJ1dlERiWGaSymT58e5SRPZ+pKs3zSuC/J+jWnC/16/vnnY272OUlJGoUAAQIECBAgQIDAugQkW9al4j0CBAor8NBDD0Xaorer5cJvfCMezxa//eEll3T10kKd/8ADD3TL58ff/nY8NGNGXNSF2TD1hJk6dWocd9xxXWoyJWYu+uY344GHH46fdGE2TJcacTIBAgQIECBAgEBTClizpSmHXacJECBAgAABAgQIECBAgACBWglIttRKVr0ECBAgQIAAAQIECBAgQIBAUwpItjTlsOs0AQIECBAgQIAAAQIECBAgUCsByZZayaqXAAECBAgQIECAAAECBAgQaEoByZamHHadJkCAAAECBAgQIECAAAECBGolINlSK1n1EiBAgAABAgQIECBAgAABAk0pINnSlMOu0wQIECBAgAABAgQIECBAgECtBCRbaiWrXgIECBAgQIAAAQIECBAgQKApBSRbmnLYdZoAAQIECBAgQIAAAQIECBColYBkS61k1UuAAAECBAgQIECAAAECBAg0pYBkS1MOu04TIECAAAECBAgQIECAAAECtRKQbKmVrHoJECBAgAABAgQIECBAgACBphSQbGnKYddpAgQIECBAgAABAgQIECBAoFYCki21klUvAQIECBAgQIAAAQIECBAg0JQCki1NOew6TYAAAQIECBAgQIAAAQIECNRKQLKlVrLqJUCAAAECBAgQIECAAAECBJpSQLKlKYddpwkQIECAAAECBAgQIECAAIFaCUi21EpWvQQIECBAgAABAgQIECBAgEBTCki2NOWw6zQBAgQIECBAgAABAgQIECBQKwHJllrJqpcAAQIECBAgQIAAAQIECBBoSgHJlqYcdp0mQKC1QEtLSwzo37/1217/Q2DlypXRv8F8Vq1aFenRv18/40yAAAECBAgQIECgqgJ9q1qbyggQIFBQgckPPBCPP/10QaOvfdj3P/xwTPvzn2vfUB1bSAm2aY88EmnsFQIECBAgQIAAAQLVFDCzpZqa6iJAoLACS5cti/RQ1i3w2uLFsWTp0nUfLPC7jdqvAg+J0AkQIECAAAECDSEg2dIQw6gTBAgQIECAAAECBAgQIECAQF4EJFvyMhLiIECAAAECBAgQIECAAAECBBpCQLKlIYZRJwgQIECAAAECBAgQIECAAIG8CEi25GUkxEGAAAECBAgQIECAAAECBAg0hIBkS0MMo04QIECAAAECBAgQIECAAAECeRGQbMnLSIiDAAECBAgQIECAAAECBAgQaAgByZaGGEadIECAAAECBAgQIECAAAECBPIiINmSl5EQBwECBAgQIECAAAECBAgQINAQApItDTGMOkGAAAECBAgQIECAAAECBAjkRUCyJS8jIQ4CBAgQIECAAAECBAgQIECgIQQkWxpiGHWCAAECBAgQIECAAAECBAgQyIuAZEteRkIcBAgQIECAAAECBAgQIECAQEMI9K20F7169YphQ4dG+jn373+PlpaWSqt0PQECBAgQIECAAAECBAgQIECgsAIVJVt69+4dhx94YCxfuTI2GDgw1l9//bjq+utjZfZaIUCAQFsCJ3zwg7HnbrvFqlWr4lfZ3xl/mjy5rVO9T4AAAQIECBAgQIAAgcIJVHQb0ZhRo2JONpvl1jvvjOt+97t4/oUXYreddy4cgoAJEKifwKhdd429Ro4szYbr06dPfPiYYyL9VAgQIECAAAECBAgQINAoAhXNbOnfv388+cwzpS9O7zzkkNIXpv79+sW7DzusUXz0gwCBKgtstNFGr6uxV/bq65//fCxbseJ179f7xaBsdt4r8+bVu1ntESBAgAABAgQIECDQgAIVJVtefuWV2Cub3XLj738fU6ZNiwPGjIlFr70WDzz8cANS6RIBAtUQeOs//VN85hOfWF1VS3Yr0ZfOOWf1a08IECBAgAABAgQIECBQdIGKbiP688yZpTUXPnzssfGeww+PldmXJomWon8kxE+gtgKPZ7PhJt54Y7y2eHHMf/XV+O6Pf1zbBtVOgAABAgQIECBAgACBOgtUNLMl7Tw06Q9/qHPImiNAoOgCt2TrPKWHQoAAAQIECBAgQIAAgUYUqGhmSyOC6BMBAgQIECBAgAABAgQIECBAoBIByZZK9FxLgAABAgQIECBAgAABAgQIEGglINnSCsRLAgQIECBAgAABAgQIECBAgEAlApItlei5lgABAgQIECBAgAABAgQIECDQSkCypRWIlwQIECBAgAABAgQIECBAgACBSgQkWyrRcy0BAgQIECBAgAABAgQIECBAoJWAZEsrEC8JECBAgAABAgQIECBAgAABApUISLZUoudaAgQIECBAgAABAgQIECBAgEArAcmWViBeEiBAgAABAgQIECBAgAABAgQqEZBsqUTPtQQIECBAgAABAgQIECBAgACBVgKSLa1AvCRAgAABAgQIECBAgAABAgQIVCIg2VKJnmsJECBAgAABAgQIECBAgAABAq0EJFtagXhJgAABAgQIECBAgAABAgQIEKhEQLKlEj3XEiBAgAABAgQIECBAgAABAgRaCUi2tALxkgABAgQIECBAgAABAgQIECBQiYBkSyV6riVAgAABAgQIECBAgAABAgQItBKQbGkF4iUBAgQIECBAgAABAgQIECBAoBIByZZK9FxLgAABAgQIECBAgAABAgQIEGglINnSCsRLAgQIECBAgAABAgQIECBAgEAlApItlei5lgABAgQIECBAgAABAgQIECDQSkCypRWIlwQIECBAgAABAgQIECBAgACBSgQkWyrRcy0BAgQIECBAgAABAgQIECBAoJWAZEsrEC8JECBAgAABAgQIECBAgAABApUISLZUoudaAgQIECBAgAABAgQIECBAgEArAcmWViBeEiBAgAABAgQIECBAgAABAgQqEZBsqUTPtQQIECBAgAABAgQIECBAgACBVgKSLa1AvCRAgAABAgQIECBAgAABAgQIVCIg2VKJnmsJECBAgAABAgQIECBAgAABAq0EJFtagXhJgAABAgQIECBAgAABAgQIEKhEoG8lF/fv1y+GDxv2uirmvPxyLF227HXveUGAAAECBAgQIECAAAECBAgQaBaBipIt+++1V/Tv3z9emTev5LXxkCHx2pIlcdtddzWLn34SIECg6gLjP/rR2G2XXeLAvfeOCddeG3dPnVr1NlRIgAABAgQIECBAgEDtBCpKtqxcuTKmTpsWaTZLKptuskns9Ja3d+3obAAADYRJREFU1C5aNRMgQKDBBfbdc88YueuupV727dMnPjpunGRLg4+57hEgQIAAAQIECDSeQEXJljLHXiNHxjsPOST6ZF8M0q1FB++7b/mQnwQIECDQBYE0Q3DN0qtXrzj7i1+MFStWrPl23Z9vMGhQ/G327Lq3q0ECBAgQIECAAAECRRSoSrJlSja7JT3KM1tunzy5iBZiJkCAQI8L7LzDDnHaCSesjmNVS0v8+znnrH7tCQECBAgQIECAAAEC+ReoKNmyIruNaM9sVkv5N64bbbhhPPfCC/nvtQgJECCQU4EZjz0W106aFIcffHBpsfGLf/GLnEYqLAIECBAgQIAAAQIE2hKoKNnypylT2qrX+wQIECDQTYHf3X57pIdCgAABAgQIECBAgEAxBXoXM2xREyBAgAABAgQIECBAgAABAgTyKSDZks9xERUBAgQIECBAgAABAgQIECBQUAHJloIOnLAJECBAgAABAgQIECBAgACBfApItuRzXERFgAABAgQIECBAgAABAgQIFFRAsqWgAydsAgQIECBAgAABAgQIECBAIJ8Cki35HBdRESBAgAABAgQIECBAgAABAgUVkGwp6MAJmwABAgQIECBAgAABAgQIEMingGRLPsdFVAQIECBAgAABAgQIECBAgEBBBSRbCjpwwiZAgAABAgQIECBAgAABAgTyKSDZks9xERUBAgQIECBAgAABAgQIECBQUAHJloIOnLAJECBAgAABAgQIECBAgACBfApItuRzXERFgAABAgQIECBAgAABAgQIFFRAsqWgAydsAgQIECBAgAABAgQIECBAIJ8Cki35HBdRESBAgAABAgQIECBAgAABAgUVkGwp6MAJmwABAgQIECBAgAABAgQIEMingGRLPsdFVAQIECBAgAABAgQIECBAgEBBBSRbCjpwwiZAgAABAgQIECBAgAABAgTyKSDZks9xERUBAgQIECBAgAABAgQIECBQUAHJloIOnLAJECBAgAABAgQIECBAgACBfApItuRzXERFgAABAgQIECBAgAABAgQIFFRAsqWgAydsAgQIECBAgAABAgQIECBAIJ8Cki35HBdRESBAgAABAgQIECBAgAABAgUVkGwp6MAJmwABAgQIECBAgAABAgQIEMingGRLPsdFVAQIECBAgAABAgQIECBAgEBBBSRbCjpwwiZAgAABAgQIECBAgAABAgTyKSDZks9xERUBAgQIECBAgAABAgQIECBQUAHJloIOnLAJECBAgAABAgQIECBAgACBfApItuRzXERFgAABAgQIECBAgAABAgQIFFRAsqWgAydsAgQIECBAgAABAgQIECBAIJ8CfSsNq3fv3jF82LDo1atXvDhnTrS0tFRapesJECBAgAABAgQIECBAgAABAoUVqCjZkhItR7797bFkyZIYNHBgDBk8OCZce22sWLmysCACJ0CAAIF8C/zbSSfFjttvH/uOHl36N+euqVPzHbDoCBAgQIAAAQIEmk6gomTL3nvsEbNffDGmPfJIaWZL+h/fkbvuGg88/HDTQeowAQIECNRe4JB9942dskRLKn369ImPHHdc3HP//d1uOM3KVAgQIECAAAECBAhUW6CiZEu/vn3jyeefj9G77RZHHnxw9M1e9+/XL96ZzXZRCBAgQIBAtQU2GTr0dVWmVMn/O/306O58yg032CCe/Mtf4snX1eoFAQIECBAgQIAAgcoEKkq2vPzKK5Fmt/z3zTfH1GnT4uB99ol5CxaUZrpUFparCRAgQIDA2gK77bRTfOJf/mX1gVWrVsVZ5567+rUnBAgQIECAAAECBPIgUFGy5c+PPRabDh8eH8umcS9YuDBeeOkliZY8jKoYCBAg0KAC0x99NK6dNCkOzWZTpvXCfnjppQ3aU90iQIAAAQIECBAoskBFyZa089Ctd95Z5P6LnQABAgQKJvC722+P9FAIECBAgAABAgQI5FWgd14DExcBAgQIECBAgAABAgQIECBAoIgCki1FHDUxEyBAgAABAgQIECBAgAABArkVkGzJ7dAIjAABAgQIECBAgAABAgQIECiigGRLEUdNzAQIECBAgAABAgQIECBAgEBuBSRbcjs0AiNAgAABAgQIECBAgAABAgSKKCDZUsRREzMBAgQIECBAgAABAgQIECCQWwHJltwOjcAIECBAgAABAgQIECBAgACBIgpIthRx1MRMgAABAgQIECBAgAABAgQI5FZAsiW3QyMwAgQIECBAgAABAgQIECBAoIgCki1FHDUxEyBAgAABAgQIECBAgAABArkVkGzJ7dAIjAABAgQIECBAgAABAgQIECiigGRLEUdNzAQIECBAgAABAgQIECBAgEBuBSRbcjs0AiNAgAABAgQIECBAgAABAgSKKCDZUsRREzMBAgQIECBAgAABAgQIECCQWwHJltwOjcAIECBAgAABAgQIECBAgACBIgpIthRx1MRMgAABAgQIECBAgAABAgQI5FZAsiW3QyMwAgQIECBAgAABAgQIECBAoIgCki1FHDUxEyBAgAABAgQIECBAgAABArkVkGzJ7dAIjAABAgQIECBAgAABAgQIECiigGRLEUdNzAQIECBAgAABAgQIECBAgEBuBSRbcjs0AiNAgAABAgQIECBAgAABAgSKKCDZUsRREzMBAgQIECBAgAABAgQIECCQWwHJltwOjcAIECBAgAABAgQIECBAgACBIgpIthRx1MRMgAABAgQIECBAgAABAgQI5FZAsiW3QyMwAgQIECBAgAABAgQIECBAoIgCki1FHDUxEyBAgAABAgQIECBAgAABArkVkGzJ7dAIjAABAgQIECBAgAABAgQIECiigGRLEUdNzAQIECBAgAABAgQIECBAgEBuBSRbcjs0AiNAgAABAgQIECBAgAABAgSKKCDZUsRREzMBAgQIECBAgAABAgQIECCQWwHJltwOjcAIECBAgAABAgQIECBAgACBIgpIthRx1MRMgAABAgQIECBAgAABAgQI5FZAsiW3QyMwAgQIECBAgAABAgQIECBAoIgCki1FHDUxEyBAgAABAgQIECBAgAABArkVkGzJ7dAIjAABAgQIECBAgAABAgQIECiigGRLEUdNzAQIECBAgAABAgQIECBAgEBuBSRbcjs0AiNAgAABAgQIECBAgAABAgSKKCDZUsRREzMBAgQIECBAgAABAgQIECCQWwHJltwOjcAIECBAgAABAgQIECBAgACBIgpIthRx1MRMgAABAgQIECBAgAABAgQI5FZAsiW3QyMwAgQIECBAgAABAgQIECBAoIgCki1FHDUxEyBAgAABAgQIECBAgAABArkVkGzJ7dAIjAABAgQIECBAgAABAgQIECiigGRLEUdNzAQIECBAgAABAgQIECBAgEBuBSRbcjs0AiNAgAABAgQIECBAgAABAgSKKCDZUsRREzMBAgQIECBAgAABAgQIECCQWwHJltwOjcAIECBAgAABAgQIECBAgACBIgr0rTTo3r17x2bDh5eqeeGll6KlpaXSKl1PgAABAgQIECBAgAABAgQIECisQEXJlpRoGXvIIbFw0aIYNHBgbDJsWPzXxImxYsWKwoIInAABAgQIECBAgAABAgQIECBQiUBFyZZ99tgjZj3/fDw8c2b06dMnxowaFbu/7W3x4J//XElMriVAgAABAgQIECBAgAABAt0S6NWrV7eucxGBagpUlGxZr2/feP6FF0oJlsMPPDD6Zq8H9O8fh+6/fzVjVBcBAgQIECBAgAABAgQIEOiUwLChQ6NP9t00li3r1PlOIlALgZTy6/YiK7vssENsv+22cc2kSZGyhwfts0+8Mm9eTJ8xoxaxqpMAAQIECBAgQIAAAQIECBAgkHuBipIt5QTLVptvHgsWLozZ2SyXKdOm5b7TAiRAgAABAgQIECBAgAABAgQI1EqgomRLrYJSLwECBAgQIECAAAECBAgQIECgqAK9ixq4uAkQIECAAAECBAgQIECAAAECeRSQbMnjqIiJAAECBAgQIECAAAECBAgQKKyAZEthh07gBAgQIECAAAECBAgQIECAQB4FJFvyOCpiIkCAAAECBAgQIECAAAECBAorINlS2KETOAECBAgQIECAAAECBAgQIJBHAcmWPI6KmAgQIECAAAECBAgQIECAAIHCCki2FHboBE6AAAECBAgQIECAAAECBAjkUUCyJY+jIiYCBAgQIECAAAECBAgQIECgsAKSLYUdOoETIECAAAECBAgQIECAAAECeRSQbMnjqIiJAAECBAgQIECAAAECBAgQKKyAZEthh07gBAgQIECAAAECBAgQIECAQB4FJFvyOCpiIkCAAAECBAgQIECAAAECBAorINlS2KETOAECBAgQIECAAAECBAgQIJBHAcmWPI6KmAgQIECAAAECBAgQIECAAIHCCki2FHboBE6AAAECBAgQIECAAAECBAjkUUCyJY+jIiYCBAgQIECAAAECBAgQIECgsAKSLYUdOoETIECAAAECBAgQIECAAAECeRSQbMnjqIiJAAECBAgQIECAAAECBAgQKKyAZEthh07gBAgQIECAAAECBAgQIECAQB4FJFvyOCpiIkCAAAECBAgQIECAAAECBAor8P8BfvflQkhId/4AAAAASUVORK5CYII=;" parent="1" vertex="1">
                    <mxGeometry x="470" y="110" width="1115" height="1027" as="geometry"/>
                </mxCell>
                <mxCell id="45" value="" style="endArrow=none;html=1;exitX=0.25;exitY=1;exitDx=0;exitDy=0;" edge="1" parent="1" source="29">
                    <mxGeometry width="50" height="50" relative="1" as="geometry">
                        <mxPoint x="120" y="450" as="sourcePoint"/>
                        <mxPoint x="130" y="470" as="targetPoint"/>
                    </mxGeometry>
                </mxCell>
                <mxCell id="46" value="" style="endArrow=none;html=1;exitX=0.5;exitY=1;exitDx=0;exitDy=0;" edge="1" parent="1" source="29">
                    <mxGeometry width="50" height="50" relative="1" as="geometry">
                        <mxPoint x="210" y="499.5" as="sourcePoint"/>
                        <mxPoint x="130" y="500" as="targetPoint"/>
                    </mxGeometry>
                </mxCell>
                <mxCell id="47" value="" style="endArrow=none;html=1;exitX=0.75;exitY=1;exitDx=0;exitDy=0;" edge="1" parent="1" source="29">
                    <mxGeometry width="50" height="50" relative="1" as="geometry">
                        <mxPoint x="220" y="540" as="sourcePoint"/>
                        <mxPoint x="130" y="530" as="targetPoint"/>
                    </mxGeometry>
                </mxCell>
                <mxCell id="50" value="&lt;font style=&quot;font-size: 24px;&quot;&gt;$$D_0$$&lt;/font&gt;" style="text;html=1;align=center;verticalAlign=middle;resizable=0;points=[];autosize=1;strokeColor=none;fillColor=none;" vertex="1" parent="1">
                    <mxGeometry x="420" y="120" width="120" height="40" as="geometry"/>
                </mxCell>
                <mxCell id="55" value="&lt;font style=&quot;font-size: 24px;&quot;&gt;$$D_1$$&lt;/font&gt;" style="text;html=1;align=center;verticalAlign=middle;resizable=0;points=[];autosize=1;strokeColor=none;fillColor=none;" vertex="1" parent="1">
                    <mxGeometry x="420" y="235" width="120" height="40" as="geometry"/>
                </mxCell>
                <mxCell id="56" value="&lt;font style=&quot;font-size: 24px;&quot;&gt;$$D_2$$&lt;/font&gt;" style="text;html=1;align=center;verticalAlign=middle;resizable=0;points=[];autosize=1;strokeColor=none;fillColor=none;" vertex="1" parent="1">
                    <mxGeometry x="420" y="330" width="120" height="40" as="geometry"/>
                </mxCell>
                <mxCell id="57" value="&lt;font style=&quot;font-size: 24px;&quot;&gt;$$D_3$$&lt;/font&gt;" style="text;html=1;align=center;verticalAlign=middle;resizable=0;points=[];autosize=1;strokeColor=none;fillColor=none;" vertex="1" parent="1">
                    <mxGeometry x="430" y="420" width="120" height="40" as="geometry"/>
                </mxCell>
                <mxCell id="58" value="&lt;font style=&quot;font-size: 24px;&quot;&gt;$$D_4$$&lt;/font&gt;" style="text;html=1;align=center;verticalAlign=middle;resizable=0;points=[];autosize=1;strokeColor=none;fillColor=none;" vertex="1" parent="1">
                    <mxGeometry x="420" y="545" width="120" height="40" as="geometry"/>
                </mxCell>
                <mxCell id="59" value="&lt;font style=&quot;font-size: 24px;&quot;&gt;$$D_5$$&lt;/font&gt;" style="text;html=1;align=center;verticalAlign=middle;resizable=0;points=[];autosize=1;strokeColor=none;fillColor=none;" vertex="1" parent="1">
                    <mxGeometry x="420" y="640" width="120" height="40" as="geometry"/>
                </mxCell>
                <mxCell id="60" value="&lt;font style=&quot;font-size: 24px;&quot;&gt;$$D_6$$&lt;/font&gt;" style="text;html=1;align=center;verticalAlign=middle;resizable=0;points=[];autosize=1;strokeColor=none;fillColor=none;" vertex="1" parent="1">
                    <mxGeometry x="420" y="710" width="120" height="40" as="geometry"/>
                </mxCell>
                <mxCell id="61" value="&lt;font style=&quot;font-size: 24px;&quot;&gt;$$D_7$$&lt;/font&gt;" style="text;html=1;align=center;verticalAlign=middle;resizable=0;points=[];autosize=1;strokeColor=none;fillColor=none;" vertex="1" parent="1">
                    <mxGeometry x="420" y="800" width="120" height="40" as="geometry"/>
                </mxCell>
                <mxCell id="67" value="&lt;font style=&quot;font-size: 24px;&quot;&gt;$$0$$&lt;/font&gt;" style="text;html=1;align=center;verticalAlign=middle;resizable=0;points=[];autosize=1;strokeColor=none;fillColor=none;" vertex="1" parent="1">
                    <mxGeometry x="580" y="110" width="90" height="40" as="geometry"/>
                </mxCell>
                <mxCell id="68" value="&lt;font style=&quot;font-size: 24px;&quot;&gt;$$0$$&lt;/font&gt;" style="text;html=1;align=center;verticalAlign=middle;resizable=0;points=[];autosize=1;strokeColor=none;fillColor=none;" vertex="1" parent="1">
                    <mxGeometry x="580" y="235" width="90" height="40" as="geometry"/>
                </mxCell>
                <mxCell id="69" value="&lt;font style=&quot;font-size: 24px;&quot;&gt;$$1$$&lt;/font&gt;" style="text;html=1;align=center;verticalAlign=middle;resizable=0;points=[];autosize=1;strokeColor=none;fillColor=none;" vertex="1" parent="1">
                    <mxGeometry x="580" y="320" width="90" height="40" as="geometry"/>
                </mxCell>
                <mxCell id="70" value="&lt;font style=&quot;font-size: 24px;&quot;&gt;$$1$$&lt;/font&gt;" style="text;html=1;align=center;verticalAlign=middle;resizable=0;points=[];autosize=1;strokeColor=none;fillColor=none;" vertex="1" parent="1">
                    <mxGeometry x="580" y="410" width="90" height="40" as="geometry"/>
                </mxCell>
                <mxCell id="71" value="&lt;font style=&quot;font-size: 24px;&quot;&gt;$$1$$&lt;/font&gt;" style="text;html=1;align=center;verticalAlign=middle;resizable=0;points=[];autosize=1;strokeColor=none;fillColor=none;" vertex="1" parent="1">
                    <mxGeometry x="580" y="540" width="90" height="40" as="geometry"/>
                </mxCell>
                <mxCell id="72" value="&lt;font style=&quot;font-size: 24px;&quot;&gt;$$0$$&lt;/font&gt;" style="text;html=1;align=center;verticalAlign=middle;resizable=0;points=[];autosize=1;strokeColor=none;fillColor=none;" vertex="1" parent="1">
                    <mxGeometry x="580" y="620" width="90" height="40" as="geometry"/>
                </mxCell>
                <mxCell id="73" value="&lt;font style=&quot;font-size: 24px;&quot;&gt;$$0$$&lt;/font&gt;" style="text;html=1;align=center;verticalAlign=middle;resizable=0;points=[];autosize=1;strokeColor=none;fillColor=none;" vertex="1" parent="1">
                    <mxGeometry x="580" y="700" width="90" height="40" as="geometry"/>
                </mxCell>
                <mxCell id="74" value="&lt;font style=&quot;font-size: 24px;&quot;&gt;$$1$$&lt;/font&gt;" style="text;html=1;align=center;verticalAlign=middle;resizable=0;points=[];autosize=1;strokeColor=none;fillColor=none;" vertex="1" parent="1">
                    <mxGeometry x="580" y="790" width="90" height="40" as="geometry"/>
                </mxCell>
                <mxCell id="75" value="&lt;font style=&quot;font-size: 24px;&quot;&gt;$$0$$&lt;/font&gt;" style="text;html=1;align=center;verticalAlign=middle;resizable=0;points=[];autosize=1;strokeColor=none;fillColor=none;" vertex="1" parent="1">
                    <mxGeometry x="1495" y="550" width="90" height="40" as="geometry"/>
                </mxCell>
                <mxCell id="76" value="&lt;font style=&quot;font-size: 24px;&quot;&gt;$$0$$&lt;/font&gt;" style="text;html=1;align=center;verticalAlign=middle;resizable=0;points=[];autosize=1;strokeColor=none;fillColor=none;" vertex="1" parent="1">
                    <mxGeometry x="1090" y="130" width="90" height="40" as="geometry"/>
                </mxCell>
                <mxCell id="77" value="&lt;font style=&quot;font-size: 24px;&quot;&gt;$$0$$&lt;/font&gt;" style="text;html=1;align=center;verticalAlign=middle;resizable=0;points=[];autosize=1;strokeColor=none;fillColor=none;" vertex="1" parent="1">
                    <mxGeometry x="1090" y="260" width="90" height="40" as="geometry"/>
                </mxCell>
                <mxCell id="78" value="&lt;font style=&quot;font-size: 24px;&quot;&gt;$$0$$&lt;/font&gt;" style="text;html=1;align=center;verticalAlign=middle;resizable=0;points=[];autosize=1;strokeColor=none;fillColor=none;" vertex="1" parent="1">
                    <mxGeometry x="1090" y="350" width="90" height="40" as="geometry"/>
                </mxCell>
                <mxCell id="79" value="&lt;font style=&quot;font-size: 24px;&quot;&gt;$$0$$&lt;/font&gt;" style="text;html=1;align=center;verticalAlign=middle;resizable=0;points=[];autosize=1;strokeColor=none;fillColor=none;" vertex="1" parent="1">
                    <mxGeometry x="1090" y="430" width="90" height="40" as="geometry"/>
                </mxCell>
                <mxCell id="80" value="&lt;font style=&quot;font-size: 24px;&quot;&gt;$$0$$&lt;/font&gt;" style="text;html=1;align=center;verticalAlign=middle;resizable=0;points=[];autosize=1;strokeColor=none;fillColor=none;" vertex="1" parent="1">
                    <mxGeometry x="1100" y="560" width="90" height="40" as="geometry"/>
                </mxCell>
                <mxCell id="81" value="&lt;font style=&quot;font-size: 24px;&quot;&gt;$$0$$&lt;/font&gt;" style="text;html=1;align=center;verticalAlign=middle;resizable=0;points=[];autosize=1;strokeColor=none;fillColor=none;" vertex="1" parent="1">
                    <mxGeometry x="1100" y="640" width="90" height="40" as="geometry"/>
                </mxCell>
                <mxCell id="82" value="&lt;font style=&quot;font-size: 24px;&quot;&gt;$$0$$&lt;/font&gt;" style="text;html=1;align=center;verticalAlign=middle;resizable=0;points=[];autosize=1;strokeColor=none;fillColor=none;" vertex="1" parent="1">
                    <mxGeometry x="1100" y="730" width="90" height="40" as="geometry"/>
                </mxCell>
                <mxCell id="83" value="&lt;font style=&quot;font-size: 24px;&quot;&gt;$$0$$&lt;/font&gt;" style="text;html=1;align=center;verticalAlign=middle;resizable=0;points=[];autosize=1;strokeColor=none;fillColor=none;" vertex="1" parent="1">
                    <mxGeometry x="1100" y="810" width="90" height="40" as="geometry"/>
                </mxCell>
            </root>
        </mxGraphModel>
    </diagram>
</mxfile>